<svg id="Layer_1" data-name="Layer 1" xmlns="http://www.w3.org/2000/svg" viewBox="0 0 25 22.78"><path d="M18.3,1a7.58,7.58,0,0,0-5.36,2.57.59.59,0,0,1-.88,0A7.58,7.58,0,0,0,6.7,1C3.13,1,0,3.21,0,8.07S10,21.78,12.1,23.64a.63.63,0,0,0,.8,0C15,21.78,25,12.81,25,8.07S21.88,1,18.3,1ZM13.6,20.49a1.62,1.62,0,0,1-2.19,0C7.06,16.46,2,10.79,2,8.07,2,4.7,3.71,2.76,6.7,2.76a5.78,5.78,0,0,1,4.12,2.3h0l1.67,2.3L14.18,5c.1-.12,1.82-2.27,4.12-2.27,3,0,4.7,1.94,4.7,5.31C23,10.79,17.94,16.46,13.6,20.49Z" transform="translate(0 -1)"/></svg>