<svg xmlns="http://www.w3.org/2000/svg" xmlns:xlink="http://www.w3.org/1999/xlink" viewBox="0 0 1920 1080"><defs><clipPath id="a"><path d="M738,560.27A305.47,305.47,0,0,1,693.22,720q-3.57,5.85-7.4,11.52c-53.61,79.58-143.52,132.69-246,135.56-2.91.08-5.82.12-8.76.12-2.54,0-5.08,0-7.61-.09a306,306,0,0,1-209.11-89.49q-6.28-6.25-12.19-12.88a307.49,307.49,0,0,1-47.28-70.4c73.34-130.13,212.83-218,372.85-218a425.65,425.65,0,0,1,208.91,54.41Q738,545.32,738,560.27Z" style="fill:none"/></clipPath><clipPath id="b"><ellipse cx="366.27" cy="326.95" rx="132.42" ry="48.86" transform="translate(-79.27 120.68) rotate(-16.91)" style="fill:none"/></clipPath></defs><rect width="1920" height="1080" style="fill:#f2f2f2"/><path d="M1784,259c-55-8-127-40-180-64s-39-33-104-45-155-37-147-41,69,16,53-3-88-7-180-9c-87-1.89-51.51,8.73-109.88,36.92-3.38,1.64-7.07,3.33-11.12,5.08-74,32-65,12-97,29s-82,3-74-12,51-39,23-34-47,46-101,57-32-4-192,3-323,73-323,73l28.79-2.09c-112,49.3-171.5,112.18-171.63,194.15-.08,52.49-22.74,97.22-44,127.66-22-3-38.07-3.78-38.07-3.78s-.1.8-.26,2.32C113.33,595.86,94.51,777.39,132,828c40,54,32,78,94,110s60,16,89,42,25-8,10-17,9-11,44,0,36,9,92,14,61-23,87,1,23,46,47,45-19-15-18-29,50-9,77,21,66,12,94,46a109.59,109.59,0,0,1,12.54,19H1773c-16.28-15.15-40.23-32.33-70-39-58-13,23-22,61-2,16.18,8.52,24.75.17,26.23-14.54,1.68-16.46-5.52-40.9-20.82-58.58A71.07,71.07,0,0,0,1759,956c-22.69-17.46,38.22-26.45,95.31-30.72,25.12-1.88,49.5-2.85,65.69-3.22V732.36c-16.13-5.43-30.57-12.74-36-16.36-12-8-62-3-82,4s-54,10-40,3,43-16,10-23-17,20-60,26-82-13-82-42-29-11-40-33-55-28-3-24,59,30,101,27,52-22,42-37-60,7-36-10,66-29,112-18c30.22,7.23,82,5.39,114,3.27V506.5c-12.78-10.37-30.62-22.3-49-26.5-35-8-65,1-74-21s34,10,76,7,29-20-14-34-45.09-48.09-23-25c15.22,15.91,54.36,17,84,23.42V290.33C1876.53,270.75,1820,264.23,1784,259Zm-466,800c-49,3-172,6-217-53s-175-65-189-65c-21,1-37,27-30-3s-39,15-85,9,6-31,63-28,79-3,136,1,122,9,136,44,52,68,39,39-19-51,12-16,68,35,130,14S1367,1056,1318,1059Zm149.84-464.84C1261.68,627.32,1330,546,1271,390s-354-98-354-98c-13,3-21,17-31-5s33-20,81-20,97-3,63-20-58,19-75-7,103-17,210-19,103,48,125,73,42-9,29-22-65-37-9.87-17.71S1370,393,1371,439s-5,110,84,109,78,6,135.16-15,49.84-49-4.64-31.74S1545,504,1545,504s104-85,163-21S1674,561,1467.84,594.16Z" style="fill:#f1a168"/><path d="M1137.72,1080H760.54A109.59,109.59,0,0,0,748,1061c-28-34-67-16-94-46s-76-35-77-21,42,28,18,29-21-21-47-45-31,4-87-1-57-3-92-14-59-9-44,0,19,43-10,17-27-10-89-42-54-56-94-110c-37.49-50.61-18.67-232.14-16.16-254.74,60.5,49.23,155.79,135.6,175.22,205.16C320,882,358,924,463,890s139-17,197,34,12,23-53-5-107-19-79,3,75,31,141,42,76,9,83,30,47,35,44,12-51-40-17-36,87,35,52,50-104,30-37,31,118-27,160-19,70-5,121,20C1102.72,1065.59,1126.3,1072.08,1137.72,1080Z" style="fill:#eb292c"/><path d="M342.16,354.16S643,182,751,233,851,374,938,384s124-67,203,15,30,41,107,115,50,68,12,37-27-43-97-64-136-33-96,2,124,51,148,71,41,32,24,34-40-33-113-62-92-36-130-37-91,29-124-1,38-32,62-25,69-13,21-33-77-32-125-43-144-32-181-34-222-3-222-3l-84.84-1.84Z" style="fill:#eb292c"/><path d="M1920,290.33V361c-74.8-1.13-122.89-45.82-142-64-21-20-103-54-138-62s-48,39,6,46,94,14-2,27-131-22-142-73-71-62-122-84-36,25-7,28,93,30-21,27-64-30-65-67-37-20-59-16-9,11-2,16,31,11-12,42-88,12-99-2,46-1,57-20c6.82-11.77-20.93-21.25-55.88-25.08C1174.49,105.73,1139,95.11,1226,97c92,2,164-10,180,9s-45-1-53,3,82,29,147,41,51,21,104,45,125,56,180,64C1820,264.23,1876.53,270.75,1920,290.33Z" style="fill:#eb292c"/><path d="M1920,821.56v76.93c-3.23-2.51-6.24-5-9-7.49-39-35-82-7-158,5s2,19,72,23c18.89,1.08,27.36,3.32,29.31,6.28,5.3,8-37.17,21.23-50.31,30.72-6.69,4.83-18.63,8-34.59,9.88-27,3.17-65.43,2.63-109.41.12-70-4-16-19,23-16s35-38-63-47-97-28-48-37,99,16,209,9-186-74-244-81-70-19-44-30,178,42,260,55C1809.72,828,1881.28,824.54,1920,821.56Z" style="fill:#eb292c"/><path d="M828.85,863c6.26.21-183.85-4-688.85-220" style="fill:#fff"/><path d="M828.88,862a1.71,1.71,0,0,1,.41,0c1.49,2.52-1.63,2-.54,2-1.42.13-3.93.24-5.4.29-28.62.62-57.19-3.06-85.34-7.76-29.94-5.27-59.7-11.78-88.7-20.9-57.48-19.75-113.93-41.36-172.94-56.24a1579.21,1579.21,0,0,1-296.59-114c-13.53-6.91-27-14-40.17-21.5l.78-1.84c14.6,4.31,29,9.08,43.36,13.85,86,28.65,170.18,62,254.26,95.79,27.56,11.2,56.15,23.77,84.19,33.66,42.55,15.83,87.15,24.8,131.44,34.16,56.8,13.09,115.74,30,172.78,41.91l1.38.28.7.14.34.06c1.21,0-1.79-.5-.19,2l.17,0,.06-2Z"/><path d="M470.42,741.56S34.94,694.67,47,531c7-95,494,133.84,494,133.84Z" style="fill:#fff"/><path d="M470.42,741.56c-86.65-7-173-22.09-255.79-49-41.69-14-83.13-31.26-119-57.36-30.14-22-57.15-54.25-58.58-93.32a103.33,103.33,0,0,1,0-11.27,11.53,11.53,0,0,1,.11-1.31l.16-1.4c1.12-9.78,7.84-18.84,16.46-23.19,63.61-33.71,300.86,70.42,371,101.1,41.25,18.4,82.12,37.57,122.45,57.94-24.69,25.48-51.78,52.63-76.85,77.78Zm0,0c21.38-25.33,46.13-54.28,67.74-79.28l1.18,6c-79.21-33.72-160.12-66.57-241-95.85-60.38-21.14-121.83-43.08-185.12-52.64-14.65-1.74-43-5-53.69,5.26-2.2,2.31-2.73,5.66-2.72,8.79-2.38,35.92,22.57,66.12,49.88,86.8,29.24,22.25,63.61,38.61,97.86,52.23,85.39,33.14,175.57,53.28,265.89,68.7Z"/><path d="M518.47,606.18S101.71,580,139.35,413.46,589,529.46,589,529.46Z" style="fill:#fff;stroke:#000;stroke-miterlimit:10;stroke-width:20px"/><path d="M1920,748.79v294.07c-40.94-5.52-84.54-11.66-129.77-18.4C1464.39,975.89,1053.85,895.88,941,789.74c-36.86-34.67,38.89-158.8,38.89-158.8S1492,761.94,1920,748.79Z"/><path d="M929.93,558.29s.65-62.74,74.94-42.52c93.57,25.46,1.69,345.56-109.65,377.25-101.19,28.81-58.41-66.81-58.41-66.81" style="fill:#fff"/><path d="M929.93,558.29c-.67-20.4,10.08-40.9,30.25-47.68,14.18-4.95,29.61-3.79,44-.73a49,49,0,0,1,5.6,1.44,43.59,43.59,0,0,1,15.77,8.76c19.13,16.76,24.13,43.32,26.1,67.34,4.89,83.87-33.35,196-85.84,261.41-15.67,19.23-34.27,37.08-57.48,46.85l-2.68,1-2.67,1c-2.3.79-3.38.93-5.51,1.61a150.59,150.59,0,0,1-24.33,4.24c-40.67,3.49-55.86-19.88-44.34-57.69a116.92,116.92,0,0,1,8-19.64,131.62,131.62,0,0,0-5.06,20.33c-2.06,12.57-2.87,27.9,5.23,38,12.67,14.84,40.63,7,56.76,1.93,24.37-8.5,42.84-28.38,58.15-48.5,42.18-57.87,71-138.39,80.65-209.18,3.53-29.54,6.52-76.76-15.5-99.3l-.78-.81-.86-.71a35.78,35.78,0,0,0-5.44-3.87l-2-1-1-.52-1.06-.4a86.31,86.31,0,0,0-9.33-2.94c-10.34-2.56-21.42-4.21-31.9-2.19-20.36,3.33-32.26,21.67-34.75,41.23Z"/><path d="M750.06,560.27a317.53,317.53,0,0,1-31.27,137.89q-5.56,11.63-12,22.7c-1.06,1.82-2.14,3.64-3.24,5.43q-3.71,6.08-7.69,12A319.3,319.3,0,0,1,440.16,879.14c-3,.08-6.05.13-9.1.13-2.64,0-5.28,0-7.91-.1a317.91,317.91,0,0,1-217.3-93q-6.54-6.51-12.68-13.39-2.38-2.67-4.71-5.38a318.11,318.11,0,0,1-76.4-207.14,322.31,322.31,0,0,1,2.32-38.65c.64-5.26,1.4-10.5,2.29-15.68A319.3,319.3,0,0,1,265.35,287.63l0,0q9.59-5.85,19.61-11a317.59,317.59,0,0,1,146.05-35.32q15.56,0,30.74,1.46h0q8.08.77,16,1.94a317.19,317.19,0,0,1,135.9,54.06q11.28,7.89,21.84,16.72h0A317.9,317.9,0,0,1,749.31,538.17Q750.06,549.12,750.06,560.27Z"/><path d="M738,560.27A305.47,305.47,0,0,1,693.22,720q-3.57,5.85-7.4,11.52c-53.61,79.58-143.52,132.69-246,135.56-2.91.08-5.82.12-8.76.12-2.54,0-5.08,0-7.61-.09a306,306,0,0,1-209.11-89.49q-6.28-6.25-12.19-12.88a307.51,307.51,0,0,1-75.82-241.69q.92-7.61,2.2-15.09A307.21,307.21,0,0,1,271.6,297.92l0,0q9.23-5.62,18.87-10.6a305.58,305.58,0,0,1,140.54-34q15,0,29.58,1.41h0q7.77.73,15.44,1.87a305.29,305.29,0,0,1,130.76,52q10.86,7.59,21,16.09h0a307.73,307.73,0,0,1,85,113.81,301.12,301.12,0,0,1,10.76,28.77,305,305,0,0,1,12.94,63.49Q738,545.32,738,560.27Z" style="fill:#eb292c"/><g style="clip-path:url(#a)"><polyline points="466.27 238.43 448.53 256.19 430.78 273.94 413.02 291.69 395.28 309.43 377.53 327.18 361.55 343.15 343.81 360.9 326.06 378.66 308.31 396.41 290.55 414.15 272.81 431.9 256.83 447.88 239.08 465.62 221.34 483.38 203.59 501.13 185.83 518.88 168.09 536.62 152.11 552.6 134.36 570.35 116.62 588.09 98.87 605.85 81.12 623.6 63.36 641.34" style="fill:none;stroke:#000;stroke-miterlimit:10;stroke-width:2px"/><polyline points="484.03 256.19 466.27 273.94 448.53 291.69 430.78 309.44 413.04 327.19 395.29 344.94 379.31 360.91 361.56 378.66 343.81 396.41 326.06 414.15 308.31 431.91 290.57 449.66 274.59 465.64 256.84 483.38 239.08 501.13 221.34 518.88 203.59 536.63 185.84 554.38 169.87 570.36 152.12 588.1 134.38 605.85 116.62 623.6 98.87 641.34 81.12 659.1" style="fill:none;stroke:#000;stroke-miterlimit:10;stroke-width:2px"/><polyline points="501.78 273.94 484.02 291.69 466.27 309.43 448.53 327.19 430.78 344.94 413.04 362.68 397.06 378.66 379.31 396.41 361.55 414.15 343.81 431.9 326.06 449.66 308.31 467.4 292.34 483.38 274.59 501.13 256.83 518.88 239.08 536.62 221.34 554.38 203.59 572.13 187.62 588.1 169.87 605.85 152.12 623.6 134.36 641.34 116.62 659.09 98.87 676.85" style="fill:none;stroke:#000;stroke-miterlimit:10;stroke-width:2px"/><polyline points="519.53 291.69 501.78 309.44 484.03 327.19 466.27 344.94 448.53 362.68 430.78 380.43 414.81 396.41 397.06 414.15 379.31 431.91 361.56 449.66 343.81 467.4 326.06 485.15 310.08 501.13 292.34 518.88 274.59 536.63 256.84 554.38 239.08 572.13 221.34 589.87 205.36 605.85 187.62 623.6 169.87 641.34 152.12 659.1 134.38 676.85 116.62 694.6" style="fill:none;stroke:#000;stroke-miterlimit:10;stroke-width:2px"/><polyline points="537.27 309.43 519.53 327.19 501.78 344.94 484.02 362.68 466.27 380.43 448.53 398.18 432.55 414.15 414.81 431.9 397.06 449.66 379.31 467.4 361.55 485.15 343.81 502.9 327.83 518.88 310.08 536.62 292.34 554.38 274.59 572.13 256.83 589.87 239.08 607.62 223.11 623.6 205.36 641.34 187.62 659.09 169.87 676.85 152.12 694.6 134.36 712.34" style="fill:none;stroke:#000;stroke-miterlimit:10;stroke-width:2px"/><polyline points="555.02 327.18 537.27 344.94 519.53 362.68 501.77 380.43 484.02 398.18 466.27 415.92 450.3 431.9 432.55 449.65 414.81 467.4 397.06 485.15 379.3 502.9 361.55 520.64 345.58 536.62 327.83 554.37 310.08 572.13 292.34 589.87 274.58 607.62 256.83 625.37 240.85 641.34 223.11 659.09 205.36 676.84 187.62 694.6 169.87 712.34 152.11 730.09" style="fill:none;stroke:#000;stroke-miterlimit:10;stroke-width:2px"/><polyline points="571 343.15 553.25 360.91 535.5 378.66 517.74 396.41 500 414.15 482.25 431.9 466.27 447.88 448.53 465.62 430.78 483.38 413.04 501.13 395.28 518.88 377.53 536.62 361.55 552.6 343.81 570.35 326.06 588.1 308.31 605.85 290.55 623.6 272.81 641.34 256.83 657.32 239.08 675.07 221.34 692.81 203.59 710.57 185.84 728.32 168.09 746.07" style="fill:none;stroke:#000;stroke-miterlimit:10;stroke-width:2px"/><polyline points="588.74 360.9 571 378.66 553.25 396.41 535.49 414.15 517.74 431.9 500 449.65 484.02 465.62 466.27 483.37 448.53 501.13 430.78 518.88 413.02 536.62 395.28 554.37 379.3 570.35 361.55 588.09 343.81 605.85 326.06 623.6 308.3 641.34 290.55 659.09 274.58 675.07 256.83 692.81 239.08 710.56 221.34 728.32 203.59 746.07 185.83 763.81" style="fill:none;stroke:#000;stroke-miterlimit:10;stroke-width:2px"/><polyline points="606.5 378.66 588.74 396.41 571 414.15 553.25 431.91 535.5 449.66 517.76 467.4 501.78 483.38 484.03 501.13 466.27 518.88 448.53 536.62 430.78 554.38 413.04 572.13 397.06 588.1 379.31 605.85 361.55 623.6 343.81 641.34 326.06 659.1 308.31 676.85 292.34 692.83 274.59 710.57 256.84 728.32 239.08 746.07 221.34 763.81 203.59 781.57" style="fill:none;stroke:#000;stroke-miterlimit:10;stroke-width:2px"/><polyline points="624.25 396.41 606.49 414.15 588.74 431.9 571 449.66 553.25 467.4 535.5 485.15 519.53 501.13 501.78 518.88 484.02 536.62 466.27 554.37 448.53 572.13 430.78 589.87 414.81 605.85 397.06 623.6 379.3 641.34 361.55 659.09 343.81 676.85 326.06 694.6 310.08 710.57 292.34 728.32 274.59 746.07 256.83 763.81 239.08 781.56 221.34 799.32" style="fill:none;stroke:#000;stroke-miterlimit:10;stroke-width:2px"/><polyline points="641.99 414.15 624.25 431.91 606.5 449.66 588.74 467.4 571 485.15 553.25 502.9 537.27 518.88 519.53 536.62 501.78 554.38 484.03 572.13 466.27 589.87 448.53 607.62 432.55 623.6 414.81 641.34 397.06 659.1 379.31 676.85 361.55 694.6 343.81 712.34 327.83 728.32 310.08 746.07 292.34 763.81 274.59 781.57 256.84 799.32 239.08 817.06" style="fill:none;stroke:#000;stroke-miterlimit:10;stroke-width:2px"/><polyline points="659.74 431.9 641.99 449.66 624.25 467.4 606.49 485.15 588.74 502.9 571 520.64 555.02 536.62 537.27 554.37 519.53 572.13 501.78 589.87 484.02 607.62 466.27 625.37 450.3 641.34 432.55 659.09 414.81 676.85 397.06 694.6 379.3 712.34 361.55 730.09 345.58 746.07 327.83 763.81 310.08 781.56 292.34 799.32 274.59 817.06 256.83 834.81" style="fill:none;stroke:#000;stroke-miterlimit:10;stroke-width:2px"/><polyline points="675.72 447.88 657.97 465.64 640.23 483.38 622.47 501.13 604.72 518.88 586.97 536.62 571 552.6 553.25 570.35 535.5 588.1 517.76 605.85 500 623.6 482.25 641.34 466.27 657.32 448.53 675.07 430.78 692.83 413.04 710.57 395.28 728.32 377.53 746.07 361.55 762.04 343.81 779.79 326.06 797.53 308.31 815.29 290.57 833.04 272.81 850.79" style="fill:none;stroke:#000;stroke-miterlimit:10;stroke-width:2px"/><polyline points="693.46 465.62 675.72 483.38 657.97 501.13 640.21 518.88 622.47 536.62 604.72 554.37 588.74 570.35 571 588.09 553.25 605.85 535.5 623.6 517.74 641.34 500 659.09 484.02 675.07 466.27 692.81 448.53 710.57 430.78 728.32 413.02 746.07 395.28 763.81 379.3 779.79 361.55 797.53 343.81 815.28 326.06 833.04 308.31 850.79 290.55 868.53" style="fill:none;stroke:#000;stroke-miterlimit:10;stroke-width:2px"/><polyline points="711.22 483.38 693.46 501.13 675.72 518.88 657.97 536.63 640.23 554.38 622.48 572.13 606.5 588.1 588.75 605.85 571 623.6 553.25 641.34 535.5 659.1 517.76 676.85 501.78 692.83 484.03 710.57 466.27 728.32 448.53 746.07 430.78 763.82 413.04 781.57 397.06 797.55 379.31 815.29 361.56 833.04 343.81 850.79 326.06 868.53 308.31 886.29" style="fill:none;stroke:#000;stroke-miterlimit:10;stroke-width:2px"/><polyline points="728.97 501.13 711.21 518.88 693.46 536.62 675.72 554.38 657.97 572.13 640.23 589.87 624.25 605.85 606.5 623.6 588.74 641.34 571 659.09 553.25 676.85 535.5 694.6 519.53 710.57 501.78 728.32 484.02 746.07 466.27 763.81 448.53 781.57 430.78 799.32 414.81 815.29 397.06 833.04 379.31 850.79 361.55 868.53 343.81 886.28 326.06 904.04" style="fill:none;stroke:#000;stroke-miterlimit:10;stroke-width:2px"/><polyline points="746.72 518.88 728.97 536.63 711.22 554.38 693.46 572.13 675.72 589.87 657.97 607.62 641.99 623.6 624.25 641.34 606.5 659.1 588.75 676.85 571 694.6 553.25 712.34 537.27 728.32 519.53 746.07 501.78 763.82 484.03 781.57 466.27 799.32 448.53 817.06 432.55 833.04 414.81 850.79 397.06 868.53 379.31 886.29 361.56 904.04 343.81 921.78" style="fill:none;stroke:#000;stroke-miterlimit:10;stroke-width:2px"/><polyline points="764.46 536.62 746.72 554.38 728.97 572.13 711.21 589.87 693.46 607.62 675.72 625.37 659.74 641.34 641.99 659.09 624.25 676.85 606.5 694.6 588.74 712.34 571 730.09 555.02 746.07 537.27 763.81 519.53 781.57 501.78 799.32 484.02 817.06 466.27 834.81 450.3 850.79 432.55 868.53 414.81 886.28 397.06 904.04 379.31 921.78 361.55 939.53" style="fill:none;stroke:#000;stroke-miterlimit:10;stroke-width:2px"/><polyline points="780.44 552.6 762.69 570.36 744.95 588.1 727.19 605.85 709.44 623.6 691.7 641.34 675.72 657.32 657.97 675.07 640.23 692.83 622.48 710.57 604.72 728.32 586.97 746.07 571 762.04 553.25 779.79 535.5 797.55 517.76 815.29 500 833.04 482.25 850.79 466.27 866.76 448.53 884.51 430.78 902.26 413.04 920.02 395.29 937.76 377.53 955.51" style="fill:none;stroke:#000;stroke-miterlimit:10;stroke-width:2px"/><polyline points="798.19 570.35 780.44 588.1 762.69 605.85 744.93 623.6 727.19 641.34 709.44 659.09 693.46 675.07 675.72 692.81 657.97 710.57 640.23 728.32 622.47 746.07 604.72 763.81 588.74 779.79 571 797.53 553.25 815.29 535.5 833.04 517.74 850.79 500 868.53 484.02 884.51 466.27 902.26 448.53 920 430.78 937.76 413.04 955.51 395.28 973.25" style="fill:none;stroke:#000;stroke-miterlimit:10;stroke-width:2px"/><polyline points="815.93 588.09 798.19 605.85 780.44 623.6 762.68 641.34 744.93 659.09 727.19 676.84 711.21 692.81 693.46 710.56 675.72 728.32 657.97 746.07 640.21 763.81 622.47 781.56 606.49 797.53 588.74 815.28 571 833.04 553.25 850.79 535.49 868.53 517.74 886.28 501.77 902.26 484.02 920 466.27 937.75 448.53 955.51 430.78 973.25 413.02 991" style="fill:none;stroke:#000;stroke-miterlimit:10;stroke-width:2px"/><polyline points="833.69 605.85 815.93 623.6 798.19 641.34 780.44 659.1 762.69 676.85 744.95 694.6 728.97 710.57 711.22 728.32 693.46 746.07 675.72 763.81 657.97 781.57 640.23 799.32 624.25 815.29 606.5 833.04 588.74 850.79 571 868.53 553.25 886.29 535.5 904.04 519.53 920.02 501.78 937.76 484.03 955.51 466.27 973.25 448.53 991 430.78 1008.76" style="fill:none;stroke:#000;stroke-miterlimit:10;stroke-width:2px"/><polyline points="851.44 623.6 833.68 641.34 815.93 659.09 798.19 676.85 780.44 694.6 762.69 712.34 746.72 728.32 728.97 746.07 711.21 763.81 693.46 781.56 675.72 799.32 657.97 817.06 641.99 833.04 624.25 850.79 606.49 868.53 588.74 886.28 571 904.04 553.25 921.78 537.27 937.76 519.53 955.51 501.78 973.25 484.02 991 466.27 1008.75 448.53 1026.51" style="fill:none;stroke:#000;stroke-miterlimit:10;stroke-width:2px"/><polyline points="869.18 641.34 851.44 659.1 833.69 676.85 815.93 694.6 798.19 712.34 780.44 730.09 764.46 746.07 746.72 763.81 728.97 781.57 711.22 799.32 693.46 817.06 675.72 834.81 659.74 850.79 641.99 868.53 624.25 886.29 606.5 904.04 588.74 921.78 571 939.53 555.02 955.51 537.27 973.25 519.53 991 501.78 1008.76 484.03 1026.51 466.27 1044.25" style="fill:none;stroke:#000;stroke-miterlimit:10;stroke-width:2px"/><polyline points="466.27 238.43 484.03 256.19 501.78 273.94 519.53 291.69 537.27 309.43 555.02 327.18 571 343.15 588.74 360.9 606.5 378.66 624.25 396.41 641.99 414.15 659.74 431.9 675.72 447.88 693.46 465.62 711.22 483.38 728.97 501.13 746.72 518.88 764.46 536.62 780.44 552.6 798.19 570.35 815.93 588.09 833.69 605.85 851.44 623.6 869.18 641.34" style="fill:none;stroke:#000;stroke-miterlimit:10;stroke-width:2px"/><polyline points="448.53 256.19 466.27 273.94 484.02 291.69 501.78 309.44 519.53 327.19 537.27 344.94 553.25 360.91 571 378.66 588.74 396.41 606.49 414.15 624.25 431.91 641.99 449.66 657.97 465.64 675.72 483.38 693.46 501.13 711.21 518.88 728.97 536.63 746.72 554.38 762.69 570.36 780.44 588.1 798.19 605.85 815.93 623.6 833.68 641.34 851.44 659.1" style="fill:none;stroke:#000;stroke-miterlimit:10;stroke-width:2px"/><polyline points="430.78 273.94 448.53 291.69 466.27 309.43 484.03 327.19 501.78 344.94 519.53 362.68 535.5 378.66 553.25 396.41 571 414.15 588.74 431.9 606.5 449.66 624.25 467.4 640.23 483.38 657.97 501.13 675.72 518.88 693.46 536.62 711.22 554.38 728.97 572.13 744.95 588.1 762.69 605.85 780.44 623.6 798.19 641.34 815.93 659.09 833.69 676.85" style="fill:none;stroke:#000;stroke-miterlimit:10;stroke-width:2px"/><polyline points="413.02 291.69 430.78 309.44 448.53 327.19 466.27 344.94 484.02 362.68 501.77 380.43 517.74 396.41 535.49 414.15 553.25 431.91 571 449.66 588.74 467.4 606.49 485.15 622.47 501.13 640.21 518.88 657.97 536.63 675.72 554.38 693.46 572.13 711.21 589.87 727.19 605.85 744.93 623.6 762.68 641.34 780.44 659.1 798.19 676.85 815.93 694.6" style="fill:none;stroke:#000;stroke-miterlimit:10;stroke-width:2px"/><polyline points="395.28 309.43 413.04 327.19 430.78 344.94 448.53 362.68 466.27 380.43 484.02 398.18 500 414.15 517.74 431.9 535.5 449.66 553.25 467.4 571 485.15 588.74 502.9 604.72 518.88 622.47 536.62 640.23 554.38 657.97 572.13 675.72 589.87 693.46 607.62 709.44 623.6 727.19 641.34 744.93 659.09 762.69 676.85 780.44 694.6 798.19 712.34" style="fill:none;stroke:#000;stroke-miterlimit:10;stroke-width:2px"/><polyline points="377.53 327.18 395.29 344.94 413.04 362.68 430.78 380.43 448.53 398.18 466.27 415.92 482.25 431.9 500 449.65 517.76 467.4 535.5 485.15 553.25 502.9 571 520.64 586.97 536.62 604.72 554.37 622.48 572.13 640.23 589.87 657.97 607.62 675.72 625.37 691.7 641.34 709.44 659.09 727.19 676.84 744.95 694.6 762.69 712.34 780.44 730.09" style="fill:none;stroke:#000;stroke-miterlimit:10;stroke-width:2px"/><polyline points="361.55 343.15 379.31 360.91 397.06 378.66 414.81 396.41 432.55 414.15 450.3 431.9 466.27 447.88 484.02 465.62 501.78 483.38 519.53 501.13 537.27 518.88 555.02 536.62 571 552.6 588.74 570.35 606.5 588.1 624.25 605.85 641.99 623.6 659.74 641.34 675.72 657.32 693.46 675.07 711.21 692.81 728.97 710.57 746.72 728.32 764.46 746.07" style="fill:none;stroke:#000;stroke-miterlimit:10;stroke-width:2px"/><polyline points="343.81 360.9 361.56 378.66 379.31 396.41 397.06 414.15 414.81 431.9 432.55 449.65 448.53 465.62 466.27 483.37 484.03 501.13 501.78 518.88 519.53 536.62 537.27 554.37 553.25 570.35 571 588.09 588.75 605.85 606.5 623.6 624.25 641.34 641.99 659.09 657.97 675.07 675.72 692.81 693.46 710.56 711.22 728.32 728.97 746.07 746.72 763.81" style="fill:none;stroke:#000;stroke-miterlimit:10;stroke-width:2px"/><polyline points="326.06 378.66 343.81 396.41 361.55 414.15 379.31 431.91 397.06 449.66 414.81 467.4 430.78 483.38 448.53 501.13 466.27 518.88 484.02 536.62 501.78 554.38 519.53 572.13 535.5 588.1 553.25 605.85 571 623.6 588.74 641.34 606.5 659.1 624.25 676.85 640.23 692.83 657.97 710.57 675.72 728.32 693.46 746.07 711.21 763.81 728.97 781.57" style="fill:none;stroke:#000;stroke-miterlimit:10;stroke-width:2px"/><polyline points="308.31 396.41 326.06 414.15 343.81 431.9 361.56 449.66 379.31 467.4 397.06 485.15 413.04 501.13 430.78 518.88 448.53 536.62 466.27 554.37 484.03 572.13 501.78 589.87 517.76 605.85 535.5 623.6 553.25 641.34 571 659.09 588.75 676.85 606.5 694.6 622.48 710.57 640.23 728.32 657.97 746.07 675.72 763.81 693.46 781.56 711.22 799.32" style="fill:none;stroke:#000;stroke-miterlimit:10;stroke-width:2px"/><polyline points="290.55 414.15 308.31 431.91 326.06 449.66 343.81 467.4 361.55 485.15 379.3 502.9 395.28 518.88 413.02 536.62 430.78 554.38 448.53 572.13 466.27 589.87 484.02 607.62 500 623.6 517.74 641.34 535.5 659.1 553.25 676.85 571 694.6 588.74 712.34 604.72 728.32 622.47 746.07 640.21 763.81 657.97 781.57 675.72 799.32 693.46 817.06" style="fill:none;stroke:#000;stroke-miterlimit:10;stroke-width:2px"/><polyline points="272.81 431.9 290.57 449.66 308.31 467.4 326.06 485.15 343.81 502.9 361.55 520.64 377.53 536.62 395.28 554.37 413.04 572.13 430.78 589.87 448.53 607.62 466.27 625.37 482.25 641.34 500 659.09 517.76 676.85 535.5 694.6 553.25 712.34 571 730.09 586.97 746.07 604.72 763.81 622.47 781.56 640.23 799.32 657.97 817.06 675.72 834.81" style="fill:none;stroke:#000;stroke-miterlimit:10;stroke-width:2px"/><polyline points="256.83 447.88 274.59 465.64 292.34 483.38 310.08 501.13 327.83 518.88 345.58 536.62 361.55 552.6 379.3 570.35 397.06 588.1 414.81 605.85 432.55 623.6 450.3 641.34 466.27 657.32 484.02 675.07 501.78 692.83 519.53 710.57 537.27 728.32 555.02 746.07 571 762.04 588.74 779.79 606.49 797.53 624.25 815.29 641.99 833.04 659.74 850.79" style="fill:none;stroke:#000;stroke-miterlimit:10;stroke-width:2px"/><polyline points="239.08 465.62 256.84 483.38 274.59 501.13 292.34 518.88 310.08 536.62 327.83 554.37 343.81 570.35 361.55 588.09 379.31 605.85 397.06 623.6 414.81 641.34 432.55 659.09 448.53 675.07 466.27 692.81 484.03 710.57 501.78 728.32 519.53 746.07 537.27 763.81 553.25 779.79 571 797.53 588.74 815.28 606.5 833.04 624.25 850.79 641.99 868.53" style="fill:none;stroke:#000;stroke-miterlimit:10;stroke-width:2px"/><polyline points="221.34 483.38 239.08 501.13 256.83 518.88 274.59 536.63 292.34 554.38 310.08 572.13 326.06 588.1 343.81 605.85 361.55 623.6 379.3 641.34 397.06 659.1 414.81 676.85 430.78 692.83 448.53 710.57 466.27 728.32 484.02 746.07 501.78 763.82 519.53 781.57 535.5 797.55 553.25 815.29 571 833.04 588.74 850.79 606.49 868.53 624.25 886.29" style="fill:none;stroke:#000;stroke-miterlimit:10;stroke-width:2px"/><polyline points="203.59 501.13 221.34 518.88 239.08 536.62 256.84 554.38 274.59 572.13 292.34 589.87 308.31 605.85 326.06 623.6 343.81 641.34 361.55 659.09 379.31 676.85 397.06 694.6 413.04 710.57 430.78 728.32 448.53 746.07 466.27 763.81 484.03 781.57 501.78 799.32 517.76 815.29 535.5 833.04 553.25 850.79 571 868.53 588.74 886.28 606.5 904.04" style="fill:none;stroke:#000;stroke-miterlimit:10;stroke-width:2px"/><polyline points="185.83 518.88 203.59 536.63 221.34 554.38 239.08 572.13 256.83 589.87 274.58 607.62 290.55 623.6 308.3 641.34 326.06 659.1 343.81 676.85 361.55 694.6 379.3 712.34 395.28 728.32 413.02 746.07 430.78 763.82 448.53 781.57 466.27 799.32 484.02 817.06 500 833.04 517.74 850.79 535.49 868.53 553.25 886.29 571 904.04 588.74 921.78" style="fill:none;stroke:#000;stroke-miterlimit:10;stroke-width:2px"/><polyline points="168.09 536.62 185.84 554.38 203.59 572.13 221.34 589.87 239.08 607.62 256.83 625.37 272.81 641.34 290.55 659.09 308.31 676.85 326.06 694.6 343.81 712.34 361.55 730.09 377.53 746.07 395.28 763.81 413.04 781.57 430.78 799.32 448.53 817.06 466.27 834.81 482.25 850.79 500 868.53 517.74 886.28 535.5 904.04 553.25 921.78 571 939.53" style="fill:none;stroke:#000;stroke-miterlimit:10;stroke-width:2px"/><polyline points="152.11 552.6 169.87 570.36 187.62 588.1 205.36 605.85 223.11 623.6 240.85 641.34 256.83 657.32 274.58 675.07 292.34 692.83 310.08 710.57 327.83 728.32 345.58 746.07 361.55 762.04 379.3 779.79 397.06 797.55 414.81 815.29 432.55 833.04 450.3 850.79 466.27 866.76 484.02 884.51 501.77 902.26 519.53 920.02 537.27 937.76 555.02 955.51" style="fill:none;stroke:#000;stroke-miterlimit:10;stroke-width:2px"/><polyline points="134.36 570.35 152.12 588.1 169.87 605.85 187.62 623.6 205.36 641.34 223.11 659.09 239.08 675.07 256.83 692.81 274.59 710.57 292.34 728.32 310.08 746.07 327.83 763.81 343.81 779.79 361.55 797.53 379.31 815.29 397.06 833.04 414.81 850.79 432.55 868.53 448.53 884.51 466.27 902.26 484.02 920 501.78 937.76 519.53 955.51 537.27 973.25" style="fill:none;stroke:#000;stroke-miterlimit:10;stroke-width:2px"/><polyline points="116.62 588.09 134.38 605.85 152.12 623.6 169.87 641.34 187.62 659.09 205.36 676.84 221.34 692.81 239.08 710.56 256.84 728.32 274.59 746.07 292.34 763.81 310.08 781.56 326.06 797.53 343.81 815.28 361.56 833.04 379.31 850.79 397.06 868.53 414.81 886.28 430.78 902.26 448.53 920 466.27 937.75 484.03 955.51 501.78 973.25 519.53 991" style="fill:none;stroke:#000;stroke-miterlimit:10;stroke-width:2px"/><polyline points="98.87 605.85 116.62 623.6 134.36 641.34 152.12 659.1 169.87 676.85 187.62 694.6 203.59 710.57 221.34 728.32 239.08 746.07 256.83 763.81 274.59 781.57 292.34 799.32 308.31 815.29 326.06 833.04 343.81 850.79 361.55 868.53 379.31 886.29 397.06 904.04 413.04 920.02 430.78 937.76 448.53 955.51 466.27 973.25 484.02 991 501.78 1008.76" style="fill:none;stroke:#000;stroke-miterlimit:10;stroke-width:2px"/><polyline points="81.12 623.6 98.87 641.34 116.62 659.09 134.38 676.85 152.12 694.6 169.87 712.34 185.84 728.32 203.59 746.07 221.34 763.81 239.08 781.56 256.84 799.32 274.59 817.06 290.57 833.04 308.31 850.79 326.06 868.53 343.81 886.28 361.56 904.04 379.31 921.78 395.29 937.76 413.04 955.51 430.78 973.25 448.53 991 466.27 1008.75 484.03 1026.51" style="fill:none;stroke:#000;stroke-miterlimit:10;stroke-width:2px"/><polyline points="63.36 641.34 81.12 659.1 98.87 676.85 116.62 694.6 134.36 712.34 152.11 730.09 168.09 746.07 185.83 763.81 203.59 781.57 221.34 799.32 239.08 817.06 256.83 834.81 272.81 850.79 290.55 868.53 308.31 886.29 326.06 904.04 343.81 921.78 361.55 939.53 377.53 955.51 395.28 973.25 413.02 991 430.78 1008.76 448.53 1026.51 466.27 1044.25" style="fill:none;stroke:#000;stroke-miterlimit:10;stroke-width:2px"/></g><g style="clip-path:url(#b)"><polyline points="356.67 -75.85 339.36 -57.67 322.04 -39.51 304.7 -21.34 287.39 -3.18 270.07 14.98 254.48 31.34 237.16 49.5 219.84 67.68 202.52 85.84 185.19 104.01 167.87 122.17 152.28 138.52 134.96 156.69 117.64 174.87 100.32 193.03 82.99 211.19 65.67 229.36 50.08 245.71 32.76 263.88 15.45 282.04 -1.87 300.22 -19.19 318.38 -36.52 336.55" style="fill:none;stroke:#000;stroke-miterlimit:10;stroke-width:2px"/><polyline points="374.85 -58.52 357.52 -40.35 340.2 -22.19 322.88 -4.01 305.56 14.15 288.25 32.31 272.65 48.67 255.34 66.83 238 85 220.69 103.16 203.37 121.34 186.05 139.5 170.46 155.85 153.14 174.02 135.81 192.18 118.49 210.35 101.17 228.53 83.85 246.69 68.26 263.04 50.94 281.21 33.62 299.37 16.29 317.54 -1.03 335.7 -18.35 353.88" style="fill:none;stroke:#000;stroke-miterlimit:10;stroke-width:2px"/><polyline points="393.01 -41.2 375.68 -23.04 358.37 -4.87 341.05 13.3 323.73 31.47 306.41 49.63 290.82 65.99 273.5 84.15 256.17 102.31 238.85 120.48 221.53 138.66 204.21 156.82 188.62 173.17 171.3 191.34 153.97 209.5 136.65 227.67 119.33 245.84 102.02 264.01 86.42 280.36 69.11 298.52 51.79 316.69 34.45 334.85 17.14 353.02 -0.18 371.19" style="fill:none;stroke:#000;stroke-miterlimit:10;stroke-width:2px"/><polyline points="411.18 -23.88 393.86 -5.71 376.54 12.46 359.21 30.62 341.89 48.79 324.57 66.95 308.98 83.31 291.66 101.47 274.35 119.65 257.03 137.81 239.69 155.97 222.38 174.14 206.78 190.49 189.47 208.66 172.15 226.83 154.83 245 137.5 263.16 120.18 281.33 104.59 297.68 87.27 315.84 69.95 334.01 52.63 352.18 35.31 370.35 17.98 388.51" style="fill:none;stroke:#000;stroke-miterlimit:10;stroke-width:2px"/><polyline points="429.34 -6.56 412.02 11.61 394.71 29.78 377.38 47.94 360.06 66.11 342.74 84.27 327.15 100.62 309.83 118.79 292.51 136.97 275.19 155.13 257.86 173.29 240.54 191.46 224.95 207.81 207.63 225.97 190.31 244.15 172.99 262.32 155.66 280.48 138.34 298.64 122.75 315 105.43 333.16 88.11 351.33 70.8 369.5 53.48 387.67 36.15 405.83" style="fill:none;stroke:#000;stroke-miterlimit:10;stroke-width:2px"/><polyline points="447.51 10.76 430.19 28.93 412.87 47.1 395.54 65.26 378.22 83.42 360.9 101.59 345.31 117.94 327.99 136.11 310.67 154.28 293.36 172.45 276.02 190.61 258.7 208.78 243.11 225.13 225.79 243.29 208.48 261.47 191.16 279.63 173.83 297.8 156.51 315.96 140.92 332.32 123.6 350.48 106.28 368.64 88.96 386.82 71.64 404.99 54.31 423.15" style="fill:none;stroke:#000;stroke-miterlimit:10;stroke-width:2px"/><polyline points="463.86 26.35 446.54 44.52 429.22 62.69 411.89 80.85 394.57 99.02 377.25 117.18 361.66 133.53 344.35 151.7 327.03 169.88 309.71 188.04 292.38 206.2 275.06 224.37 259.47 240.72 242.15 258.88 224.83 277.06 207.51 295.23 190.18 313.39 172.86 331.56 157.27 347.91 139.95 366.07 122.63 384.24 105.31 402.41 88 420.58 70.66 438.74" style="fill:none;stroke:#000;stroke-miterlimit:10;stroke-width:2px"/><polyline points="482.02 43.67 464.71 61.84 447.39 80.01 430.06 98.17 412.74 116.34 395.42 134.5 379.83 150.85 362.51 169.02 345.19 187.19 327.87 205.36 310.54 223.52 293.22 241.69 277.63 258.04 260.31 276.2 242.99 294.38 225.68 312.55 208.34 330.71 191.03 348.87 175.43 365.23 158.12 383.39 140.8 401.56 123.48 419.73 106.16 437.9 88.83 456.06" style="fill:none;stroke:#000;stroke-miterlimit:10;stroke-width:2px"/><polyline points="500.2 61 482.87 79.16 465.55 97.33 448.23 115.5 430.92 133.67 413.6 151.83 398 168.18 380.69 186.35 363.36 204.51 346.04 222.68 328.72 240.85 311.4 259.02 295.81 275.37 278.49 293.54 261.16 311.7 243.84 329.86 226.52 348.04 209.2 366.2 193.61 382.56 176.29 400.72 158.97 418.89 141.64 437.05 124.32 455.21 107 473.39" style="fill:none;stroke:#000;stroke-miterlimit:10;stroke-width:2px"/><polyline points="518.37 78.31 501.04 96.48 483.72 114.64 466.4 132.82 449.08 150.99 431.76 169.15 416.17 185.5 398.85 203.67 381.52 221.83 364.2 240 346.88 258.17 329.56 276.34 313.97 292.69 296.65 310.85 279.32 329.02 262 347.18 244.69 365.36 227.37 383.52 211.78 399.88 194.46 418.04 177.14 436.2 159.81 454.37 142.49 472.53 125.17 490.71" style="fill:none;stroke:#000;stroke-miterlimit:10;stroke-width:2px"/><polyline points="536.53 95.63 519.21 113.81 501.89 131.97 484.56 150.14 467.24 168.3 449.93 186.47 434.33 202.82 417.01 220.99 399.7 239.16 382.38 257.33 365.05 275.49 347.73 293.65 332.14 310.01 314.82 328.17 297.5 346.35 280.18 364.51 262.85 382.68 245.53 400.84 229.94 417.19 212.62 435.36 195.3 453.52 177.98 471.7 160.66 489.86 143.33 508.03" style="fill:none;stroke:#000;stroke-miterlimit:10;stroke-width:2px"/><polyline points="554.69 112.95 537.38 131.13 520.06 149.29 502.73 167.46 485.41 185.62 468.09 203.79 452.5 220.14 435.18 238.3 417.86 256.48 400.54 274.64 383.21 292.81 365.89 310.97 350.3 327.33 332.98 345.49 315.66 363.67 298.35 381.83 281.01 400 263.69 418.16 248.1 434.51 230.78 452.68 213.47 470.84 196.15 489.02 178.83 507.18 161.5 525.35" style="fill:none;stroke:#000;stroke-miterlimit:10;stroke-width:2px"/><polyline points="571.05 128.54 553.73 146.72 536.41 164.88 519.08 183.05 501.76 201.21 484.44 219.38 468.85 235.73 451.53 253.9 434.21 272.07 416.89 290.24 399.56 308.4 382.25 326.56 366.65 342.92 349.33 361.08 332.02 379.26 314.7 397.42 297.37 415.59 280.05 433.75 264.46 450.11 247.14 468.27 229.82 486.43 212.5 504.61 195.18 522.77 177.85 540.94" style="fill:none;stroke:#000;stroke-miterlimit:10;stroke-width:2px"/><polyline points="589.21 145.86 571.89 164.04 554.58 182.2 537.24 200.37 519.92 218.53 502.61 236.7 487.01 253.05 469.7 271.21 452.38 289.39 435.06 307.56 417.73 325.72 400.41 343.88 384.82 360.24 367.5 378.4 350.18 396.58 332.86 414.74 315.53 432.91 298.21 451.07 282.62 467.42 265.3 485.59 247.98 503.75 230.66 521.93 213.35 540.09 196.01 558.26" style="fill:none;stroke:#000;stroke-miterlimit:10;stroke-width:2px"/><polyline points="607.39 163.19 590.06 181.36 572.74 199.52 555.42 217.7 538.1 235.86 520.78 254.03 505.19 270.38 487.87 288.55 470.54 306.71 453.22 324.87 435.9 343.05 418.59 361.21 403 377.57 385.68 395.73 368.35 413.9 351.03 432.06 333.71 450.24 316.39 468.4 300.8 484.75 283.48 502.92 266.16 521.08 248.83 539.25 231.51 557.41 214.19 575.59" style="fill:none;stroke:#000;stroke-miterlimit:10;stroke-width:2px"/><polyline points="625.55 180.51 608.22 198.68 590.9 216.84 573.59 235.02 556.27 253.18 538.95 271.35 523.36 287.7 506.04 305.86 488.71 324.03 471.39 342.19 454.07 360.37 436.75 378.53 421.16 394.89 403.84 413.05 386.51 431.21 369.19 449.38 351.87 467.56 334.55 485.72 318.96 502.07 301.64 520.24 284.32 538.4 266.99 556.57 249.68 574.73 232.36 592.91" style="fill:none;stroke:#000;stroke-miterlimit:10;stroke-width:2px"/><polyline points="643.72 197.83 626.4 216.01 609.08 234.17 591.75 252.34 574.43 270.5 557.11 288.67 541.52 305.02 524.2 323.18 506.88 341.36 489.56 359.52 472.23 377.69 454.92 395.85 439.32 412.2 422 430.37 404.69 448.55 387.37 466.71 370.04 484.88 352.72 503.04 337.13 519.39 319.81 537.56 302.49 555.72 285.17 573.9 267.85 592.06 250.52 610.23" style="fill:none;stroke:#000;stroke-miterlimit:10;stroke-width:2px"/><polyline points="661.88 215.15 644.56 233.33 627.24 251.49 609.91 269.65 592.6 287.82 575.28 305.98 559.68 322.34 542.37 340.5 525.05 358.68 507.73 376.84 490.4 395.01 473.08 413.17 457.49 429.52 440.17 447.69 422.85 465.87 405.53 484.03 388.2 502.19 370.88 520.36 355.29 536.71 337.97 554.88 320.65 573.04 303.33 591.22 286.02 609.38 268.69 627.54" style="fill:none;stroke:#000;stroke-miterlimit:10;stroke-width:2px"/><polyline points="678.23 230.74 660.92 248.92 643.6 267.08 626.27 285.25 608.95 303.41 591.63 321.57 576.04 337.93 558.72 356.09 541.4 374.27 524.08 392.43 506.75 410.6 489.43 428.76 473.84 445.12 456.52 463.28 439.2 481.46 421.88 499.62 404.55 517.78 387.24 535.95 371.64 552.3 354.32 570.47 337.01 588.63 319.69 606.81 302.37 624.97 285.04 643.14" style="fill:none;stroke:#000;stroke-miterlimit:10;stroke-width:2px"/><polyline points="696.4 248.06 679.08 266.24 661.76 284.4 644.43 302.57 627.11 320.73 609.79 338.89 594.2 355.25 576.88 373.41 559.57 391.59 542.25 409.75 524.91 427.92 507.6 446.08 492 462.43 474.69 480.6 457.37 498.77 440.05 516.94 422.72 535.1 405.4 553.27 389.81 569.62 372.49 587.78 355.17 605.95 337.85 624.13 320.53 642.29 303.2 660.46" style="fill:none;stroke:#000;stroke-miterlimit:10;stroke-width:2px"/><polyline points="714.56 265.38 697.24 283.56 679.93 301.72 662.6 319.88 645.28 338.05 627.96 356.21 612.37 372.57 595.05 390.73 577.73 408.91 560.41 427.07 543.08 445.24 525.76 463.4 510.17 479.75 492.85 497.92 475.53 516.09 458.21 534.26 440.88 552.42 423.56 570.59 407.97 586.94 390.65 605.1 373.33 623.27 356.02 641.45 338.7 659.61 321.37 677.77" style="fill:none;stroke:#000;stroke-miterlimit:10;stroke-width:2px"/><polyline points="732.74 282.71 715.41 300.87 698.09 319.04 680.77 337.21 663.45 355.38 646.13 373.54 630.54 389.9 613.22 408.06 595.89 426.23 578.57 444.39 561.26 462.57 543.94 480.73 528.35 497.08 511.03 515.25 493.7 533.41 476.38 551.58 459.06 569.75 441.74 587.92 426.15 604.27 408.83 622.43 391.51 640.6 374.18 658.76 356.86 676.93 339.54 695.1" style="fill:none;stroke:#000;stroke-miterlimit:10;stroke-width:2px"/><polyline points="750.9 300.03 733.57 318.19 716.25 336.36 698.94 354.53 681.62 372.7 664.3 390.86 648.71 407.21 631.39 425.38 614.06 443.54 596.74 461.71 579.42 479.88 562.1 498.05 546.51 514.4 529.19 532.57 511.86 550.73 494.54 568.89 477.22 587.07 459.9 605.24 444.31 621.59 426.99 639.75 409.68 657.92 392.34 676.08 375.03 694.25 357.71 712.42" style="fill:none;stroke:#000;stroke-miterlimit:10;stroke-width:2px"/><polyline points="769.07 317.35 751.75 335.52 734.43 353.69 717.1 371.85 699.78 390.02 682.46 408.18 666.87 424.53 649.55 442.7 632.23 460.88 614.92 479.04 597.58 497.2 580.27 515.37 564.67 531.72 547.36 549.88 530.04 568.06 512.72 586.23 495.39 604.39 478.07 622.55 462.48 638.91 445.16 657.07 427.84 675.24 410.52 693.41 393.2 711.58 375.87 729.74" style="fill:none;stroke:#000;stroke-miterlimit:10;stroke-width:2px"/><polyline points="356.67 -75.85 374.85 -58.52 393.01 -41.2 411.18 -23.88 429.34 -6.56 447.51 10.76 463.86 26.35 482.02 43.67 500.2 61 518.37 78.31 536.53 95.63 554.69 112.95 571.05 128.54 589.21 145.86 607.39 163.19 625.55 180.51 643.72 197.83 661.88 215.15 678.23 230.74 696.4 248.06 714.56 265.38 732.74 282.71 750.9 300.03 769.07 317.35" style="fill:none;stroke:#000;stroke-miterlimit:10;stroke-width:2px"/><polyline points="339.36 -57.67 357.52 -40.35 375.68 -23.04 393.86 -5.71 412.02 11.61 430.19 28.93 446.54 44.52 464.71 61.84 482.87 79.16 501.04 96.48 519.21 113.81 537.38 131.13 553.73 146.72 571.89 164.04 590.06 181.36 608.22 198.68 626.4 216.01 644.56 233.33 660.92 248.92 679.08 266.24 697.24 283.56 715.41 300.87 733.57 318.19 751.75 335.52" style="fill:none;stroke:#000;stroke-miterlimit:10;stroke-width:2px"/><polyline points="322.04 -39.51 340.2 -22.19 358.37 -4.87 376.54 12.46 394.71 29.78 412.87 47.1 429.22 62.69 447.39 80.01 465.55 97.33 483.72 114.64 501.89 131.97 520.06 149.29 536.41 164.88 554.58 182.2 572.74 199.52 590.9 216.84 609.08 234.17 627.24 251.49 643.6 267.08 661.76 284.4 679.93 301.72 698.09 319.04 716.25 336.36 734.43 353.69" style="fill:none;stroke:#000;stroke-miterlimit:10;stroke-width:2px"/><polyline points="304.7 -21.34 322.88 -4.01 341.05 13.3 359.21 30.62 377.38 47.94 395.54 65.26 411.89 80.85 430.06 98.17 448.23 115.5 466.4 132.82 484.56 150.14 502.73 167.46 519.08 183.05 537.24 200.37 555.42 217.7 573.59 235.02 591.75 252.34 609.91 269.65 626.27 285.25 644.43 302.57 662.6 319.88 680.77 337.21 698.94 354.53 717.1 371.85" style="fill:none;stroke:#000;stroke-miterlimit:10;stroke-width:2px"/><polyline points="287.39 -3.18 305.56 14.15 323.73 31.47 341.89 48.79 360.06 66.11 378.22 83.42 394.57 99.02 412.74 116.34 430.92 133.67 449.08 150.99 467.24 168.3 485.41 185.62 501.76 201.21 519.92 218.53 538.1 235.86 556.27 253.18 574.43 270.5 592.6 287.82 608.95 303.41 627.11 320.73 645.28 338.05 663.45 355.38 681.62 372.7 699.78 390.02" style="fill:none;stroke:#000;stroke-miterlimit:10;stroke-width:2px"/><polyline points="270.07 14.98 288.25 32.31 306.41 49.63 324.57 66.95 342.74 84.27 360.9 101.59 377.25 117.18 395.42 134.5 413.6 151.83 431.76 169.15 449.93 186.47 468.09 203.79 484.44 219.38 502.61 236.7 520.78 254.03 538.95 271.35 557.11 288.67 575.28 305.98 591.63 321.57 609.79 338.89 627.96 356.21 646.13 373.54 664.3 390.86 682.46 408.18" style="fill:none;stroke:#000;stroke-miterlimit:10;stroke-width:2px"/><polyline points="254.48 31.34 272.65 48.67 290.82 65.99 308.98 83.31 327.15 100.62 345.31 117.94 361.66 133.53 379.83 150.85 398 168.18 416.17 185.5 434.33 202.82 452.5 220.14 468.85 235.73 487.01 253.05 505.19 270.38 523.36 287.7 541.52 305.02 559.68 322.34 576.04 337.93 594.2 355.25 612.37 372.57 630.54 389.9 648.71 407.21 666.87 424.53" style="fill:none;stroke:#000;stroke-miterlimit:10;stroke-width:2px"/><polyline points="237.16 49.5 255.34 66.83 273.5 84.15 291.66 101.47 309.83 118.79 327.99 136.11 344.35 151.7 362.51 169.02 380.69 186.35 398.85 203.67 417.01 220.99 435.18 238.3 451.53 253.9 469.7 271.21 487.87 288.55 506.04 305.86 524.2 323.18 542.37 340.5 558.72 356.09 576.88 373.41 595.05 390.73 613.22 408.06 631.39 425.38 649.55 442.7" style="fill:none;stroke:#000;stroke-miterlimit:10;stroke-width:2px"/><polyline points="219.84 67.68 238 85 256.17 102.31 274.35 119.65 292.51 136.97 310.67 154.28 327.03 169.88 345.19 187.19 363.36 204.51 381.52 221.83 399.7 239.16 417.86 256.48 434.21 272.07 452.38 289.39 470.54 306.71 488.71 324.03 506.88 341.36 525.05 358.68 541.4 374.27 559.57 391.59 577.73 408.91 595.89 426.23 614.06 443.54 632.23 460.88" style="fill:none;stroke:#000;stroke-miterlimit:10;stroke-width:2px"/><polyline points="202.52 85.84 220.69 103.16 238.85 120.48 257.03 137.81 275.19 155.13 293.36 172.45 309.71 188.04 327.87 205.36 346.04 222.68 364.2 240 382.38 257.33 400.54 274.64 416.89 290.24 435.06 307.56 453.22 324.87 471.39 342.19 489.56 359.52 507.73 376.84 524.08 392.43 542.25 409.75 560.41 427.07 578.57 444.39 596.74 461.71 614.92 479.04" style="fill:none;stroke:#000;stroke-miterlimit:10;stroke-width:2px"/><polyline points="185.19 104.01 203.37 121.34 221.53 138.66 239.69 155.97 257.86 173.29 276.02 190.61 292.38 206.2 310.54 223.52 328.72 240.85 346.88 258.17 365.05 275.49 383.21 292.81 399.56 308.4 417.73 325.72 435.9 343.05 454.07 360.37 472.23 377.69 490.4 395.01 506.75 410.6 524.91 427.92 543.08 445.24 561.26 462.57 579.42 479.88 597.58 497.2" style="fill:none;stroke:#000;stroke-miterlimit:10;stroke-width:2px"/><polyline points="167.87 122.17 186.05 139.5 204.21 156.82 222.38 174.14 240.54 191.46 258.7 208.78 275.06 224.37 293.22 241.69 311.4 259.02 329.56 276.34 347.73 293.65 365.89 310.97 382.25 326.56 400.41 343.88 418.59 361.21 436.75 378.53 454.92 395.85 473.08 413.17 489.43 428.76 507.6 446.08 525.76 463.4 543.94 480.73 562.1 498.05 580.27 515.37" style="fill:none;stroke:#000;stroke-miterlimit:10;stroke-width:2px"/><polyline points="152.28 138.52 170.46 155.85 188.62 173.17 206.78 190.49 224.95 207.81 243.11 225.13 259.47 240.72 277.63 258.04 295.81 275.37 313.97 292.69 332.14 310.01 350.3 327.33 366.65 342.92 384.82 360.24 403 377.57 421.16 394.89 439.32 412.2 457.49 429.52 473.84 445.12 492 462.43 510.17 479.75 528.35 497.08 546.51 514.4 564.67 531.72" style="fill:none;stroke:#000;stroke-miterlimit:10;stroke-width:2px"/><polyline points="134.96 156.69 153.14 174.02 171.3 191.34 189.47 208.66 207.63 225.97 225.79 243.29 242.15 258.88 260.31 276.2 278.49 293.54 296.65 310.85 314.82 328.17 332.98 345.49 349.33 361.08 367.5 378.4 385.68 395.73 403.84 413.05 422 430.37 440.17 447.69 456.52 463.28 474.69 480.6 492.85 497.92 511.03 515.25 529.19 532.57 547.36 549.88" style="fill:none;stroke:#000;stroke-miterlimit:10;stroke-width:2px"/><polyline points="117.64 174.87 135.81 192.18 153.97 209.5 172.15 226.83 190.31 244.15 208.48 261.47 224.83 277.06 242.99 294.38 261.16 311.7 279.32 329.02 297.5 346.35 315.66 363.67 332.02 379.26 350.18 396.58 368.35 413.9 386.51 431.21 404.69 448.55 422.85 465.87 439.2 481.46 457.37 498.77 475.53 516.09 493.7 533.41 511.86 550.73 530.04 568.06" style="fill:none;stroke:#000;stroke-miterlimit:10;stroke-width:2px"/><polyline points="100.32 193.03 118.49 210.35 136.65 227.67 154.83 245 172.99 262.32 191.16 279.63 207.51 295.23 225.68 312.55 243.84 329.86 262 347.18 280.18 364.51 298.35 381.83 314.7 397.42 332.86 414.74 351.03 432.06 369.19 449.38 387.37 466.71 405.53 484.03 421.88 499.62 440.05 516.94 458.21 534.26 476.38 551.58 494.54 568.89 512.72 586.23" style="fill:none;stroke:#000;stroke-miterlimit:10;stroke-width:2px"/><polyline points="82.99 211.19 101.17 228.53 119.33 245.84 137.5 263.16 155.66 280.48 173.83 297.8 190.18 313.39 208.34 330.71 226.52 348.04 244.69 365.36 262.85 382.68 281.01 400 297.37 415.59 315.53 432.91 333.71 450.24 351.87 467.56 370.04 484.88 388.2 502.19 404.55 517.78 422.72 535.1 440.88 552.42 459.06 569.75 477.22 587.07 495.39 604.39" style="fill:none;stroke:#000;stroke-miterlimit:10;stroke-width:2px"/><polyline points="65.67 229.36 83.85 246.69 102.02 264.01 120.18 281.33 138.34 298.64 156.51 315.96 172.86 331.56 191.03 348.87 209.2 366.2 227.37 383.52 245.53 400.84 263.69 418.16 280.05 433.75 298.21 451.07 316.39 468.4 334.55 485.72 352.72 503.04 370.88 520.36 387.24 535.95 405.4 553.27 423.56 570.59 441.74 587.92 459.9 605.24 478.07 622.55" style="fill:none;stroke:#000;stroke-miterlimit:10;stroke-width:2px"/><polyline points="50.08 245.71 68.26 263.04 86.42 280.36 104.59 297.68 122.75 315 140.92 332.32 157.27 347.91 175.43 365.23 193.61 382.56 211.78 399.88 229.94 417.19 248.1 434.51 264.46 450.11 282.62 467.42 300.8 484.75 318.96 502.07 337.13 519.39 355.29 536.71 371.64 552.3 389.81 569.62 407.97 586.94 426.15 604.27 444.31 621.59 462.48 638.91" style="fill:none;stroke:#000;stroke-miterlimit:10;stroke-width:2px"/><polyline points="32.76 263.88 50.94 281.21 69.11 298.52 87.27 315.84 105.43 333.16 123.6 350.48 139.95 366.07 158.12 383.39 176.29 400.72 194.46 418.04 212.62 435.36 230.78 452.68 247.14 468.27 265.3 485.59 283.48 502.92 301.64 520.24 319.81 537.56 337.97 554.88 354.32 570.47 372.49 587.78 390.65 605.1 408.83 622.43 426.99 639.75 445.16 657.07" style="fill:none;stroke:#000;stroke-miterlimit:10;stroke-width:2px"/><polyline points="15.45 282.04 33.62 299.37 51.79 316.69 69.95 334.01 88.11 351.33 106.28 368.64 122.63 384.24 140.8 401.56 158.97 418.89 177.14 436.2 195.3 453.52 213.47 470.84 229.82 486.43 247.98 503.75 266.16 521.08 284.32 538.4 302.49 555.72 320.65 573.04 337.01 588.63 355.17 605.95 373.33 623.27 391.51 640.6 409.68 657.92 427.84 675.24" style="fill:none;stroke:#000;stroke-miterlimit:10;stroke-width:2px"/><polyline points="-1.87 300.22 16.29 317.54 34.45 334.85 52.63 352.18 70.8 369.5 88.96 386.82 105.31 402.41 123.48 419.73 141.64 437.05 159.81 454.37 177.98 471.7 196.15 489.02 212.5 504.61 230.66 521.93 248.83 539.25 266.99 556.57 285.17 573.9 303.33 591.22 319.69 606.81 337.85 624.13 356.02 641.45 374.18 658.76 392.34 676.08 410.52 693.41" style="fill:none;stroke:#000;stroke-miterlimit:10;stroke-width:2px"/><polyline points="-19.19 318.38 -1.03 335.7 17.14 353.02 35.31 370.35 53.48 387.67 71.64 404.99 88 420.58 106.16 437.9 124.32 455.21 142.49 472.53 160.66 489.86 178.83 507.18 195.18 522.77 213.35 540.09 231.51 557.41 249.68 574.73 267.85 592.06 286.02 609.38 302.37 624.97 320.53 642.29 338.7 659.61 356.86 676.93 375.03 694.25 393.2 711.58" style="fill:none;stroke:#000;stroke-miterlimit:10;stroke-width:2px"/><polyline points="-36.52 336.55 -18.35 353.88 -0.18 371.19 17.98 388.51 36.15 405.83 54.31 423.15 70.66 438.74 88.83 456.06 107 473.39 125.17 490.71 143.33 508.03 161.5 525.35 177.85 540.94 196.01 558.26 214.19 575.59 232.36 592.91 250.52 610.23 268.69 627.54 285.04 643.14 303.2 660.46 321.37 677.77 339.54 695.1 357.71 712.42 375.87 729.74" style="fill:none;stroke:#000;stroke-miterlimit:10;stroke-width:2px"/></g><polygon points="1346.04 425.54 1472.7 413.74 1461.62 478 1590.5 478 1582.16 525.48 1323.06 556.97 1346.04 425.54" style="fill:#e6e6e6"/><polygon points="1589.31 479 1581.3 524.58 1324.28 555.81 1346.89 426.46 1471.49 414.86 1460.43 479 1589.31 479" style="fill:#e6e6e6"/><polygon points="970.07 460.52 1095.7 448.83 1095.28 451.26 1096.75 448.68 1097.33 448.68 1218.58 437.39 1184.59 490.52 1200.72 571.83 945.18 602.89 970.07 460.52" style="fill:#e6e6e6"/><polygon points="1183.53 490.32 1199.53 570.97 946.4 601.73 970.92 461.45 1094.49 449.95 1093.31 456.73 1097.33 449.68 1097.34 449.68 1216.63 438.58 1183.53 490.32" style="fill:#e6e6e6"/><polygon points="341.61 519.01 549.67 499.65 554.66 552.7 564.13 498.31 691.45 486.45 665.15 636.9 476.04 659.89 463.82 522.22 439.12 664.37 313.52 679.63 341.61 519.01" style="fill:#e6e6e6"/><polygon points="690.24 487.57 664.29 636 476.94 658.77 464.14 514.53 438.26 663.47 314.74 678.47 342.46 519.94 548.77 500.74 554.36 560.23 564.98 499.23 690.24 487.57" style="fill:#e6e6e6"/><path d="M607.86,252.87,565,499.23l125.26-11.66,41-234.7ZM476.94,658.77,491.87,827h139l33.39-191Zm48.52-405.9H389.16l-46.7,267.07,206.31-19.2ZM314.74,678.47l-26,148.5H409.85l28.41-163.5Z" style="fill:#fff"/><path d="M807.82,252.87,768.05,480.33l125.21-11.65,37.58-215.81ZM742.5,626.5,707.45,827H830.86L868.44,611.2Z" style="fill:#fff"/><path d="M1209.7,252.87,1097.34,449.68l119.29-11.1,118.82-185.71ZM1199.53,571,946.4,601.73,907,827h121.46l29.68-170.28,34-49.21L1124.56,827h125.75Zm-192.14-318.1L970.92,461.45,1094.49,450l34.36-197.08Z" style="fill:#fff"/><path d="M1377.24,252.87l-30.35,173.59,124.6-11.6,10.42-60.45h143.72l17.57-101.54Zm65.22,328.45h128.88l10-56.74-257,31.23L1276.87,827h281.58l18-102.32h-159Z" style="fill:#fff"/><path d="M635.59,315.45c-.25-.15-5.18-3.24-17.08-1.64-15.66,2.11-43.39,12.36-88.35,48.14q-4.56,3.65-9.39,7.64c-33.94,28.22-76.93,70.18-130.87,132.33l-2.38,2.76c-.64.74-1.28,1.47-1.9,2.2-1.11,1.28-2.2,2.56-3.29,3.83q-3,3.52-6,7c-94,111-141.17,196.75-164.8,254q-3.13,7.54-5.7,14.43-6.54-6.51-12.68-13.39c1.44-3.79,3.2-8.25,5.31-13.34C217,714.82,262.51,622,356.37,511.24c2.4-2.84,4.84-5.68,7.3-8.55,2.14-2.46,4.29-4.94,6.46-7.41,1.47-1.68,2.94-3.35,4.43-5A1389.63,1389.63,0,0,1,508,359.14l2-1.75q3.74-3.19,7.5-6.25c27.07-22,54.59-37.49,82.16-47.67q7-2.61,14.07-4.74Q625,306.62,635.59,315.45Z"/><path d="M703.5,726.29q-3.71,6.08-7.69,12a352,352,0,0,0,1.36-50.69c-3-67.52-26.24-155.41-103.6-245.21q-3.17-3.67-6.32-7.25-4.59-5.21-9.16-10.18a623.29,623.29,0,0,0-57.32-55.35q-6.43-5.43-12.78-10.45a435.5,435.5,0,0,0-60.36-40.38q-5.43-3-10.75-5.67c-57.76-29.27-105-33.59-135.2-31.81-22.38,1.32-35.37,6-36.28,6.33q9.59-5.85,19.61-11,14.49-1.24,29.25-1.27c43.59,0,88.69,8.64,133.32,30.24q5.18,2.51,10.36,5.26a345.08,345.08,0,0,1,59.58,40.32q6.47,5.4,12.64,10.81a651.81,651.81,0,0,1,57,56.07q4.49,5,8.77,10c80.63,94.37,103.87,183.68,108.17,245.88h0A317.46,317.46,0,0,1,703.5,726.29Z"/><path d="M735.17,463.63h0a146.39,146.39,0,0,0-30.58-33.25c-16.6-13.09-39.18-24.12-65.69-19.87a98.47,98.47,0,0,0-43,17.56,102.59,102.59,0,0,0-8.65,7.06c-19.18,17.51-33.54,43.78-43.39,78.74q-2.55,9-4.69,18.83-.27,1.23-.54,2.49-2.42,11.46-4.32,24c0,.37-.11.74-.16,1.12l-.06.36c-1.81,12.22-3.23,23-4.39,32.78-.42,3.45-.8,6.76-1.16,10-6.17,55.27-5.34,78.52-32,161.9-14.17,44.38-30.91,76.29-45.28,98.17-3.91,6-7.65,11.18-11.12,15.71-3,.08-6.05.13-9.1.13-2.64,0-5.28,0-7.91-.1,3.43-4.1,7.26-9,11.35-14.72,26.73-37.49,64.68-111.24,76.23-237.27q1.54-17,3.47-32.17.6-4.87,1.25-9.55c1.46-10.68,3.06-20.68,4.76-30.07a.1.1,0,0,0,0-.07q1.66-9.08,3.46-17.37c.23-1.1.48-2.18.71-3.25q1.29-5.75,2.64-11.15c13.71-54.87,32.22-82.51,51.05-98.61a104.66,104.66,0,0,1,9-6.92c13-8.85,25.76-13.42,36.89-18.85,22.55-11,48.79-1.93,74,14.76a264.4,264.4,0,0,1,26,19.8A316.77,316.77,0,0,1,735.17,463.63Z"/><path d="M476,293a149.29,149.29,0,0,1-18.09,17.86q-4.8,4-10.31,7.94C421.4,337.5,381.89,355.68,312.75,381l-9.14,3.33q-16.75,6.06-35.76,12.7-7.07,2.46-13.78,5.2h0q-8,3.22-15.59,6.81a286.23,286.23,0,0,0-107.06,87.23h0a285.74,285.74,0,0,0-17,25.32c.64-5.26,1.4-10.5,2.29-15.68a253.31,253.31,0,0,1,20.46-31.52h0C164,439.22,200,412,245.9,394.22c2.88-1.12,5.61-2.18,8.19-3.16,12.52-4.8,21.47-8.1,28.51-10.63h0l5.91-2.11h0c6.62-2.33,11.52-4,16.9-6h0c14.65-5.35,32.83-12.89,98.34-41.85a245.46,245.46,0,0,0,33.08-17.4c4-2.54,7.52-5,10.7-7.53,23.69-18.42,26.59-34.76,23.91-46.15a33.34,33.34,0,0,0-9.68-16.68q8.08.77,16,1.94c3.65,3.18,8.35,8.59,9.88,16.15C489.39,269,487.3,279.76,476,293Z"/><path d="M622.51,641.64c-14.67.35-36.62-6.59-67.88-23.66q-13.78-7.53-26.09-14.62-7.41-4.26-14.34-8.35c-59.57-35.14-94.74-61.31-137.85-77.28-6.44-2.39-13.07-4.55-20-6.49-17.44-4.86-36.68-8.25-59.49-10.1-32.5-2.64-58.38-8.24-72.67-18.52-11.45-8.23-15.45-19.46-9.47-34.59,3.89-9.83,12.71-24.71,23.73-39a200,200,0,0,1,15.62-18c17.65-17.91,37.36-29.55,51.36-18.72h0a29.23,29.23,0,0,1,7.29,8.68,67.59,67.59,0,0,1,6.79,18.15c8.33,34.72,9.85,40.16,22.59,56.38l.78,1s10.71,16.16,31.65,33.72c4.61,3.88,9.73,7.82,15.34,11.67A179.19,179.19,0,0,0,472.49,533a100.06,100.06,0,0,0,27.3-.63A98.53,98.53,0,0,0,527,523.55a151.49,151.49,0,0,0,16.82-9.69c29-19,44.85-38.65,71,7.81C646,577.08,665.42,640.61,622.51,641.64Z"/><path d="M618.36,626.47v5a25.31,25.31,0,0,1-1.29,4.42c-4.72-1.47-10.39-3.63-13.58-4.42-5.67-1.42-9.92-3.54-14.17-5s-22.65-9.2-26.19-11.33-8.5-6.37-17.71-12-9.91-7.09-17.7-10.63-22-13.45-28.32-17.7-12.75-6.37-22-11.33-19.82-11.33-26.2-14.87-21.95-12-28.32-15.58-12.74-6.37-37.53-20.53-13.45-7.08-24.78-10.62-20.54-4.25-35.41-6.38-27.61-4.24-37.53-5-34-6.38-51-11.33c-4.77-1.4-8-2.95-10.22-4.69-5.58-4.41-4.06-9.93-2.53-16.56,2.13-9.2,8.5-29.74,13.46-35.4s13.45-17,21.24-25.49,17-13.46,24.78-17,11.25-1.84,17.71,0c4.95,1.42.71,5.67,2.83,12.75s1.42,11.33,3.54,14.16c1.64,2.18,2.85,8.14,4.94,14a47.68,47.68,0,0,0,2.14,5.13c3.54,7.08,7.08,13.45,11.33,24.08s7.08,12,8.5,14.16,17.7,19.12,27.61,25.49,12,8.5,20.54,14.87,14.16,8.5,19.12,12.75,26.2,10.62,33.28,12.74,22.66,5.67,34,6.37l2.09.12h0c8.71,2.32,17.93,4.13,25.52,4.13,21.25,0,29.74-4.25,42.49-5.66s12.75-1.42,14.87-2.83-2.83-5,5.66-2.13,9.92,5.67,13.46,4.25a24.76,24.76,0,0,0,7.79-5.66,11.42,11.42,0,0,1,11.33-3.55c6.37,1.42,12,5,12.74,6.38S607,547.17,607,550s-1.42,8.5-1.42,10.62-.71,5.66-.71,7.79v5c0,1.41,2.13,2.12,2.13,3.54s4.25,3.54,4.25,3.54h1.41s2.13,2.83,2.83,8.49,0,15.58,0,17.71-2.12,1.41,0,8.49S618.36,623.64,618.36,626.47Z"/><path d="M630.39,633.55c-2.12,4.25-3.54,2.13-5.66,3.54a2.51,2.51,0,0,1-1.48.22c2.44-16.22,1.77-37.09-7-61.11,0,0-8.49-1.42-9.2-3.54s4.25-12.75,4.25-12.75,0-29.74-8.5-38.24c0,0-4.25-5.66-17.7-3.54s-13.46,10.63-17,9.92c-2.14-.43-4.28-2.68-7.69-4.39,9.12-5.12,21.48-13.83,31.77-16.86,12-3.54,4.25,1.42,6.37.71s12,20.54,15.58,32.57,7.79,22,13.45,37.53,2.13,14.17,5,30.45S632.52,629.31,630.39,633.55Z"/><path d="M618.36,626.47v5a25.31,25.31,0,0,1-1.29,4.42c-4.72-1.47-10.39-3.63-13.58-4.42-5.67-1.42-9.92-3.54-14.17-5s-22.65-9.2-26.19-11.33-8.5-6.37-17.71-12-9.91-7.09-17.7-10.63-22-13.45-28.32-17.7-12.75-6.37-22-11.33-19.82-11.33-26.2-14.87-21.95-12-28.32-15.58-12.74-6.37-37.53-20.53-13.45-7.08-24.78-10.62-20.54-4.25-35.41-6.38-27.61-4.24-37.53-5-34-6.38-51-11.33a37.38,37.38,0,0,1-7.89-3.14,46.28,46.28,0,0,1,2.93-9.61c2.13-4.25,7.79-11.33,8.5-13.45s-3.54-2.13,5.67-8.5,16.28-8.5,17-9.2,1.42-2.84,2.83-4.25,0-5.67,0-8.5-1.41-4.25.71-6.37,7.08-5.67,11.33-9.21,9.91-7.79,9.91-7.79,9.21.71,16.29,19.12,12.75,21.24,14.16,23.37A55.6,55.6,0,0,1,323.79,453c.52,1.58,4.29,5.32,9.17,9.57a17.79,17.79,0,0,1,1.45,1.76c1.41,2.12,17.7,19.12,27.61,25.49s12,8.5,20.54,14.87,14.16,8.5,19.12,12.75,26.2,10.62,33.28,12.74,22.66,5.67,34,6.37l2.09.12h0c8.71,2.32,17.93,4.13,25.52,4.13,21.25,0,29.74-4.25,42.49-5.66s12.75-1.42,14.87-2.83-2.83-5,5.66-2.13,9.92,5.67,13.46,4.25a24.76,24.76,0,0,0,7.79-5.66,11.42,11.42,0,0,1,11.33-3.55c6.37,1.42,12,5,12.74,6.38S607,547.17,607,550s-1.42,8.5-1.42,10.62-.71,5.66-.71,7.79v5c0,1.41,2.13,2.12,2.13,3.54s4.25,3.54,4.25,3.54h1.41s2.13,2.83,2.83,8.49,0,15.58,0,17.71-2.12,1.41,0,8.49S618.36,623.64,618.36,626.47Z" style="fill:#eb292c"/><path d="M333,462.56c-4.88-4.25-8.65-8-9.17-9.57a55.6,55.6,0,0,0-5.67-11.33c-1.41-2.13-7.08-5-14.16-23.37s-16.29-19.12-16.29-19.12-5.66,4.25-9.91,7.79-9.21,7.08-11.33,9.21-.71,3.54-.71,6.37,1.42,7.08,0,8.5-2.12,3.54-2.83,4.25-7.79,2.83-17,9.2-5,6.37-5.67,8.5-6.37,9.2-8.5,13.45a46.28,46.28,0,0,0-2.93,9.61,18.47,18.47,0,0,1-2.33-1.55c10.81-34.52,29.82-41.57,32.17-42.75,2.83-1.42-2.12-7.79,0-12.75s27.62-26.2,27.62-26.2c4.95-1.42,13.45,9.2,14.87,12A44.34,44.34,0,0,0,312.44,421a47.68,47.68,0,0,0,2.14,5.13c3.54,7.08,7.08,13.45,11.33,24.08C329,457.92,331.36,460.76,333,462.56Z"/><path d="M623.25,637.31a14.79,14.79,0,0,1-1.86-.29c-.14,0-.3-.06-.46-.1l-.08,0-.57-.14-.14,0-1.07-.29c-.34-.1-.71-.2-1.08-.32l-.79-.23-.13,0a25.31,25.31,0,0,0,1.29-4.42v-5c0-2.83-.71-4.25-2.84-11.33s0-6.37,0-8.49.71-12,0-17.71-2.83-8.49-2.83-8.49h-1.41s-4.25-2.13-4.25-3.54-2.13-2.13-2.13-3.54v-5c0-2.13.71-5.67.71-7.79S607,552.83,607,550s-1.42-17-2.13-18.41-6.37-5-12.74-6.38a11.42,11.42,0,0,0-11.33,3.55,24.76,24.76,0,0,1-7.79,5.66c-3.54,1.42-5-1.42-13.46-4.25s-3.54.71-5.66,2.13-2.12,1.41-14.87,2.83-21.24,5.66-42.49,5.66c-7.59,0-16.81-1.81-25.52-4.13l1.88.08h.2l.93,0,1.4,0,.95,0h1.12c6.07,0,10.6-.31,17.63-.31,9.91,0,22-1.41,33.28-2.12s18.41-4.25,27.61-8.5c1.34-.61,2.8-1.38,4.35-2.26,3.41,1.71,5.55,4,7.69,4.39,3.54.71,3.54-7.79,17-9.92s17.7,3.54,17.7,3.54c8.5,8.5,8.5,38.24,8.5,38.24s-5,10.62-4.25,12.75,9.2,3.54,9.2,3.54C625,600.22,625.69,621.09,623.25,637.31Z"/><path d="M604.9,568.41s-18.41-.71-28.32-2.83-14.16-.71-16.29-1.42-34-5.66-41.07-9.21c0,0,27.62,9.92,32.58,11.33s5,1.42,11.33,3.55,14.87,5.66,19.11,6.37a72.67,72.67,0,0,0,12,.71,35.9,35.9,0,0,1,9.21,1.41c2.83.71,7.08,2.83,9.2,2.13s1.42-1.42,0-2.13-5.66-2.83-6.37-4.25-.71-4.24-.71-5A.7.7,0,0,0,604.9,568.41Z"/><path d="M265.4,417.76s2.45,16.11,3.86,18.23.71,1.42,3.54,3.54a36.59,36.59,0,0,1,5,4.25c1.42,1.42,1.42.71,3.54,2.84a53.77,53.77,0,0,0,6.37,4.95s-1.41,0-4.95-2.12-6.38-2.83-9.92-5-4.25-2.83-5.66-3.54-2.13-2.83-5-3.54-7.08.71-7.08.71,2.12-2.83,2.83-3.54,4.25-2.13,4.25-2.83.71.7.71-3.55v-5.66a7.06,7.06,0,0,0-.71-2.12Z"/><ellipse cx="432.91" cy="334.21" rx="80.37" ry="22.31" transform="translate(-109.28 405.88) rotate(-45.2)"/><ellipse cx="577.92" cy="411.73" rx="80.37" ry="22.31" transform="translate(-112.19 576.82) rotate(-48.92)"/><ellipse cx="466.48" cy="322.82" rx="10.59" ry="18.41" transform="translate(-91.28 426.34) rotate(-45.2)" style="fill:#eb292c"/><ellipse cx="615.87" cy="396.69" rx="10.59" ry="18.41" transform="translate(-87.84 600.26) rotate(-48.92)" style="fill:#eb292c"/><ellipse cx="500.1" cy="825.8" rx="16.64" ry="8.5" transform="matrix(0.26, -0.96, 0.96, 0.26, -428.52, 1089.84)"/><ellipse cx="527.72" cy="801.73" rx="10.29" ry="5.25" transform="translate(-384.98 1098.76) rotate(-74.67)"/><ellipse cx="537.63" cy="825.8" rx="4.3" ry="2.2" transform="translate(-400.91 1126.03) rotate(-74.67)"/><ellipse cx="713.95" cy="641.7" rx="5.25" ry="10.29" transform="translate(-23.18 26.76) rotate(-2.11)"/><ellipse cx="198.17" cy="725.73" rx="13.74" ry="7.32" transform="translate(-543.89 602.07) rotate(-65.27)"/><path d="M945,590s-11,47-11,65-22,119-22,119l-84.15,90c-56-.86-174.89-34.65-210.11-45a321,321,0,0,0,78.07-80.69q4-5.89,7.69-12c1.1-1.79,2.18-3.61,3.24-5.43q6.46-11.07,12-22.7a317.53,317.53,0,0,0,31.27-137.89q0-11.14-.75-22.1a317.09,317.09,0,0,0-51.56-153c-2.52-5.06-4.1-8.18-4.1-8.18l-1.49-.05c-6.45-.24-33.12-1.28-65.87-3.43C588.58,371,481,354,481,354s-34-17-33.55-56c.27-23.16,21.59-40.69,40.29-51.75A218.54,218.54,0,0,1,514.81,233c6.8-3,40.19-8,66.19-10.45s48,.45,78,.45,48,13,150.77,50.65S911,497,911,497c-2,32,29.22,37.94,29.22,37.94Z" style="fill:#fff"/><path d="M902.61,568.49s17,171.6-44.35,208.67" style="fill:#fff"/><path d="M902.61,568.49c10.94,54.75,11.93,161.15-32.59,201a51.32,51.32,0,0,1-11.76,7.65,65.22,65.22,0,0,0,9.78-9.59c34.25-43,32.43-144,34.57-199.08Z"/><path d="M703.56,374.77S577,371.94,490.88,349c0,0-70.47-15.55-37.43-76.76,38-70.33,222-64.79,312.72-24.41,0,0,148.12,31.61,146.64,254.46,0,0-4.13,22.54,28.41,29.64" style="fill:#fff"/><path d="M703.54,375.77c-64.62,3.33-129.86-.25-193.42-13-3.62-.67-6.61-1.39-10-2.21l-9.94-2.45c-1.55-.37-3.63-.86-5.38-1.44-20.75-6.39-42.2-21-46.4-43.89-2.68-14.32,2-28.79,9-40.84a74,74,0,0,1,21.67-24c37.28-26.35,93.79-32.39,138.47-34.43,41.1-1.44,82.81,1.67,122.84,12.11a294,294,0,0,1,39.79,13.3l-1.94-.63c13.85,3.21,27,9,39.42,15.82,31.85,17.65,58.09,45,75.82,76.63,21,37.22,31.07,79.48,33.54,121.6a399.21,399.21,0,0,1-.12,50.72c-1.21,6.34,1.4,12.77,5.84,17.45l1.85,1.82,2.1,1.59c.36.26.69.55,1.07.8l1.15.68,2.32,1.39A67.88,67.88,0,0,0,941.43,531l-.43,1.95-5.69-1c-1.87-.5-3.76-1-5.64-1.63-1.31-.56-3-1.2-4.12-1.71-.78-.39-3.15-1.75-4-2.21-5.2-3.47-9.67-8.51-11.6-14.69a24.46,24.46,0,0,1-1.23-10.09l-.07.72C905,415,876.62,318.81,797.28,272.15c-10.45-6.15-21.47-11.46-33.15-14.75l-1.43-.4-.5-.23A274,274,0,0,0,725.47,243a507.49,507.49,0,0,0-118-20.08c-46.84-2.16-125.66,5-149.21,51.82-14.79,31.31-4.52,51.58,27.34,63.29,6.84,2.4,16.33,4.26,23.42,6.18,50.73,11.55,102.51,18.09,154.21,24.58l40.34,4.95-.05,2Z"/><polygon points="767.2 479.4 894.47 467.56 869.3 612.1 741.28 627.65 767.2 479.4" style="fill:#e6e6e6"/><path d="M694,355s6.61,102.28,77.35,169.26" style="fill:#fff"/><path d="M694,355c10.75,29.91,20.57,58.79,33.18,87.45,12.44,28.83,27.26,54.8,44.17,81.81-2.57-1.37-5.39-3.17-7.89-4.75-38.07-26.45-60.74-70.93-68.57-115.85-2.55-16.05-3.71-32.56-.89-48.66Z"/><path d="M174.66,289.39S243,164.77,358.14,214.16c99.91,42.86,21.57,118.4-17.37,130-57.44,17.12-92.47-9.34-95.33-40.54-1.66-18.25-9.07-24.41-9.07-24.41" style="fill:#fff"/><path d="M174.66,289.39c20.16-41.8,56.13-79,102-91.37,29.55-8.06,61.51-3.57,89.12,8.93,23.23,10.13,47.59,28,50.72,55.25,3.38,32.81-22.41,61.21-48,77.91-7.85,5-16.3,9.39-25.47,11.87-26,7-56.84,7.38-79.35-9.62-11.66-8.82-19.74-22.48-20.37-37.2-.29-8.93-1.16-18.69-6.91-25.94,6.7,5.76,9.52,14.88,11.14,23.31,2.85,19.1,17.92,33.12,36.05,37.76,15.38,4.17,31.79,2.54,47.06-1.58,26.08-5.83,58.62-34.69,65.14-60.82C404,245.78,368,227.7,342.83,218.47s-52.91-9.85-78.18-1.05c-36.75,12.75-67.2,41-90,72Z"/><path d="M93.21,467.16S56.49,220.46,261.32,259.48c134.8,25.68,83.95,130.37,39.08,155.2-66.2,36.62-116.54,13.45-128.48-24.25-7-22.05-17.78-27.65-17.78-27.65" style="fill:#fff"/><path d="M93.21,467.16c-17.62-92.88,2.12-213.28,116.59-221,33.43-2,75.6,4.85,105.14,21,59.09,32,52.25,97.16,9,139.9-11.66,11.61-26.76,18.85-42.14,24.35-15.13,5.38-31.3,8.42-47.44,7.45-32-2-58.62-20.15-65.73-52.37-2.92-8.76-6.92-17.92-14.45-23.69a29.84,29.84,0,0,1,8.77,7.46c5,5.91,8.56,13.1,11.32,20.3,13.33,32.74,49.75,42,81.73,34,14-3.27,27.48-9.19,40.13-16.51a72.78,72.78,0,0,0,16-12.91C340.47,365,353.26,317,314.06,290c-25.33-17.75-67-25.21-97.77-25.13-39.21.06-73,16.09-93.87,50C95.82,358.39,90.94,417,93.21,467.16Z"/><path d="M64.52,513.06S20.92,324.88,198.62,329.6c137.17,3.64,110.1,109.19,71.64,143.11-56.75,50-110.9,38.27-130.69,4-11.58-20-23.33-23.16-23.33-23.16" style="fill:#fff"/><path d="M64.52,513.06c-19.7-71-7-158.53,72.08-184.49,17.58-6,36.13-8.31,54.62-8.64,36.9-.16,79.4,5.57,104.46,36.15,28,35.35,14.35,87.93-14.92,118.13-16.22,15.26-35.68,27.49-57.14,33.86-28.66,8.76-63.13,3.18-81.29-22.44-4.19-5.77-6.69-12.46-10.93-18.15-4-5.59-8.83-11-15.16-13.89,10.37,3.13,18.14,11.83,24.2,20.46A57.54,57.54,0,0,0,181,500.17c28.29,4.15,55.63-9.76,76.89-27.56,1-.78,2.9-2.43,3.81-3.29,12.22-10.33,20.69-24.76,25.73-39.89,5.8-17.22,6.61-38-2.32-53.65-17.82-31.06-60.75-36-93.8-36.66-35.83-.55-74.41,8.51-98.12,37C62.71,412.38,59.26,467.7,64.52,513.06Z"/><path d="M47,536.9s-.25-146.52,156.4-124.82c135.93,18.83,97.29,147,53.77,174.09-64.21,40-115.69,19.48-129.57-17.55-8.12-21.65-19.19-26.68-19.19-26.68" style="fill:#fff"/><path d="M46,536.9C40.75,487,65.37,432.11,113.53,412.26c26.78-11.38,56.75-9.9,84.57-4.95,23.14,4,46.42,9.91,66.6,22.6,38.27,23.76,49,67.13,36.18,108.83-6.71,21.63-17.94,42.72-37.22,56-2.24,1.48-4.81,2.92-7.08,4.29-28.6,16.41-65,25.26-96.45,11.72-14.86-6.32-27.47-18-34-32.85-.59-1.52-1.54-3.68-2-5.22l-.84-2.62A67.25,67.25,0,0,0,114.47,550a30.76,30.76,0,0,0-6.52-7.13l.83-1.82a29.25,29.25,0,0,1,9,6c6,5.54,10.32,12.56,13.88,19.82.34.62,1.31,2.54,1.65,3.16a55.67,55.67,0,0,0,30.31,25c29.37,10,60.89-1.62,86.38-17.1,25.13-15.49,39.62-53.08,39.42-82,.19-53-44.14-78.2-92.3-80.45-37.84-1.84-79.81,7.25-107.53,34.06C70.89,467.61,59.47,492,52.45,517.11A199.42,199.42,0,0,0,48,536.9Z"/><path d="M57,545s-6-78,55-112L95.45,421.77S31,464,37.65,543.58Z"/><path d="M599.45,242.87l-42.13,242-22.76-242H380.75L276.88,837H418.27l42.66-245.52L482.72,837H639.31l103.86-594.1ZM630.9,827h-139L464.14,514.53,409.85,827H288.78l100.38-574.1h136.3l28.9,307.36,53.5-307.36H731.27Z"/><path d="M799.42,242.87,695.55,837H839.27l103.47-594.1ZM830.86,827H707.45l100.37-574.1h123Z"/><path d="M1353.72,242.87H1203.89L1113,402.1l27.76-159.23H999L895.12,837h141.77l30.75-176.4L1086,634l30,202.93h146.57l-68.37-344.65ZM1250.31,827H1124.56l-32.42-219.49-34,49.21L1028.48,827H907l100.37-574.1h121.46l-35.54,203.86L1209.7,252.87h125.75L1183.53,490.32Z"/><path d="M1634.05,364.41l21-121.54H1368.84L1265,837h301.88l21.48-122.32h-159l21.51-123.33h128.87L1601.22,469H1472.3l18-104.59ZM1460.43,479h128.88l-18,102.32H1442.46l-25,143.33h159l-18,102.32H1276.87l100.37-574.1h266l-17.57,101.54H1481.91Z"/></svg>