<svg xmlns="http://www.w3.org/2000/svg" xmlns:xlink="http://www.w3.org/1999/xlink" viewBox="0 0 1920 720"><defs><clipPath id="a"><path d="M738,379.48a305.47,305.47,0,0,1-44.81,159.76q-3.57,5.85-7.4,11.52c-53.61,79.58-143.52,132.69-246,135.56-2.91.08-5.82.12-8.76.12-2.54,0-5.08,0-7.61-.09a306,306,0,0,1-209.11-89.48q-6.28-6.27-12.19-12.89a307.64,307.64,0,0,1-47.28-70.39c73.34-130.14,212.83-218,372.85-218A425.65,425.65,0,0,1,736.63,350Q738,364.54,738,379.48Z" style="fill:none"/></clipPath><clipPath id="b"><ellipse cx="366.27" cy="146.16" rx="132.42" ry="48.86" transform="translate(-26.68 112.87) rotate(-16.91)" style="fill:none"/></clipPath></defs><rect y="-0.79" width="1920" height="720" style="fill:#f2f2f2"/><path d="M1596.07,317.53q-4.52,1.07-9.6,2.65h0l-.94.29-.13,0-4.09,23.28-161,19.56c.85.24,1.72.47,2.6.69h0a130.5,130.5,0,0,0,32.07,3.17c82.78-.93,79,5.06,124.12-11h0c3.33-1.18,6.93-2.49,10.85-3.93l.19-.07C1643.4,332.65,1640.7,307,1596.07,317.53ZM1321.27,94.25l-17.72,27.68C1317.66,124.38,1327.35,105.38,1321.27,94.25ZM1170.8,120a296.72,296.72,0,0,0-38.32-10.51q-4.89-1-9.83-1.9c-41.4-7.4-84.46-7.92-120.42-6q-5.24.27-10.25.61c-23.88,1.58-43.94,4.11-57.29,6.09-4.16.61-7.67,1.18-10.44,1.64l-15,86-5.84,33.53-.81,4.64-.13.77h0l-8.78,50.4.35,0,1.77-.12h0c.59,0,1.18-.07,1.78-.09l1.18-.05,1.64-.05c1.16,0,2.33,0,3.49,0h.28l2.51,0,1.76,0,1,0c.11,1.16.2,2.29.28,3.39.07.91.14,1.81.2,2.68.1,1.32.18,2.6.26,3.83,0,.6.07,1.19.1,1.77s.07,1.14.1,1.7c0,.28,0,.55.05.82.07,1.22.12,2.39.17,3.49,0,.37,0,.74.05,1.1.09,2.16.16,4.07.2,5.7,0,.28,0,.54,0,.8s0,.34,0,.51c.09,3.53.07,5.48.07,5.48-.09,1.49-.11,2.93-.07,4.3,0,.36,0,.71.05,1.06l0,.48c.06.79.13,1.56.23,2.31q.07.61.18,1.23c.05.33.11.65.17,1,.4,0,.8,0,1.2,0h.41c.69,0,1.39,0,2.09-.08a0,0,0,0,0,.05,0l.87,0c1.37-.07,2.75-.17,4.13-.3l1.26-.12c.49,0,1-.09,1.46-.15l2.17-.26.66-.08,2.12-.29,2-.3.43-.06q.66-.09,1.32-.21c1.33-.21,2.65-.44,4-.68.86-.16,1.73-.31,2.59-.48s2-.38,3-.58l2.2-.44,4.43-.92,5.91-1.27,5.71-32.69,1.2-.36,1.27-.42c.52-.19,1-.37,1.53-.57l.9-.36,1.16-.51,1.12-.53,1.14-.6c.27-.15.54-.3.8-.46l.77-.47c.39-.25.77-.51,1.14-.77h0l.32-1.86,2.11-.2,121.46-11.3-1.18,6.78,4-7.05.6-1.06L1131.55,209l48.74-85.38Q1175.61,121.73,1170.8,120Zm-168.5-58h15.3A46.73,46.73,0,0,0,1002.3,62.08Zm593.77,255.45q-4.52,1.07-9.6,2.65h0l-.94.29-.13,0-4.09,23.28-161,19.56c.85.24,1.72.47,2.6.69h0a130.5,130.5,0,0,0,32.07,3.17c82.78-.93,79,5.06,124.12-11h0c3.33-1.18,6.93-2.49,10.85-3.93l.19-.07C1643.4,332.65,1640.7,307,1596.07,317.53ZM1321.27,94.25l-17.72,27.68C1317.66,124.38,1327.35,105.38,1321.27,94.25Zm-8,285.73c-15-35.9-13.37-94.38-42.26-170.77q-2.09-5.52-4.57-10.69T1261,188.39h0c-18.17-30.85-47.14-51.39-80.75-64.79q-4.68-1.86-9.49-3.55a296.72,296.72,0,0,0-38.32-10.51q-4.89-1-9.83-1.9c-41.4-7.4-84.46-7.92-120.42-6q-5.24.27-10.25.61c-23.88,1.58-43.94,4.11-57.29,6.09-4.16.61-7.67,1.18-10.44,1.64l-15,86-5.84,33.53-.81,4.64-.13.77h0l-8.78,50.4.35,0,1.77-.12h0c.59,0,1.18-.07,1.78-.09l1.18-.05,1.64-.05c1.16,0,2.33,0,3.49,0h.28l2.51,0,1.76,0,1,0c.11,1.16.2,2.29.28,3.39.07.91.14,1.81.2,2.68.1,1.32.18,2.6.26,3.83,0,.6.07,1.19.1,1.77,0,.23,0,.46,0,.69s0,.68,0,1,0,.55.05.82c.07,1.22.12,2.39.17,3.49,0,.37,0,.74.05,1.1.09,2.16.16,4.07.2,5.7,0,.28,0,.54,0,.8s0,.34,0,.51c.09,3.53.07,5.48.07,5.48-.09,1.49-.11,2.93-.07,4.3,0,.36,0,.71.05,1.06l0,.48c.06.79.13,1.56.23,2.31q.07.61.18,1.23c.05.33.11.65.17,1,.4,0,.8,0,1.2,0h.41c.69,0,1.39,0,2.09-.08a0,0,0,0,0,.05,0l.87,0c1.37-.07,2.75-.17,4.13-.3l1.26-.12c.49,0,1-.09,1.46-.15l2.17-.26.66-.08,2.12-.29,2-.3.43-.06q.66-.09,1.32-.21c1.33-.21,2.65-.44,4-.68.86-.16,1.73-.31,2.59-.48s2-.38,3-.58l2.2-.44,4.43-.92,5.91-1.27,5.71-32.69,1.2-.36,1.27-.42c.52-.19,1-.37,1.53-.57l.9-.36,1.16-.51,1.12-.53,1.14-.6c.27-.15.54-.3.8-.46l.77-.47c.39-.25.77-.51,1.14-.77h0L964.39,318c1.31-.27,2.6-.54,3.89-.78l1.89-.36,1.65-.31,2.58-.45,2.22-.36.53-.09c.78-.13,1.56-.24,2.34-.35L982,315c.83-.11,1.66-.2,2.48-.28,1.62-.17,3.23-.3,4.81-.39,2.29-.13,4.52-.18,6.71-.12,38,1,57,8,130,37a351.63,351.63,0,0,1,42.07,19.93l1.73,1q3.72,2.1,7.18,4.19l1.69,1q4.68,2.85,8.89,5.6l.9.59,1.77,1.16c1.31.87,2.59,1.72,3.84,2.58q1.46,1,2.85,1.95l1.57,1.1-155.1,18.84c0,.33,0,.67,0,1l0,1.11c0,.79,0,1.58,0,2.38,0,1.17,0,2.35,0,3.55,0,1.63,0,3.28,0,4.95q0,2-.12,4.08c0,1.16-.09,2.32-.14,3.5-.08,1.48-.16,3-.26,4.46,0,.57-.07,1.14-.11,1.71q-.48,6.71-1.26,13.64c-.08.72-.16,1.44-.25,2.17-.15,1.27-.31,2.55-.48,3.83s-.34,2.58-.52,3.87c-.22,1.55-.44,3.09-.68,4.65a1.57,1.57,0,0,0-.05.3q10.64,2.43,22.94,5.16l29.58-42.83,7.52,50.89c34.79,7.41,76,15.75,122,24.31q5.25,1,10.58,2,27.7,5.1,57.55,10.22l9.85,1.68,21.27-121.65A73,73,0,0,1,1313.26,380Zm-311-317.9h15.3A46.73,46.73,0,0,0,1002.3,62.08ZM1836,226.21c15.22,15.91,54.36,17,84,23.42V109.54c-43.47-19.58-100-26.1-136-31.33-55-8-127-40-180-64l-1.36-.62-2.14-1c-5.12-2.39-9.58-4.62-13.52-6.72l-.89-.48-1.9-1-1.51-.84c-1.65-.92-3.2-1.82-4.67-2.68L1576.63,0l-1.34-.81H850.93c-47.68,9-32.17-4.77-186.93,2C559.49,5.78,453.68,35.53,392.88,55.62h0c-20.33,6.71-35.65,12.35-44.18,15.6,0,0,0,0,0,0-5,1.9-7.67,3-7.67,3l28.79-2.09Q354,79,339.69,86.35h0q-8.07,4.1-15.7,8.32c-2.52,1.39-5,2.8-7.45,4.21-.73.42-1.43.85-2.15,1.27h0Q278.62,121.09,253.63,145q-5.12,4.92-9.77,10a193.17,193.17,0,0,0-20,25.49,157.16,157.16,0,0,0-20.88,47c-.32,1.24-.62,2.48-.91,3.72s-.56,2.51-.81,3.77c-.05.23-.1.47-.14.71q-.75,3.78-1.31,7.63t-.93,7.67q-.74,7.58-.74,15.36a195.62,195.62,0,0,1-9.49,59.12q-1.46,4.58-3.07,9l-.24.63q-1.62,4.43-3.4,8.7-1.92,4.61-4,9a272.43,272.43,0,0,1-23.82,41.18c-7.22-1-13.8-1.72-19.38-2.28-2.11-.21-4.08-.4-5.89-.56l-4.59-.38-.57,0h0c-4.85-.38-7.63-.52-7.63-.52s-.1.8-.26,2.32c-.39,3.46-1.15,10.63-2,20.48h0s0,0,0,0a0,0,0,0,0,0,0c-.77,8.4-1.61,18.73-2.38,30.38q-.34,5.16-.67,10.64c-.19,3.37-.38,6.82-.55,10.34-3.14,63.73-2.3,150.33,21.79,182.85,23.58,31.83,30.48,53.23,44.86,72h205.3c11.65,2.09,24.72,2.11,39.47,0H1920V551.57c-16.13-5.43-30.57-12.74-36-16.36-12-8-62-3-82,4s-54,10-40,3,43-16,10-23-17,20-60,26-82-13-82-42-29-11-40-33-55-28-3-24,59,30,101,27,52-22,42-37-60,7-36-10,66-29,112-18c30.22,7.23,82,5.39,114,3.27V325.71c-12.78-10.37-30.62-22.3-49-26.5-35-8-65,1-74-21s34,10,76,7,29-20-14-34S1813.91,203.12,1836,226.21ZM1582.58,394.34q-5.14.93-10.48,1.86-12.19,2.13-25.31,4.33-28.55,4.79-61.29,10l-17.66,2.84q-9.33,1.5-17.93,2.69c-3.56.49-7,.95-10.39,1.35-70.45,8.63-102,.06-118.58-23.31a73,73,0,0,1-7.68-14.12c-15-35.9-13.37-94.38-42.26-170.77q-2.09-5.52-4.57-10.69T1261,188.39h0c-18.17-30.85-47.14-51.39-80.75-64.79q-4.68-1.86-9.49-3.55a296.72,296.72,0,0,0-38.32-10.51q-4.89-1-9.83-1.9c-41.4-7.4-84.46-7.92-120.42-6q-5.24.27-10.25.61c-23.88,1.58-43.94,4.11-57.29,6.09-4.16.61-7.67,1.18-10.44,1.64-4.69.79-7.25,1.29-7.25,1.29-13,3-21,17-31-5-7.16-15.74,12.82-19.2,42.36-19.89,3.28-.08,6.68-.12,10.18-.14,9-.05,18.62,0,28.46,0,9.46,0,19-.12,27.85-.44,3.52-.12,6.94-.28,10.23-.47,25.18-1.48,42.5-5.11,34.08-13.22a38.38,38.38,0,0,0-9.16-5.87,44.83,44.83,0,0,0-12.4-4.13,46.73,46.73,0,0,0-15.3,0c-1.15.17-2.29.38-3.42.61C980.6,66.45,966.26,76.44,955,59.21c-17-26,103-17,210-19,48.15-.9,73.82,8.73,89.5,21.87a71,71,0,0,1,9.75,10c11.39,14.16,16,30.08,25.75,41.13,4.71,5.35,9.32,8,13.55,8.72,14.11,2.45,23.8-16.55,17.72-27.68a13.25,13.25,0,0,0-2.27-3c-5.79-5.79-19.34-13.77-27.69-19.13-9.89-6.35-12.5-9,13.72,0l4.1,1.42a50.86,50.86,0,0,1,18.17,11.32h0a68.47,68.47,0,0,1,7,7.68c9.3,11.86,16.23,27.66,21.4,45,2.31,7.77,4.27,15.86,5.94,24,5.85,28.75,8,58.77,8.93,80.87,0,.34,0,.67,0,1,.21,5.46.35,10.42.44,14.74.85,38.92-3.32,90.72,49.28,105.14h0c.85.24,1.72.47,2.6.69h0a130.5,130.5,0,0,0,32.07,3.17c82.78-.93,79,5.06,124.12-11h0c3.33-1.18,6.93-2.49,10.85-3.93l.19-.07c53.24-19.56,50.54-45.19,5.91-34.68q-4.52,1.07-9.6,2.65h0l-.94.29-.13,0c-54.34,17.2-40.39,2.7-40.39,2.7a253.38,253.38,0,0,1,38.81-25c.64-.34,1.29-.67,1.94-1,4.78-2.46,9.85-4.85,15.13-7.07,34-14.26,76.58-21.06,107.12,12.07C1754.59,352.74,1706.41,372.1,1582.58,394.34ZM1002.3,62.08h15.3A46.73,46.73,0,0,0,1002.3,62.08Zm311,317.9c-15-35.9-13.37-94.38-42.26-170.77q-2.09-5.52-4.57-10.69T1261,188.39h0c-18.17-30.85-47.14-51.39-80.75-64.79q-4.68-1.86-9.49-3.55a296.72,296.72,0,0,0-38.32-10.51q-4.89-1-9.83-1.9c-41.4-7.4-84.46-7.92-120.42-6q-5.24.27-10.25.61c-23.88,1.58-43.94,4.11-57.29,6.09-4.16.61-7.67,1.18-10.44,1.64l-15,86-5.84,33.53-.81,4.64-.13.77h0l-8.78,50.4.35,0,1.77-.12h0c.59,0,1.18-.07,1.78-.09l1.18-.05,1.64-.05c1.16,0,2.33,0,3.49,0h.28l2.51,0,1.76,0,1,0c.11,1.16.2,2.29.28,3.39.07.91.14,1.81.2,2.68.1,1.32.18,2.6.26,3.83,0,.6.07,1.19.1,1.77,0,.23,0,.46,0,.69s0,.68,0,1,0,.55.05.82c.07,1.22.12,2.39.17,3.49,0,.37,0,.74.05,1.1.09,2.16.16,4.07.2,5.7,0,.28,0,.54,0,.8s0,.34,0,.51c.09,3.53.07,5.48.07,5.48-.09,1.49-.11,2.93-.07,4.3,0,.36,0,.71.05,1.06l0,.48c.06.79.13,1.56.23,2.31q.07.61.18,1.23c.05.33.11.65.17,1,.4,0,.8,0,1.2,0h.41c.69,0,1.39,0,2.09-.08a0,0,0,0,0,.05,0l.87,0c1.37-.07,2.75-.17,4.13-.3l1.26-.12c.49,0,1-.09,1.46-.15l2.17-.26.66-.08,2.12-.29,2-.3.43-.06q.66-.09,1.32-.21c1.33-.21,2.65-.44,4-.68.86-.16,1.73-.31,2.59-.48s2-.38,3-.58l2.2-.44,4.43-.92,5.91-1.27,5.71-32.69,1.2-.36,1.27-.42c.52-.19,1-.37,1.53-.57l.9-.36,1.16-.51,1.12-.53,1.14-.6c.27-.15.54-.3.8-.46l.77-.47c.39-.25.77-.51,1.14-.77h0L964.39,318c1.31-.27,2.6-.54,3.89-.78l1.89-.36,1.65-.31,2.58-.45,2.22-.36.53-.09c.78-.13,1.56-.24,2.34-.35L982,315c.83-.11,1.66-.2,2.48-.28,1.62-.17,3.23-.3,4.81-.39,2.29-.13,4.52-.18,6.71-.12,38,1,57,8,130,37a351.63,351.63,0,0,1,42.07,19.93l1.73,1q3.72,2.1,7.18,4.19l1.69,1q4.68,2.85,8.89,5.6l.9.59,1.77,1.16c1.31.87,2.59,1.72,3.84,2.58q1.46,1,2.85,1.95l1.57,1.1-155.1,18.84c0,.33,0,.67,0,1l0,1.11c0,.79,0,1.58,0,2.38,0,1.17,0,2.35,0,3.55,0,1.63,0,3.28,0,4.95q0,2-.12,4.08c0,1.16-.09,2.32-.14,3.5-.08,1.48-.16,3-.26,4.46,0,.57-.07,1.14-.11,1.71q-.48,6.71-1.26,13.64c-.08.72-.16,1.44-.25,2.17-.15,1.27-.31,2.55-.48,3.83s-.34,2.58-.52,3.87c-.22,1.55-.44,3.09-.68,4.65a1.57,1.57,0,0,0-.05.3q10.64,2.43,22.94,5.16l29.58-42.83,7.52,50.89c34.79,7.41,76,15.75,122,24.31q5.25,1,10.58,2,27.7,5.1,57.55,10.22l9.85,1.68,21.27-121.65A73,73,0,0,1,1313.26,380Zm8-285.73-17.72,27.68C1317.66,124.38,1327.35,105.38,1321.27,94.25Zm274.8,223.28q-4.52,1.07-9.6,2.65h0l-.94.29-.13,0-4.09,23.28-161,19.56c.85.24,1.72.47,2.6.69h0a130.5,130.5,0,0,0,32.07,3.17c82.78-.93,79,5.06,124.12-11h0c3.33-1.18,6.93-2.49,10.85-3.93l.19-.07C1643.4,332.65,1640.7,307,1596.07,317.53ZM1002.3,62.08h15.3A46.73,46.73,0,0,0,1002.3,62.08Zm311,317.9c-15-35.9-13.37-94.38-42.26-170.77q-2.09-5.52-4.57-10.69T1261,188.39h0c-18.17-30.85-47.14-51.39-80.75-64.79q-4.68-1.86-9.49-3.55a296.72,296.72,0,0,0-38.32-10.51q-4.89-1-9.83-1.9c-41.4-7.4-84.46-7.92-120.42-6q-5.24.27-10.25.61c-23.88,1.58-43.94,4.11-57.29,6.09-4.16.61-7.67,1.18-10.44,1.64l-15,86-5.84,33.53-.81,4.64-.13.77h0l-8.78,50.4.35,0,1.77-.12h0c.59,0,1.18-.07,1.78-.09l1.18-.05,1.64-.05c1.16,0,2.33,0,3.49,0h.28l2.51,0,1.76,0,1,0c.11,1.16.2,2.29.28,3.39.07.91.14,1.81.2,2.68.1,1.32.18,2.6.26,3.83,0,.6.07,1.19.1,1.77,0,.23,0,.46,0,.69s0,.68,0,1,0,.55.05.82c.07,1.22.12,2.39.17,3.49,0,.37,0,.74.05,1.1.09,2.16.16,4.07.2,5.7,0,.28,0,.54,0,.8s0,.34,0,.51c.09,3.53.07,5.48.07,5.48-.09,1.49-.11,2.93-.07,4.3,0,.36,0,.71.05,1.06l0,.48c.06.79.13,1.56.23,2.31q.07.61.18,1.23c.05.33.11.65.17,1,.4,0,.8,0,1.2,0h.41c.69,0,1.39,0,2.09-.08a0,0,0,0,0,.05,0l.87,0c1.37-.07,2.75-.17,4.13-.3l1.26-.12c.49,0,1-.09,1.46-.15l2.17-.26.66-.08,2.12-.29,2-.3.43-.06q.66-.09,1.32-.21c1.33-.21,2.65-.44,4-.68.86-.16,1.73-.31,2.59-.48s2-.38,3-.58l2.2-.44,4.43-.92,5.91-1.27,5.71-32.69,1.2-.36,1.27-.42c.52-.19,1-.37,1.53-.57l.9-.36,1.16-.51,1.12-.53,1.14-.6c.27-.15.54-.3.8-.46l.77-.47c.39-.25.77-.51,1.14-.77h0L964.39,318c1.31-.27,2.6-.54,3.89-.78l1.89-.36,1.65-.31,2.58-.45,2.22-.36.53-.09c.78-.13,1.56-.24,2.34-.35L982,315c.83-.11,1.66-.2,2.48-.28,1.62-.17,3.23-.3,4.81-.39,2.29-.13,4.52-.18,6.71-.12,38,1,57,8,130,37a351.63,351.63,0,0,1,42.07,19.93l1.73,1q3.72,2.1,7.18,4.19l1.69,1q4.68,2.85,8.89,5.6l.9.59,1.77,1.16c1.31.87,2.59,1.72,3.84,2.58q1.46,1,2.85,1.95l1.57,1.1-155.1,18.84c0,.33,0,.67,0,1l0,1.11c0,.79,0,1.58,0,2.38,0,1.17,0,2.35,0,3.55,0,1.63,0,3.28,0,4.95q0,2-.12,4.08c0,1.16-.09,2.32-.14,3.5-.08,1.48-.16,3-.26,4.46,0,.57-.07,1.14-.11,1.71q-.48,6.71-1.26,13.64c-.08.72-.16,1.44-.25,2.17-.15,1.27-.31,2.55-.48,3.83s-.34,2.58-.52,3.87c-.22,1.55-.44,3.09-.68,4.65a1.57,1.57,0,0,0-.05.3q10.64,2.43,22.94,5.16l29.58-42.83,7.52,50.89c34.79,7.41,76,15.75,122,24.31q5.25,1,10.58,2,27.7,5.1,57.55,10.22l9.85,1.68,21.27-121.65A73,73,0,0,1,1313.26,380Zm8-285.73-17.72,27.68C1317.66,124.38,1327.35,105.38,1321.27,94.25Zm274.8,223.28q-4.52,1.07-9.6,2.65h0l-.94.29-.13,0-4.09,23.28-161,19.56c.85.24,1.72.47,2.6.69h0a130.5,130.5,0,0,0,32.07,3.17c82.78-.93,79,5.06,124.12-11h0c3.33-1.18,6.93-2.49,10.85-3.93l.19-.07C1643.4,332.65,1640.7,307,1596.07,317.53Z" style="fill:#f1a168"/><path d="M382.16,719.21H176.86c-14.38-18.77-21.28-40.17-44.86-72-24.09-32.52-24.93-119.12-21.79-182.85.17-3.52.36-7,.55-10.34q.33-5.47.67-10.64c.77-11.67,1.61-22,2.38-30.43.88-9.85,1.64-17,2-20.48q4.35,3.54,8.93,7.32l4.88,4.08c9.5,7.94,19.57,16.6,29.86,25.8,19.75,17.64,40.32,37.27,59.29,57.7q5.77,6.22,11.33,12.54c.7.79,1.39,1.59,2.08,2.39s1.52,1.74,2.26,2.61q3.41,4,6.69,7.94,2.75,3.33,5.4,6.67l2.06,2.6h0c17.89,22.85,32.24,45.86,39.9,67.49,1,2.7,1.8,5.36,2.54,8q1.9,6.84,3.88,13.32c3.9,12.82,8,24.57,12.42,35.23q2.14,5.18,4.4,10c1.25,2.68,2.52,5.28,3.83,7.79a158.87,158.87,0,0,0,9.88,16.62C340,701.83,358.1,714.91,382.16,719.21Z" style="fill:#eb292c"/><path d="M630.65,719.21h-209a251,251,0,0,0,41.37-10C549.23,681.29,587.57,687.76,630.65,719.21Z" style="fill:#eb292c"/><path d="M342.16,173.37S643,1.21,751,52.21s100,141,187,151,124-67,203,15,30,41,107,115,50,68,12,37-27-43-97-64-136-33-96,2,124,51,148,71,41,32,24,34-40-33-113-62-92-36-130-37-91,29-124-1,38-32,62-25,69-13,21-33-77-32-125-43-144-32-181-34-222-3-222-3l-84.84-1.84Z" style="fill:#eb292c"/><path d="M1115.84-.79h99.54l-1.38,1C1172,30.48,1128.12,13.08,1115.84-.79Z" style="fill:#eb292c"/><path d="M1352,25.21c-65.09-1.71-76.72-11.25-74.89-26h102.62C1410.3,4.94,1457.79,28,1352,25.21Z" style="fill:#eb292c"/><path d="M1920,109.54v70.69c-74.8-1.13-122.89-45.82-142-64-21-20-103-54-138-62-12.33-2.82-21.93,1.19-26.83,7.87a18.16,18.16,0,0,0-3.57,10c-.5,10.37,7.84,22.08,29,26.83,2.32.52,4.8,1,7.44,1.3l2.43.32c52.74,6.89,90.12,13.88-4.43,26.68l-.19,0c-3.54.47-7,.89-10.37,1.23-76.89,7.94-111.66-17.19-126.28-56.39q-1.82-4.86-3.23-10-1.07-3.87-1.93-7.87c-5.83-27-25.45-42.85-50.2-55h123.49l1.34.81,1.38.83c1.47.86,3,1.76,4.67,2.68l1.51.84,1.9,1,.89.48c3.94,2.1,8.4,4.33,13.52,6.72l2.14,1,1.36.62c53,24,125,56,180,64C1820,83.44,1876.53,90,1920,109.54Z" style="fill:#eb292c"/><path d="M1920,640.77V717.7c-3.23-2.51-6.24-5-9-7.49-39-35-82-7-158,5-8.86,1.4-15.62,2.73-20.55,4H1593.36c-70.67-9.72-65.43-25.91-21.36-34,49-9,99,16,209,9,94.68-6-111.44-56.51-207.67-74.91q-5.14-1-9.84-1.84c-11.09-2-20.19-3.49-26.49-4.25-58-7-70-19-44-30,10-4.23,38.65,1,74.79,9.79l9.73,2.41c56.48,14.17,127.81,35.24,175.48,42.8C1809.72,647.2,1881.28,643.75,1920,640.77Z" style="fill:#eb292c"/><path d="M828.85,682.19c6.26.21-183.85-4-688.85-220" style="fill:#fff"/><path d="M828.88,681.19a1.71,1.71,0,0,1,.41,0c1.49,2.53-1.63,2-.54,2-1.42.13-3.93.24-5.4.29-28.62.63-57.19-3.06-85.34-7.76-29.94-5.26-59.7-11.78-88.7-20.9-57.48-19.74-113.93-41.36-172.94-56.24a1579.21,1579.21,0,0,1-296.59-114c-13.53-6.91-27-14-40.17-21.5l.78-1.84c14.6,4.31,29,9.08,43.36,13.86,86,28.65,170.18,62,254.26,95.79,27.56,11.2,56.15,23.76,84.19,33.65,42.55,15.84,87.15,24.8,131.44,34.16,56.8,13.09,115.74,30,172.78,41.92l1.38.27.7.14.34.06c1.21,0-1.79-.5-.19,2l.17,0,.06-2Z"/><path d="M470.42,560.77S34.94,513.88,47,350.21c7-95,494,133.84,494,133.84Z" style="fill:#fff"/><path d="M527,472.9c-.54-.28-1.09-.55-1.64-.81l-2-1q-7.22-3.55-14.45-7-17.27-8.35-34.67-16.45c-.35-.17-.69-.34-1-.49q-4.71-2.21-9.42-4.38l-7.8-3.58q-4.23-2-8.47-3.87l-.94-.43q-10.86-4.93-21.75-9.79c-10.27-4.49-24.11-10.56-40.49-17.54h0c-14.53-6.19-31-13.11-48.79-20.28l-1.37-.56h0l-.94-.38-8.54-3.42c-2.62-1-5.26-2.09-7.92-3.13q-10.23-4-20.82-8.08-4.56-1.74-9.17-3.47l-9.22-3.44c-30.47-11.25-62.07-22-91.94-30.35l-1.72-.48h0c-19.07-5.31-37.42-9.65-54.27-12.56l-2.2-.38c-2.6-.43-5.17-.83-7.69-1.19l-2-.28c-15.25-2.07-29-2.77-40.62-1.67a77,77,0,0,0-14.66,2.69l-.74.23a47.44,47.44,0,0,0-4.88,1.8c-1,.43-2,.9-2.94,1.4A27.11,27.11,0,0,0,51,325.61a30,30,0,0,0-5.09,4.22h0a30.11,30.11,0,0,0-8.51,17.3l-.16,1.4c0,.1,0,.21-.05.31v.09a8.42,8.42,0,0,0-.06.91,103.33,103.33,0,0,0,0,11.27c1.43,39.07,28.44,71.36,58.58,93.32q7.13,5.19,14.54,9.92,7.91,5.08,16.11,9.68,7.6,4.29,15.41,8.2c23.47,11.79,48.14,21.26,72.9,29.56q6.85,2.22,13.73,4.33,8.59,2.65,17.22,5.14l3,.85h0q24.57,7,49.48,12.67,4.88,1.13,9.77,2.2,16.44,3.62,33,6.71h0q42,7.89,84.58,12.68,5,.58,10,1.11l4.41.46h0q15.12,1.57,30.27,2.78h.14q-17.17-2.94-34.33-6.12l-9.84-1.86c-2.08-.39-4.17-.79-6.25-1.2h0c-37-7.16-73.77-15.39-110.07-25.24h0q-4.85-1.32-9.68-2.67-22.53-6.31-44.77-13.55l-.08,0,0,0h-.05c-.87-.27-1.78-.57-2.65-.86q-8.59-2.81-17.13-5.8c-1-.35-2.08-.71-3.11-1.09q-13.92-4.89-27.68-10.23c-20.64-8.2-41.31-17.41-60.88-28.3h0l0,0h0l-1.62-.9h0c-2.54-1.44-5.08-2.89-7.58-4.39q-7.47-4.44-14.65-9.28h0q-4.2-2.82-8.27-5.78-2.4-1.74-4.76-3.54c-24.44-18.5-47-44.62-49.75-75.64a70.71,70.71,0,0,1-.28-7.3c0-1.28.06-2.56.15-3.86a19.12,19.12,0,0,1,.37-4,.07.07,0,0,1,0-.05s0,0,0,0a9.62,9.62,0,0,1,2.34-4.73c10.64-10.31,39-7,53.69-5.26l1.39.22c.23,0,.47.06.7.11q5.59.85,11.18,1.86c17.3,3.08,34.47,7,51.52,11.57,30.19,8,60,17.91,89.56,28.13l10.12,3.52,10,3.51,10.62,3.72,7.48,2.72q7.92,2.88,15.84,5.82l3.1,1.15,5.48,2,.95.35q56.73,21.18,113.13,44.2c.32.12.63.25.95.39q4.28,1.71,8.54,3.47,5.61,2.28,11.2,4.59l9.37,3.86,1,.43q16.17,6.68,32.27,13.44l.29.12,1.87.78,12.36,5.22,12.5,5.3,2.7-3.12.77-.9.27,1.38h0l.64,3.22.27,1.38-1.11-.47-3.54-1.5c-5.4,6.26-11,12.74-16.63,19.32-6.47,7.54-13,15.21-19.55,22.85a0,0,0,0,1,0,0c-5.26,6.14-10.44,12.24-15.53,18.24-3.07,3.63-6.11,7.21-9.08,10.73-1.17,1.38-2.33,2.74-3.47,4.1l3.52-3.53,9.21-9.25h0l14-14c6.26-6.3,12.56-12.64,18.81-19h0c10.65-10.77,21.18-21.51,31.33-32Q537.17,477.89,527,472.9Zm-16.45-2.78-2.27-1c.2-1.67.4-3.36.6-5q-17.27-8.35-34.67-16.45c-.35-.17-.69-.34-1-.49q-4.71-2.21-9.42-4.38l-7.8-3.58q-4.23-2-8.47-3.87l-.94-.43q-10.86-4.93-21.75-9.79c-10.27-4.49-24.11-10.56-40.49-17.54h0c-14.53-6.19-31-13.11-48.79-20.28l-1.37-.56h0l-.94-.38-8.54-3.42c-2.62-1-5.26-2.09-7.92-3.13q-10.23-4-20.82-8.08-4.56-1.74-9.17-3.47l-9.22-3.44c-30.47-11.25-62.07-22-91.94-30.35l-1.72-.48h0c-19.07-5.31-37.42-9.65-54.27-12.56l-2.2-.38c-1.11,1.55-2.19,3.09-3.23,4.6l-1.45,2.13c-.54.8-1.06,1.58-1.57,2.36s-1.05,1.59-1.55,2.37c-.86,1.33-1.69,2.65-2.5,3.94-.62,1-1.22,2-1.81,2.95q5.59.85,11.18,1.86c17.3,3.08,34.47,7,51.52,11.57,30.19,8,60,17.91,89.56,28.13l10.12,3.52,10,3.51,10.62,3.72,7.48,2.72q7.92,2.88,15.84,5.82l3.1,1.15,5.48,2,.95.35q56.73,21.18,113.13,44.2c.32.12.63.25.95.39q4.28,1.71,8.54,3.47,5.61,2.28,11.2,4.59l9.37,3.86,1,.43q16.17,6.68,32.27,13.44l.29.12,9.18-1.12Z"/><path d="M518.47,425.39S101.71,399.18,139.35,232.67,589,348.68,589,348.68Z" style="fill:#fff;stroke:#000;stroke-miterlimit:10;stroke-width:20px"/><path d="M750.06,379.48a317.53,317.53,0,0,1-31.27,137.89q-5.56,11.63-12,22.7-1.59,2.74-3.24,5.44-3.71,6.07-7.69,12A319.3,319.3,0,0,1,440.16,698.35q-4.53.14-9.1.13c-2.64,0-5.28,0-7.91-.1a317.91,317.91,0,0,1-217.3-93q-6.54-6.51-12.68-13.39-2.38-2.67-4.71-5.38a319.56,319.56,0,0,1-74.08-245.78q1-7.9,2.29-15.69A319.33,319.33,0,0,1,265.35,106.84l0,0Q275,101,285,95.81A317.47,317.47,0,0,1,431.06,60.48q15.56,0,30.74,1.46h0c5.39.51,10.73,1.17,16,1.94a317.19,317.19,0,0,1,135.9,54.06q11.28,7.89,21.84,16.73h0A319.9,319.9,0,0,1,724,253a316.2,316.2,0,0,1,25.33,104.43Q750.06,368.33,750.06,379.48Z"/><path d="M738,379.48a305.47,305.47,0,0,1-44.81,159.76q-3.57,5.85-7.4,11.52c-53.61,79.58-143.52,132.69-246,135.56-2.91.08-5.82.12-8.76.12-2.54,0-5.08,0-7.61-.09a306,306,0,0,1-209.11-89.48q-6.28-6.27-12.19-12.89A307.49,307.49,0,0,1,126.33,342.3c.61-5.07,1.35-10.11,2.2-15.09A307.25,307.25,0,0,1,271.6,117.13l0,0q9.23-5.62,18.87-10.6a305.57,305.57,0,0,1,140.54-34q15,0,29.58,1.4h0q7.77.73,15.44,1.87a305.29,305.29,0,0,1,130.76,52q10.86,7.59,21,16.1h0a307.81,307.81,0,0,1,85,113.81A304.93,304.93,0,0,1,736.63,350Q738,364.54,738,379.48Z" style="fill:#eb292c"/><g style="clip-path:url(#a)"><polyline points="466.27 57.65 448.53 75.41 430.78 93.15 413.02 110.9 395.28 128.64 377.53 146.39 361.55 162.37 343.81 180.11 326.06 197.87 308.31 215.62 290.55 233.37 272.81 251.11 256.83 267.09 239.08 284.84 221.34 302.6 203.59 320.34 185.83 338.09 168.09 355.83 152.11 371.81 134.36 389.56 116.62 407.3 98.87 425.06 81.12 442.81 63.36 460.56" style="fill:none;stroke:#000;stroke-miterlimit:10;stroke-width:2px"/><polyline points="484.03 75.41 466.27 93.15 448.53 110.9 430.78 128.66 413.04 146.4 395.29 164.15 379.31 180.13 361.56 197.87 343.81 215.62 326.06 233.37 308.31 251.13 290.57 268.87 274.59 284.85 256.84 302.6 239.08 320.34 221.34 338.09 203.59 355.85 185.84 373.59 169.87 389.57 152.12 407.32 134.38 425.06 116.62 442.81 98.87 460.56 81.12 478.31" style="fill:none;stroke:#000;stroke-miterlimit:10;stroke-width:2px"/><polyline points="501.78 93.15 484.02 110.9 466.27 128.64 448.53 146.4 430.78 164.15 413.04 181.9 397.06 197.87 379.31 215.62 361.55 233.37 343.81 251.11 326.06 268.87 308.31 286.62 292.34 302.6 274.59 320.34 256.83 338.09 239.08 355.83 221.34 373.59 203.59 391.34 187.62 407.32 169.87 425.06 152.12 442.81 134.36 460.56 116.62 478.3 98.87 496.06" style="fill:none;stroke:#000;stroke-miterlimit:10;stroke-width:2px"/><polyline points="519.53 110.9 501.78 128.66 484.03 146.4 466.27 164.15 448.53 181.9 430.78 199.64 414.81 215.62 397.06 233.37 379.31 251.13 361.56 268.87 343.81 286.62 326.06 304.36 310.08 320.34 292.34 338.09 274.59 355.85 256.84 373.59 239.08 391.34 221.34 409.09 205.36 425.06 187.62 442.81 169.87 460.56 152.12 478.31 134.38 496.06 116.62 513.81" style="fill:none;stroke:#000;stroke-miterlimit:10;stroke-width:2px"/><polyline points="537.27 128.64 519.53 146.4 501.78 164.15 484.02 181.9 466.27 199.64 448.53 217.39 432.55 233.37 414.81 251.11 397.06 268.87 379.31 286.62 361.55 304.36 343.81 322.11 327.83 338.09 310.08 355.83 292.34 373.59 274.59 391.34 256.83 409.09 239.08 426.83 223.11 442.81 205.36 460.56 187.62 478.3 169.87 496.06 152.12 513.81 134.36 531.55" style="fill:none;stroke:#000;stroke-miterlimit:10;stroke-width:2px"/><polyline points="555.02 146.39 537.27 164.15 519.53 181.9 501.77 199.64 484.02 217.39 466.27 235.13 450.3 251.11 432.55 268.86 414.81 286.62 397.06 304.36 379.3 322.11 361.55 339.86 345.58 355.83 327.83 373.58 310.08 391.34 292.34 409.09 274.58 426.83 256.83 444.58 240.85 460.56 223.11 478.3 205.36 496.05 187.62 513.81 169.87 531.55 152.11 549.3" style="fill:none;stroke:#000;stroke-miterlimit:10;stroke-width:2px"/><polyline points="571 162.37 553.25 180.13 535.5 197.87 517.74 215.62 500 233.37 482.25 251.11 466.27 267.09 448.53 284.84 430.78 302.6 413.04 320.34 395.28 338.09 377.53 355.83 361.55 371.81 343.81 389.56 326.06 407.32 308.31 425.06 290.55 442.81 272.81 460.56 256.83 476.53 239.08 494.28 221.34 512.03 203.59 529.78 185.84 547.53 168.09 565.28" style="fill:none;stroke:#000;stroke-miterlimit:10;stroke-width:2px"/><polyline points="588.74 180.11 571 197.87 553.25 215.62 535.49 233.37 517.74 251.11 500 268.86 484.02 284.84 466.27 302.58 448.53 320.34 430.78 338.09 413.02 355.83 395.28 373.58 379.3 389.56 361.55 407.3 343.81 425.06 326.06 442.81 308.3 460.56 290.55 478.3 274.58 494.28 256.83 512.03 239.08 529.77 221.34 547.53 203.59 565.28 185.83 583.02" style="fill:none;stroke:#000;stroke-miterlimit:10;stroke-width:2px"/><polyline points="606.5 197.87 588.74 215.62 571 233.37 553.25 251.13 535.5 268.87 517.76 286.62 501.78 302.6 484.03 320.34 466.27 338.09 448.53 355.83 430.78 373.59 413.04 391.34 397.06 407.32 379.31 425.06 361.55 442.81 343.81 460.56 326.06 478.31 308.31 496.06 292.34 512.04 274.59 529.78 256.84 547.53 239.08 565.28 221.34 583.02 203.59 600.78" style="fill:none;stroke:#000;stroke-miterlimit:10;stroke-width:2px"/><polyline points="624.25 215.62 606.49 233.37 588.74 251.11 571 268.87 553.25 286.62 535.5 304.36 519.53 320.34 501.78 338.09 484.02 355.83 466.27 373.58 448.53 391.34 430.78 409.09 414.81 425.06 397.06 442.81 379.3 460.56 361.55 478.3 343.81 496.06 326.06 513.81 310.08 529.78 292.34 547.53 274.59 565.28 256.83 583.02 239.08 600.77 221.34 618.53" style="fill:none;stroke:#000;stroke-miterlimit:10;stroke-width:2px"/><polyline points="641.99 233.37 624.25 251.13 606.5 268.87 588.74 286.62 571 304.36 553.25 322.11 537.27 338.09 519.53 355.83 501.78 373.59 484.03 391.34 466.27 409.09 448.53 426.83 432.55 442.81 414.81 460.56 397.06 478.31 379.31 496.06 361.55 513.81 343.81 531.55 327.83 547.53 310.08 565.28 292.34 583.02 274.59 600.78 256.84 618.53 239.08 636.28" style="fill:none;stroke:#000;stroke-miterlimit:10;stroke-width:2px"/><polyline points="659.74 251.11 641.99 268.87 624.25 286.62 606.49 304.36 588.74 322.11 571 339.86 555.02 355.83 537.27 373.58 519.53 391.34 501.78 409.09 484.02 426.83 466.27 444.58 450.3 460.56 432.55 478.3 414.81 496.06 397.06 513.81 379.3 531.55 361.55 549.3 345.58 565.28 327.83 583.02 310.08 600.77 292.34 618.53 274.59 636.28 256.83 654.02" style="fill:none;stroke:#000;stroke-miterlimit:10;stroke-width:2px"/><polyline points="675.72 267.09 657.97 284.85 640.23 302.6 622.47 320.34 604.72 338.09 586.97 355.83 571 371.81 553.25 389.56 535.5 407.32 517.76 425.06 500 442.81 482.25 460.56 466.27 476.53 448.53 494.28 430.78 512.04 413.04 529.78 395.28 547.53 377.53 565.28 361.55 581.25 343.81 599 326.06 616.75 308.31 634.51 290.57 652.25 272.81 670" style="fill:none;stroke:#000;stroke-miterlimit:10;stroke-width:2px"/><polyline points="693.46 284.84 675.72 302.6 657.97 320.34 640.21 338.09 622.47 355.83 604.72 373.58 588.74 389.56 571 407.3 553.25 425.06 535.5 442.81 517.74 460.56 500 478.3 484.02 494.28 466.27 512.03 448.53 529.78 430.78 547.53 413.02 565.28 395.28 583.02 379.3 599 361.55 616.75 343.81 634.49 326.06 652.25 308.31 670 290.55 687.75" style="fill:none;stroke:#000;stroke-miterlimit:10;stroke-width:2px"/><polyline points="711.22 302.6 693.46 320.34 675.72 338.09 657.97 355.85 640.23 373.59 622.48 391.34 606.5 407.32 588.75 425.06 571 442.81 553.25 460.56 535.5 478.31 517.76 496.06 501.78 512.04 484.03 529.78 466.27 547.53 448.53 565.28 430.78 583.04 413.04 600.78 397.06 616.76 379.31 634.51 361.56 652.25 343.81 670 326.06 687.75 308.31 705.5" style="fill:none;stroke:#000;stroke-miterlimit:10;stroke-width:2px"/><polyline points="728.97 320.34 711.21 338.09 693.46 355.83 675.72 373.59 657.97 391.34 640.23 409.09 624.25 425.06 606.5 442.81 588.74 460.56 571 478.3 553.25 496.06 535.5 513.81 519.53 529.78 501.78 547.53 484.02 565.28 466.27 583.02 448.53 600.78 430.78 618.53 414.81 634.51 397.06 652.25 379.31 670 361.55 687.75 343.81 705.49 326.06 723.25" style="fill:none;stroke:#000;stroke-miterlimit:10;stroke-width:2px"/><polyline points="746.72 338.09 728.97 355.85 711.22 373.59 693.46 391.34 675.72 409.09 657.97 426.83 641.99 442.81 624.25 460.56 606.5 478.31 588.75 496.06 571 513.81 553.25 531.55 537.27 547.53 519.53 565.28 501.78 583.04 484.03 600.78 466.27 618.53 448.53 636.28 432.55 652.25 414.81 670 397.06 687.75 379.31 705.5 361.56 723.25 343.81 741" style="fill:none;stroke:#000;stroke-miterlimit:10;stroke-width:2px"/><polyline points="764.46 355.83 746.72 373.59 728.97 391.34 711.21 409.09 693.46 426.83 675.72 444.58 659.74 460.56 641.99 478.3 624.25 496.06 606.5 513.81 588.74 531.55 571 549.3 555.02 565.28 537.27 583.02 519.53 600.78 501.78 618.53 484.02 636.28 466.27 654.02 450.3 670 432.55 687.75 414.81 705.49 397.06 723.25 379.31 741 361.55 758.74" style="fill:none;stroke:#000;stroke-miterlimit:10;stroke-width:2px"/><polyline points="780.44 371.81 762.69 389.57 744.95 407.32 727.19 425.06 709.44 442.81 691.7 460.56 675.72 476.53 657.97 494.28 640.23 512.04 622.48 529.78 604.72 547.53 586.97 565.28 571 581.25 553.25 599 535.5 616.76 517.76 634.51 500 652.25 482.25 670 466.27 685.98 448.53 703.72 430.78 721.47 413.04 739.23 395.29 756.97 377.53 774.72" style="fill:none;stroke:#000;stroke-miterlimit:10;stroke-width:2px"/><polyline points="798.19 389.56 780.44 407.32 762.69 425.06 744.93 442.81 727.19 460.56 709.44 478.3 693.46 494.28 675.72 512.03 657.97 529.78 640.23 547.53 622.47 565.28 604.72 583.02 588.74 599 571 616.75 553.25 634.51 535.5 652.25 517.74 670 500 687.75 484.02 703.72 466.27 721.47 448.53 739.22 430.78 756.97 413.04 774.72 395.28 792.47" style="fill:none;stroke:#000;stroke-miterlimit:10;stroke-width:2px"/><polyline points="815.93 407.3 798.19 425.06 780.44 442.81 762.68 460.56 744.93 478.3 727.19 496.05 711.21 512.03 693.46 529.77 675.72 547.53 657.97 565.28 640.21 583.02 622.47 600.77 606.49 616.75 588.74 634.49 571 652.25 553.25 670 535.49 687.75 517.74 705.49 501.77 721.47 484.02 739.22 466.27 756.96 448.53 774.72 430.78 792.47 413.02 810.21" style="fill:none;stroke:#000;stroke-miterlimit:10;stroke-width:2px"/><polyline points="833.69 425.06 815.93 442.81 798.19 460.56 780.44 478.31 762.69 496.06 744.95 513.81 728.97 529.78 711.22 547.53 693.46 565.28 675.72 583.02 657.97 600.78 640.23 618.53 624.25 634.51 606.5 652.25 588.74 670 571 687.75 553.25 705.5 535.5 723.25 519.53 739.23 501.78 756.97 484.03 774.72 466.27 792.47 448.53 810.21 430.78 827.97" style="fill:none;stroke:#000;stroke-miterlimit:10;stroke-width:2px"/><polyline points="851.44 442.81 833.68 460.56 815.93 478.3 798.19 496.06 780.44 513.81 762.69 531.55 746.72 547.53 728.97 565.28 711.21 583.02 693.46 600.77 675.72 618.53 657.97 636.28 641.99 652.25 624.25 670 606.49 687.75 588.74 705.49 571 723.25 553.25 741 537.27 756.97 519.53 774.72 501.78 792.47 484.02 810.21 466.27 827.96 448.53 845.72" style="fill:none;stroke:#000;stroke-miterlimit:10;stroke-width:2px"/><polyline points="869.18 460.56 851.44 478.31 833.69 496.06 815.93 513.81 798.19 531.55 780.44 549.3 764.46 565.28 746.72 583.02 728.97 600.78 711.22 618.53 693.46 636.28 675.72 654.02 659.74 670 641.99 687.75 624.25 705.5 606.5 723.25 588.74 741 571 758.74 555.02 774.72 537.27 792.47 519.53 810.21 501.78 827.97 484.03 845.72 466.27 863.47" style="fill:none;stroke:#000;stroke-miterlimit:10;stroke-width:2px"/><polyline points="466.27 57.65 484.03 75.41 501.78 93.15 519.53 110.9 537.27 128.64 555.02 146.39 571 162.37 588.74 180.11 606.5 197.87 624.25 215.62 641.99 233.37 659.74 251.11 675.72 267.09 693.46 284.84 711.22 302.6 728.97 320.34 746.72 338.09 764.46 355.83 780.44 371.81 798.19 389.56 815.93 407.3 833.69 425.06 851.44 442.81 869.18 460.56" style="fill:none;stroke:#000;stroke-miterlimit:10;stroke-width:2px"/><polyline points="448.53 75.41 466.27 93.15 484.02 110.9 501.78 128.66 519.53 146.4 537.27 164.15 553.25 180.13 571 197.87 588.74 215.62 606.49 233.37 624.25 251.13 641.99 268.87 657.97 284.85 675.72 302.6 693.46 320.34 711.21 338.09 728.97 355.85 746.72 373.59 762.69 389.57 780.44 407.32 798.19 425.06 815.93 442.81 833.68 460.56 851.44 478.31" style="fill:none;stroke:#000;stroke-miterlimit:10;stroke-width:2px"/><polyline points="430.78 93.15 448.53 110.9 466.27 128.64 484.03 146.4 501.78 164.15 519.53 181.9 535.5 197.87 553.25 215.62 571 233.37 588.74 251.11 606.5 268.87 624.25 286.62 640.23 302.6 657.97 320.34 675.72 338.09 693.46 355.83 711.22 373.59 728.97 391.34 744.95 407.32 762.69 425.06 780.44 442.81 798.19 460.56 815.93 478.3 833.69 496.06" style="fill:none;stroke:#000;stroke-miterlimit:10;stroke-width:2px"/><polyline points="413.02 110.9 430.78 128.66 448.53 146.4 466.27 164.15 484.02 181.9 501.77 199.64 517.74 215.62 535.49 233.37 553.25 251.13 571 268.87 588.74 286.62 606.49 304.36 622.47 320.34 640.21 338.09 657.97 355.85 675.72 373.59 693.46 391.34 711.21 409.09 727.19 425.06 744.93 442.81 762.68 460.56 780.44 478.31 798.19 496.06 815.93 513.81" style="fill:none;stroke:#000;stroke-miterlimit:10;stroke-width:2px"/><polyline points="395.28 128.64 413.04 146.4 430.78 164.15 448.53 181.9 466.27 199.64 484.02 217.39 500 233.37 517.74 251.11 535.5 268.87 553.25 286.62 571 304.36 588.74 322.11 604.72 338.09 622.47 355.83 640.23 373.59 657.97 391.34 675.72 409.09 693.46 426.83 709.44 442.81 727.19 460.56 744.93 478.3 762.69 496.06 780.44 513.81 798.19 531.55" style="fill:none;stroke:#000;stroke-miterlimit:10;stroke-width:2px"/><polyline points="377.53 146.39 395.29 164.15 413.04 181.9 430.78 199.64 448.53 217.39 466.27 235.13 482.25 251.11 500 268.86 517.76 286.62 535.5 304.36 553.25 322.11 571 339.86 586.97 355.83 604.72 373.58 622.48 391.34 640.23 409.09 657.97 426.83 675.72 444.58 691.7 460.56 709.44 478.3 727.19 496.05 744.95 513.81 762.69 531.55 780.44 549.3" style="fill:none;stroke:#000;stroke-miterlimit:10;stroke-width:2px"/><polyline points="361.55 162.37 379.31 180.13 397.06 197.87 414.81 215.62 432.55 233.37 450.3 251.11 466.27 267.09 484.02 284.84 501.78 302.6 519.53 320.34 537.27 338.09 555.02 355.83 571 371.81 588.74 389.56 606.5 407.32 624.25 425.06 641.99 442.81 659.74 460.56 675.72 476.53 693.46 494.28 711.21 512.03 728.97 529.78 746.72 547.53 764.46 565.28" style="fill:none;stroke:#000;stroke-miterlimit:10;stroke-width:2px"/><polyline points="343.81 180.11 361.56 197.87 379.31 215.62 397.06 233.37 414.81 251.11 432.55 268.86 448.53 284.84 466.27 302.58 484.03 320.34 501.78 338.09 519.53 355.83 537.27 373.58 553.25 389.56 571 407.3 588.75 425.06 606.5 442.81 624.25 460.56 641.99 478.3 657.97 494.28 675.72 512.03 693.46 529.77 711.22 547.53 728.97 565.28 746.72 583.02" style="fill:none;stroke:#000;stroke-miterlimit:10;stroke-width:2px"/><polyline points="326.06 197.87 343.81 215.62 361.55 233.37 379.31 251.13 397.06 268.87 414.81 286.62 430.78 302.6 448.53 320.34 466.27 338.09 484.02 355.83 501.78 373.59 519.53 391.34 535.5 407.32 553.25 425.06 571 442.81 588.74 460.56 606.5 478.31 624.25 496.06 640.23 512.04 657.97 529.78 675.72 547.53 693.46 565.28 711.21 583.02 728.97 600.78" style="fill:none;stroke:#000;stroke-miterlimit:10;stroke-width:2px"/><polyline points="308.31 215.62 326.06 233.37 343.81 251.11 361.56 268.87 379.31 286.62 397.06 304.36 413.04 320.34 430.78 338.09 448.53 355.83 466.27 373.58 484.03 391.34 501.78 409.09 517.76 425.06 535.5 442.81 553.25 460.56 571 478.3 588.75 496.06 606.5 513.81 622.48 529.78 640.23 547.53 657.97 565.28 675.72 583.02 693.46 600.77 711.22 618.53" style="fill:none;stroke:#000;stroke-miterlimit:10;stroke-width:2px"/><polyline points="290.55 233.37 308.31 251.13 326.06 268.87 343.81 286.62 361.55 304.36 379.3 322.11 395.28 338.09 413.02 355.83 430.78 373.59 448.53 391.34 466.27 409.09 484.02 426.83 500 442.81 517.74 460.56 535.5 478.31 553.25 496.06 571 513.81 588.74 531.55 604.72 547.53 622.47 565.28 640.21 583.02 657.97 600.78 675.72 618.53 693.46 636.28" style="fill:none;stroke:#000;stroke-miterlimit:10;stroke-width:2px"/><polyline points="272.81 251.11 290.57 268.87 308.31 286.62 326.06 304.36 343.81 322.11 361.55 339.86 377.53 355.83 395.28 373.58 413.04 391.34 430.78 409.09 448.53 426.83 466.27 444.58 482.25 460.56 500 478.3 517.76 496.06 535.5 513.81 553.25 531.55 571 549.3 586.97 565.28 604.72 583.02 622.47 600.77 640.23 618.53 657.97 636.28 675.72 654.02" style="fill:none;stroke:#000;stroke-miterlimit:10;stroke-width:2px"/><polyline points="256.83 267.09 274.59 284.85 292.34 302.6 310.08 320.34 327.83 338.09 345.58 355.83 361.55 371.81 379.3 389.56 397.06 407.32 414.81 425.06 432.55 442.81 450.3 460.56 466.27 476.53 484.02 494.28 501.78 512.04 519.53 529.78 537.27 547.53 555.02 565.28 571 581.25 588.74 599 606.49 616.75 624.25 634.51 641.99 652.25 659.74 670" style="fill:none;stroke:#000;stroke-miterlimit:10;stroke-width:2px"/><polyline points="239.08 284.84 256.84 302.6 274.59 320.34 292.34 338.09 310.08 355.83 327.83 373.58 343.81 389.56 361.55 407.3 379.31 425.06 397.06 442.81 414.81 460.56 432.55 478.3 448.53 494.28 466.27 512.03 484.03 529.78 501.78 547.53 519.53 565.28 537.27 583.02 553.25 599 571 616.75 588.74 634.49 606.5 652.25 624.25 670 641.99 687.75" style="fill:none;stroke:#000;stroke-miterlimit:10;stroke-width:2px"/><polyline points="221.34 302.6 239.08 320.34 256.83 338.09 274.59 355.85 292.34 373.59 310.08 391.34 326.06 407.32 343.81 425.06 361.55 442.81 379.3 460.56 397.06 478.31 414.81 496.06 430.78 512.04 448.53 529.78 466.27 547.53 484.02 565.28 501.78 583.04 519.53 600.78 535.5 616.76 553.25 634.51 571 652.25 588.74 670 606.49 687.75 624.25 705.5" style="fill:none;stroke:#000;stroke-miterlimit:10;stroke-width:2px"/><polyline points="203.59 320.34 221.34 338.09 239.08 355.83 256.84 373.59 274.59 391.34 292.34 409.09 308.31 425.06 326.06 442.81 343.81 460.56 361.55 478.3 379.31 496.06 397.06 513.81 413.04 529.78 430.78 547.53 448.53 565.28 466.27 583.02 484.03 600.78 501.78 618.53 517.76 634.51 535.5 652.25 553.25 670 571 687.75 588.74 705.49 606.5 723.25" style="fill:none;stroke:#000;stroke-miterlimit:10;stroke-width:2px"/><polyline points="185.83 338.09 203.59 355.85 221.34 373.59 239.08 391.34 256.83 409.09 274.58 426.83 290.55 442.81 308.3 460.56 326.06 478.31 343.81 496.06 361.55 513.81 379.3 531.55 395.28 547.53 413.02 565.28 430.78 583.04 448.53 600.78 466.27 618.53 484.02 636.28 500 652.25 517.74 670 535.49 687.75 553.25 705.5 571 723.25 588.74 741" style="fill:none;stroke:#000;stroke-miterlimit:10;stroke-width:2px"/><polyline points="168.09 355.83 185.84 373.59 203.59 391.34 221.34 409.09 239.08 426.83 256.83 444.58 272.81 460.56 290.55 478.3 308.31 496.06 326.06 513.81 343.81 531.55 361.55 549.3 377.53 565.28 395.28 583.02 413.04 600.78 430.78 618.53 448.53 636.28 466.27 654.02 482.25 670 500 687.75 517.74 705.49 535.5 723.25 553.25 741 571 758.74" style="fill:none;stroke:#000;stroke-miterlimit:10;stroke-width:2px"/><polyline points="152.11 371.81 169.87 389.57 187.62 407.32 205.36 425.06 223.11 442.81 240.85 460.56 256.83 476.53 274.58 494.28 292.34 512.04 310.08 529.78 327.83 547.53 345.58 565.28 361.55 581.25 379.3 599 397.06 616.76 414.81 634.51 432.55 652.25 450.3 670 466.27 685.98 484.02 703.72 501.77 721.47 519.53 739.23 537.27 756.97 555.02 774.72" style="fill:none;stroke:#000;stroke-miterlimit:10;stroke-width:2px"/><polyline points="134.36 389.56 152.12 407.32 169.87 425.06 187.62 442.81 205.36 460.56 223.11 478.3 239.08 494.28 256.83 512.03 274.59 529.78 292.34 547.53 310.08 565.28 327.83 583.02 343.81 599 361.55 616.75 379.31 634.51 397.06 652.25 414.81 670 432.55 687.75 448.53 703.72 466.27 721.47 484.02 739.22 501.78 756.97 519.53 774.72 537.27 792.47" style="fill:none;stroke:#000;stroke-miterlimit:10;stroke-width:2px"/><polyline points="116.62 407.3 134.38 425.06 152.12 442.81 169.87 460.56 187.62 478.3 205.36 496.05 221.34 512.03 239.08 529.77 256.84 547.53 274.59 565.28 292.34 583.02 310.08 600.77 326.06 616.75 343.81 634.49 361.56 652.25 379.31 670 397.06 687.75 414.81 705.49 430.78 721.47 448.53 739.22 466.27 756.96 484.03 774.72 501.78 792.47 519.53 810.21" style="fill:none;stroke:#000;stroke-miterlimit:10;stroke-width:2px"/><polyline points="98.87 425.06 116.62 442.81 134.36 460.56 152.12 478.31 169.87 496.06 187.62 513.81 203.59 529.78 221.34 547.53 239.08 565.28 256.83 583.02 274.59 600.78 292.34 618.53 308.31 634.51 326.06 652.25 343.81 670 361.55 687.75 379.31 705.5 397.06 723.25 413.04 739.23 430.78 756.97 448.53 774.72 466.27 792.47 484.02 810.21 501.78 827.97" style="fill:none;stroke:#000;stroke-miterlimit:10;stroke-width:2px"/><polyline points="81.12 442.81 98.87 460.56 116.62 478.3 134.38 496.06 152.12 513.81 169.87 531.55 185.84 547.53 203.59 565.28 221.34 583.02 239.08 600.77 256.84 618.53 274.59 636.28 290.57 652.25 308.31 670 326.06 687.75 343.81 705.49 361.56 723.25 379.31 741 395.29 756.97 413.04 774.72 430.78 792.47 448.53 810.21 466.27 827.96 484.03 845.72" style="fill:none;stroke:#000;stroke-miterlimit:10;stroke-width:2px"/><polyline points="63.36 460.56 81.12 478.31 98.87 496.06 116.62 513.81 134.36 531.55 152.11 549.3 168.09 565.28 185.83 583.02 203.59 600.78 221.34 618.53 239.08 636.28 256.83 654.02 272.81 670 290.55 687.75 308.31 705.5 326.06 723.25 343.81 741 361.55 758.74 377.53 774.72 395.28 792.47 413.02 810.21 430.78 827.97 448.53 845.72 466.27 863.47" style="fill:none;stroke:#000;stroke-miterlimit:10;stroke-width:2px"/></g><g style="clip-path:url(#b)"><polyline points="356.67 -256.64 339.36 -238.46 322.04 -220.3 304.7 -202.13 287.39 -183.97 270.07 -165.8 254.48 -149.45 237.16 -131.29 219.84 -113.11 202.52 -94.94 185.19 -76.78 167.87 -58.62 152.28 -42.26 134.96 -24.1 117.64 -5.92 100.32 12.24 82.99 30.41 65.67 48.57 50.08 64.92 32.76 83.09 15.45 101.25 -1.87 119.43 -19.19 137.59 -36.52 155.76" style="fill:none;stroke:#000;stroke-miterlimit:10;stroke-width:2px"/><polyline points="374.85 -239.31 357.52 -221.14 340.2 -202.98 322.88 -184.8 305.56 -166.64 288.25 -148.47 272.65 -132.12 255.34 -113.95 238 -95.79 220.69 -77.63 203.37 -59.45 186.05 -41.29 170.46 -24.93 153.14 -6.77 135.81 11.4 118.49 29.56 101.17 47.74 83.85 65.9 68.26 82.25 50.94 100.42 33.62 118.58 16.29 136.75 -1.03 154.91 -18.35 173.09" style="fill:none;stroke:#000;stroke-miterlimit:10;stroke-width:2px"/><polyline points="393.01 -221.99 375.68 -203.82 358.37 -185.66 341.05 -167.48 323.73 -149.32 306.41 -131.15 290.82 -114.8 273.5 -96.64 256.17 -78.47 238.85 -60.31 221.53 -42.13 204.21 -23.97 188.62 -7.61 171.3 10.55 153.97 28.71 136.65 46.88 119.33 65.06 102.02 83.22 86.42 99.57 69.11 117.74 51.79 135.9 34.45 154.07 17.14 172.23 -0.18 190.41" style="fill:none;stroke:#000;stroke-miterlimit:10;stroke-width:2px"/><polyline points="411.18 -204.67 393.86 -186.49 376.54 -168.33 359.21 -150.16 341.89 -132 324.57 -113.83 308.98 -97.48 291.66 -79.32 274.35 -61.14 257.03 -42.98 239.69 -24.81 222.38 -6.65 206.78 9.71 189.47 27.87 172.15 46.05 154.83 64.21 137.5 82.37 120.18 100.54 104.59 116.89 87.27 135.06 69.95 153.22 52.63 171.4 35.31 189.56 17.98 207.73" style="fill:none;stroke:#000;stroke-miterlimit:10;stroke-width:2px"/><polyline points="429.34 -187.35 412.02 -169.17 394.71 -151.01 377.38 -132.84 360.06 -114.68 342.74 -96.52 327.15 -80.16 309.83 -62 292.51 -43.82 275.19 -25.66 257.86 -7.49 240.54 10.67 224.95 27.02 207.63 45.19 190.31 63.36 172.99 81.53 155.66 99.69 138.34 117.86 122.75 134.21 105.43 152.37 88.11 170.54 70.8 188.72 53.48 206.88 36.15 225.04" style="fill:none;stroke:#000;stroke-miterlimit:10;stroke-width:2px"/><polyline points="447.51 -170.03 430.19 -151.85 412.87 -133.69 395.54 -115.53 378.22 -97.36 360.9 -79.2 345.31 -62.84 327.99 -44.68 310.67 -26.5 293.36 -8.34 276.02 9.82 258.7 27.99 243.11 44.34 225.79 62.51 208.48 80.68 191.16 98.85 173.83 117.01 156.51 135.18 140.92 151.53 123.6 169.69 106.28 187.86 88.96 206.03 71.64 224.2 54.31 242.36" style="fill:none;stroke:#000;stroke-miterlimit:10;stroke-width:2px"/><polyline points="463.86 -154.44 446.54 -136.26 429.22 -118.1 411.89 -99.94 394.57 -81.77 377.25 -63.61 361.66 -47.25 344.35 -29.09 327.03 -10.91 309.71 7.25 292.38 25.42 275.06 43.58 259.47 59.93 242.15 78.1 224.83 96.28 207.51 114.44 190.18 132.6 172.86 150.77 157.27 167.12 139.95 185.28 122.63 203.45 105.31 221.63 88 239.79 70.66 257.95" style="fill:none;stroke:#000;stroke-miterlimit:10;stroke-width:2px"/><polyline points="482.02 -137.12 464.71 -118.94 447.39 -100.78 430.06 -82.62 412.74 -64.45 395.42 -46.29 379.83 -29.93 362.51 -11.77 345.19 6.41 327.87 24.57 310.54 42.73 293.22 60.9 277.63 77.25 260.31 95.42 242.99 113.59 225.68 131.76 208.34 149.92 191.03 168.09 175.43 184.44 158.12 202.6 140.8 220.77 123.48 238.94 106.16 257.11 88.83 275.27" style="fill:none;stroke:#000;stroke-miterlimit:10;stroke-width:2px"/><polyline points="500.2 -119.79 482.87 -101.63 465.55 -83.46 448.23 -65.28 430.92 -47.12 413.6 -28.96 398 -12.6 380.69 5.56 363.36 23.73 346.04 41.89 328.72 60.07 311.4 78.23 295.81 94.58 278.49 112.75 261.16 130.91 243.84 149.08 226.52 167.25 209.2 185.42 193.61 201.77 176.29 219.93 158.97 238.1 141.64 256.26 124.32 274.43 107 292.6" style="fill:none;stroke:#000;stroke-miterlimit:10;stroke-width:2px"/><polyline points="518.37 -102.47 501.04 -84.31 483.72 -66.14 466.4 -47.97 449.08 -29.8 431.76 -11.64 416.17 4.71 398.85 22.88 381.52 41.04 364.2 59.21 346.88 77.39 329.56 95.55 313.97 111.9 296.65 130.07 279.32 148.23 262 166.4 244.69 184.57 227.37 202.74 211.78 219.09 194.46 237.25 177.14 255.42 159.81 273.58 142.49 291.75 125.17 309.92" style="fill:none;stroke:#000;stroke-miterlimit:10;stroke-width:2px"/><polyline points="536.53 -85.15 519.21 -66.98 501.89 -48.81 484.56 -30.65 467.24 -12.48 449.93 5.68 434.33 22.03 417.01 40.2 399.7 58.37 382.38 76.54 365.05 94.7 347.73 112.87 332.14 129.22 314.82 147.38 297.5 165.56 280.18 183.73 262.85 201.89 245.53 220.05 229.94 236.41 212.62 254.57 195.3 272.74 177.98 290.91 160.66 309.08 143.33 327.24" style="fill:none;stroke:#000;stroke-miterlimit:10;stroke-width:2px"/><polyline points="554.69 -67.83 537.38 -49.66 520.06 -31.49 502.73 -13.33 485.41 4.83 468.09 23 452.5 39.35 435.18 57.52 417.86 75.69 400.54 93.86 383.21 112.02 365.89 130.19 350.3 146.54 332.98 164.7 315.66 182.88 298.35 201.04 281.01 219.21 263.69 237.37 248.1 253.73 230.78 271.89 213.47 290.05 196.15 308.23 178.83 326.39 161.5 344.56" style="fill:none;stroke:#000;stroke-miterlimit:10;stroke-width:2px"/><polyline points="571.05 -52.24 553.73 -34.07 536.41 -15.9 519.08 2.26 501.76 20.43 484.44 38.59 468.85 54.94 451.53 73.11 434.21 91.28 416.89 109.45 399.56 127.61 382.25 145.78 366.65 162.13 349.33 180.29 332.02 198.47 314.7 216.64 297.37 234.8 280.05 252.97 264.46 269.32 247.14 287.48 229.82 305.65 212.5 323.82 195.18 341.99 177.85 360.15" style="fill:none;stroke:#000;stroke-miterlimit:10;stroke-width:2px"/><polyline points="589.21 -34.92 571.89 -16.75 554.58 1.42 537.24 19.58 519.92 37.74 502.61 55.91 487.01 72.26 469.7 90.43 452.38 108.6 435.06 126.77 417.73 144.93 400.41 163.1 384.82 179.45 367.5 197.61 350.18 215.79 332.86 233.96 315.53 252.12 298.21 270.28 282.62 286.64 265.3 304.8 247.98 322.96 230.66 341.14 213.35 359.31 196.01 377.47" style="fill:none;stroke:#000;stroke-miterlimit:10;stroke-width:2px"/><polyline points="607.39 -17.59 590.06 0.57 572.74 18.73 555.42 36.91 538.1 55.08 520.78 73.24 505.19 89.59 487.87 107.76 470.54 125.92 453.22 144.09 435.9 162.26 418.59 180.43 403 196.78 385.68 214.94 368.35 233.11 351.03 251.27 333.71 269.45 316.39 287.61 300.8 303.97 283.48 322.13 266.16 340.3 248.83 358.46 231.51 376.62 214.19 394.8" style="fill:none;stroke:#000;stroke-miterlimit:10;stroke-width:2px"/><polyline points="625.55 -0.28 608.22 17.89 590.9 36.05 573.59 54.23 556.27 72.39 538.95 90.56 523.36 106.91 506.04 125.08 488.71 143.24 471.39 161.41 454.07 179.58 436.75 197.75 421.16 214.1 403.84 232.26 386.51 250.43 369.19 268.59 351.87 286.77 334.55 304.93 318.96 321.29 301.64 339.45 284.32 357.61 266.99 375.78 249.68 393.94 232.36 412.12" style="fill:none;stroke:#000;stroke-miterlimit:10;stroke-width:2px"/><polyline points="643.72 17.04 626.4 35.22 609.08 53.38 591.75 71.55 574.43 89.71 557.11 107.88 541.52 124.23 524.2 142.4 506.88 160.57 489.56 178.74 472.23 196.9 454.92 215.06 439.32 231.42 422 249.58 404.69 267.76 387.37 285.92 370.04 304.09 352.72 322.25 337.13 338.6 319.81 356.77 302.49 374.93 285.17 393.11 267.85 411.27 250.52 429.44" style="fill:none;stroke:#000;stroke-miterlimit:10;stroke-width:2px"/><polyline points="661.88 34.36 644.56 52.54 627.24 70.7 609.91 88.87 592.6 107.03 575.28 125.2 559.68 141.55 542.37 159.71 525.05 177.89 507.73 196.05 490.4 214.22 473.08 232.38 457.49 248.74 440.17 266.9 422.85 285.08 405.53 303.24 388.2 321.41 370.88 339.57 355.29 355.92 337.97 374.09 320.65 392.25 303.33 410.43 286.02 428.59 268.69 446.76" style="fill:none;stroke:#000;stroke-miterlimit:10;stroke-width:2px"/><polyline points="678.23 49.95 660.92 68.13 643.6 86.3 626.27 104.46 608.95 122.62 591.63 140.79 576.04 157.14 558.72 175.31 541.4 193.48 524.08 211.65 506.75 229.81 489.43 247.97 473.84 264.33 456.52 282.49 439.2 300.67 421.88 318.83 404.55 337 387.24 355.16 371.64 371.51 354.32 389.68 337.01 407.84 319.69 426.02 302.37 444.18 285.04 462.35" style="fill:none;stroke:#000;stroke-miterlimit:10;stroke-width:2px"/><polyline points="696.4 67.27 679.08 85.45 661.76 103.61 644.43 121.78 627.11 139.94 609.79 158.11 594.2 174.46 576.88 192.62 559.57 210.8 542.25 228.97 524.91 247.13 507.6 265.29 492 281.65 474.69 299.81 457.37 317.99 440.05 336.15 422.72 354.32 405.4 372.48 389.81 388.83 372.49 407 355.17 425.16 337.85 443.34 320.53 461.5 303.2 479.67" style="fill:none;stroke:#000;stroke-miterlimit:10;stroke-width:2px"/><polyline points="714.56 84.59 697.24 102.77 679.93 120.93 662.6 139.1 645.28 157.26 627.96 175.43 612.37 191.78 595.05 209.94 577.73 228.12 560.41 246.28 543.08 264.45 525.76 282.61 510.17 298.96 492.85 317.13 475.53 335.31 458.21 353.47 440.88 371.63 423.56 389.8 407.97 406.15 390.65 424.32 373.33 442.48 356.02 460.66 338.7 478.82 321.37 496.99" style="fill:none;stroke:#000;stroke-miterlimit:10;stroke-width:2px"/><polyline points="732.74 101.92 715.41 120.09 698.09 138.25 680.77 156.43 663.45 174.59 646.13 192.76 630.54 209.11 613.22 227.27 595.89 245.44 578.57 263.6 561.26 281.78 543.94 299.94 528.35 316.3 511.03 334.46 493.7 352.63 476.38 370.79 459.06 388.97 441.74 407.13 426.15 423.48 408.83 441.65 391.51 459.81 374.18 477.98 356.86 496.14 339.54 514.32" style="fill:none;stroke:#000;stroke-miterlimit:10;stroke-width:2px"/><polyline points="750.9 119.24 733.57 137.41 716.25 155.57 698.94 173.75 681.62 191.91 664.3 210.07 648.71 226.43 631.39 244.59 614.06 262.76 596.74 280.92 579.42 299.1 562.1 317.26 546.51 333.62 529.19 351.78 511.86 369.94 494.54 388.11 477.22 406.28 459.9 424.45 444.31 440.8 426.99 458.97 409.68 477.13 392.34 495.3 375.03 513.46 357.71 531.64" style="fill:none;stroke:#000;stroke-miterlimit:10;stroke-width:2px"/><polyline points="769.07 136.56 751.75 154.74 734.43 172.9 717.1 191.06 699.78 209.23 682.46 227.39 666.87 243.75 649.55 261.91 632.23 280.09 614.92 298.25 597.58 316.42 580.27 334.58 564.67 350.93 547.36 369.1 530.04 387.27 512.72 405.44 495.39 423.6 478.07 441.77 462.48 458.12 445.16 476.28 427.84 494.45 410.52 512.63 393.2 530.79 375.87 548.95" style="fill:none;stroke:#000;stroke-miterlimit:10;stroke-width:2px"/><polyline points="356.67 -256.64 374.85 -239.31 393.01 -221.99 411.18 -204.67 429.34 -187.35 447.51 -170.03 463.86 -154.44 482.02 -137.12 500.2 -119.79 518.37 -102.47 536.53 -85.15 554.69 -67.83 571.05 -52.24 589.21 -34.92 607.39 -17.59 625.55 -0.28 643.72 17.04 661.88 34.36 678.23 49.95 696.4 67.27 714.56 84.59 732.74 101.92 750.9 119.24 769.07 136.56" style="fill:none;stroke:#000;stroke-miterlimit:10;stroke-width:2px"/><polyline points="339.36 -238.46 357.52 -221.14 375.68 -203.82 393.86 -186.49 412.02 -169.17 430.19 -151.85 446.54 -136.26 464.71 -118.94 482.87 -101.63 501.04 -84.31 519.21 -66.98 537.38 -49.66 553.73 -34.07 571.89 -16.75 590.06 0.57 608.22 17.89 626.4 35.22 644.56 52.54 660.92 68.13 679.08 85.45 697.24 102.77 715.41 120.09 733.57 137.41 751.75 154.74" style="fill:none;stroke:#000;stroke-miterlimit:10;stroke-width:2px"/><polyline points="322.04 -220.3 340.2 -202.98 358.37 -185.66 376.54 -168.33 394.71 -151.01 412.87 -133.69 429.22 -118.1 447.39 -100.78 465.55 -83.46 483.72 -66.14 501.89 -48.81 520.06 -31.49 536.41 -15.9 554.58 1.42 572.74 18.73 590.9 36.05 609.08 53.38 627.24 70.7 643.6 86.3 661.76 103.61 679.93 120.93 698.09 138.25 716.25 155.57 734.43 172.9" style="fill:none;stroke:#000;stroke-miterlimit:10;stroke-width:2px"/><polyline points="304.7 -202.13 322.88 -184.8 341.05 -167.48 359.21 -150.16 377.38 -132.84 395.54 -115.53 411.89 -99.94 430.06 -82.62 448.23 -65.28 466.4 -47.97 484.56 -30.65 502.73 -13.33 519.08 2.26 537.24 19.58 555.42 36.91 573.59 54.23 591.75 71.55 609.91 88.87 626.27 104.46 644.43 121.78 662.6 139.1 680.77 156.43 698.94 173.75 717.1 191.06" style="fill:none;stroke:#000;stroke-miterlimit:10;stroke-width:2px"/><polyline points="287.39 -183.97 305.56 -166.64 323.73 -149.32 341.89 -132 360.06 -114.68 378.22 -97.36 394.57 -81.77 412.74 -64.45 430.92 -47.12 449.08 -29.8 467.24 -12.48 485.41 4.83 501.76 20.43 519.92 37.74 538.1 55.08 556.27 72.39 574.43 89.71 592.6 107.03 608.95 122.62 627.11 139.94 645.28 157.26 663.45 174.59 681.62 191.91 699.78 209.23" style="fill:none;stroke:#000;stroke-miterlimit:10;stroke-width:2px"/><polyline points="270.07 -165.8 288.25 -148.47 306.41 -131.15 324.57 -113.83 342.74 -96.52 360.9 -79.2 377.25 -63.61 395.42 -46.29 413.6 -28.96 431.76 -11.64 449.93 5.68 468.09 23 484.44 38.59 502.61 55.91 520.78 73.24 538.95 90.56 557.11 107.88 575.28 125.2 591.63 140.79 609.79 158.11 627.96 175.43 646.13 192.76 664.3 210.07 682.46 227.39" style="fill:none;stroke:#000;stroke-miterlimit:10;stroke-width:2px"/><polyline points="254.48 -149.45 272.65 -132.12 290.82 -114.8 308.98 -97.48 327.15 -80.16 345.31 -62.84 361.66 -47.25 379.83 -29.93 398 -12.6 416.17 4.71 434.33 22.03 452.5 39.35 468.85 54.94 487.01 72.26 505.19 89.59 523.36 106.91 541.52 124.23 559.68 141.55 576.04 157.14 594.2 174.46 612.37 191.78 630.54 209.11 648.71 226.43 666.87 243.75" style="fill:none;stroke:#000;stroke-miterlimit:10;stroke-width:2px"/><polyline points="237.16 -131.29 255.34 -113.95 273.5 -96.64 291.66 -79.32 309.83 -62 327.99 -44.68 344.35 -29.09 362.51 -11.77 380.69 5.56 398.85 22.88 417.01 40.2 435.18 57.52 451.53 73.11 469.7 90.43 487.87 107.76 506.04 125.08 524.2 142.4 542.37 159.71 558.72 175.31 576.88 192.62 595.05 209.94 613.22 227.27 631.39 244.59 649.55 261.91" style="fill:none;stroke:#000;stroke-miterlimit:10;stroke-width:2px"/><polyline points="219.84 -113.11 238 -95.79 256.17 -78.47 274.35 -61.14 292.51 -43.82 310.67 -26.5 327.03 -10.91 345.19 6.41 363.36 23.73 381.52 41.04 399.7 58.37 417.86 75.69 434.21 91.28 452.38 108.6 470.54 125.92 488.71 143.24 506.88 160.57 525.05 177.89 541.4 193.48 559.57 210.8 577.73 228.12 595.89 245.44 614.06 262.76 632.23 280.09" style="fill:none;stroke:#000;stroke-miterlimit:10;stroke-width:2px"/><polyline points="202.52 -94.94 220.69 -77.63 238.85 -60.31 257.03 -42.98 275.19 -25.66 293.36 -8.34 309.71 7.25 327.87 24.57 346.04 41.89 364.2 59.21 382.38 76.54 400.54 93.86 416.89 109.45 435.06 126.77 453.22 144.09 471.39 161.41 489.56 178.74 507.73 196.05 524.08 211.65 542.25 228.97 560.41 246.28 578.57 263.6 596.74 280.92 614.92 298.25" style="fill:none;stroke:#000;stroke-miterlimit:10;stroke-width:2px"/><polyline points="185.19 -76.78 203.37 -59.45 221.53 -42.13 239.69 -24.81 257.86 -7.49 276.02 9.82 292.38 25.42 310.54 42.73 328.72 60.07 346.88 77.39 365.05 94.7 383.21 112.02 399.56 127.61 417.73 144.93 435.9 162.26 454.07 179.58 472.23 196.9 490.4 214.22 506.75 229.81 524.91 247.13 543.08 264.45 561.26 281.78 579.42 299.1 597.58 316.42" style="fill:none;stroke:#000;stroke-miterlimit:10;stroke-width:2px"/><polyline points="167.87 -58.62 186.05 -41.29 204.21 -23.97 222.38 -6.65 240.54 10.67 258.7 27.99 275.06 43.58 293.22 60.9 311.4 78.23 329.56 95.55 347.73 112.87 365.89 130.19 382.25 145.78 400.41 163.1 418.59 180.43 436.75 197.75 454.92 215.06 473.08 232.38 489.43 247.97 507.6 265.29 525.76 282.61 543.94 299.94 562.1 317.26 580.27 334.58" style="fill:none;stroke:#000;stroke-miterlimit:10;stroke-width:2px"/><polyline points="152.28 -42.26 170.46 -24.93 188.62 -7.61 206.78 9.71 224.95 27.02 243.11 44.34 259.47 59.93 277.63 77.25 295.81 94.58 313.97 111.9 332.14 129.22 350.3 146.54 366.65 162.13 384.82 179.45 403 196.78 421.16 214.1 439.32 231.42 457.49 248.74 473.84 264.33 492 281.65 510.17 298.96 528.35 316.3 546.51 333.62 564.67 350.93" style="fill:none;stroke:#000;stroke-miterlimit:10;stroke-width:2px"/><polyline points="134.96 -24.1 153.14 -6.77 171.3 10.55 189.47 27.87 207.63 45.19 225.79 62.51 242.15 78.1 260.31 95.42 278.49 112.75 296.65 130.07 314.82 147.38 332.98 164.7 349.33 180.29 367.5 197.61 385.68 214.94 403.84 232.26 422 249.58 440.17 266.9 456.52 282.49 474.69 299.81 492.85 317.13 511.03 334.46 529.19 351.78 547.36 369.1" style="fill:none;stroke:#000;stroke-miterlimit:10;stroke-width:2px"/><polyline points="117.64 -5.92 135.81 11.4 153.97 28.71 172.15 46.05 190.31 63.36 208.48 80.68 224.83 96.28 242.99 113.59 261.16 130.91 279.32 148.23 297.5 165.56 315.66 182.88 332.02 198.47 350.18 215.79 368.35 233.11 386.51 250.43 404.69 267.76 422.85 285.08 439.2 300.67 457.37 317.99 475.53 335.31 493.7 352.63 511.86 369.94 530.04 387.27" style="fill:none;stroke:#000;stroke-miterlimit:10;stroke-width:2px"/><polyline points="100.32 12.24 118.49 29.56 136.65 46.88 154.83 64.21 172.99 81.53 191.16 98.85 207.51 114.44 225.68 131.76 243.84 149.08 262 166.4 280.18 183.73 298.35 201.04 314.7 216.64 332.86 233.96 351.03 251.27 369.19 268.59 387.37 285.92 405.53 303.24 421.88 318.83 440.05 336.15 458.21 353.47 476.38 370.79 494.54 388.11 512.72 405.44" style="fill:none;stroke:#000;stroke-miterlimit:10;stroke-width:2px"/><polyline points="82.99 30.41 101.17 47.74 119.33 65.06 137.5 82.37 155.66 99.69 173.83 117.01 190.18 132.6 208.34 149.92 226.52 167.25 244.69 184.57 262.85 201.89 281.01 219.21 297.37 234.8 315.53 252.12 333.71 269.45 351.87 286.77 370.04 304.09 388.2 321.41 404.55 337 422.72 354.32 440.88 371.63 459.06 388.97 477.22 406.28 495.39 423.6" style="fill:none;stroke:#000;stroke-miterlimit:10;stroke-width:2px"/><polyline points="65.67 48.57 83.85 65.9 102.02 83.22 120.18 100.54 138.34 117.86 156.51 135.18 172.86 150.77 191.03 168.09 209.2 185.42 227.37 202.74 245.53 220.05 263.69 237.37 280.05 252.97 298.21 270.28 316.39 287.61 334.55 304.93 352.72 322.25 370.88 339.57 387.24 355.16 405.4 372.48 423.56 389.8 441.74 407.13 459.9 424.45 478.07 441.77" style="fill:none;stroke:#000;stroke-miterlimit:10;stroke-width:2px"/><polyline points="50.08 64.92 68.26 82.25 86.42 99.57 104.59 116.89 122.75 134.21 140.92 151.53 157.27 167.12 175.43 184.44 193.61 201.77 211.78 219.09 229.94 236.41 248.1 253.73 264.46 269.32 282.62 286.64 300.8 303.97 318.96 321.29 337.13 338.6 355.29 355.92 371.64 371.51 389.81 388.83 407.97 406.15 426.15 423.48 444.31 440.8 462.48 458.12" style="fill:none;stroke:#000;stroke-miterlimit:10;stroke-width:2px"/><polyline points="32.76 83.09 50.94 100.42 69.11 117.74 87.27 135.06 105.43 152.37 123.6 169.69 139.95 185.28 158.12 202.6 176.29 219.93 194.46 237.25 212.62 254.57 230.78 271.89 247.14 287.48 265.3 304.8 283.48 322.13 301.64 339.45 319.81 356.77 337.97 374.09 354.32 389.68 372.49 407 390.65 424.32 408.83 441.65 426.99 458.97 445.16 476.28" style="fill:none;stroke:#000;stroke-miterlimit:10;stroke-width:2px"/><polyline points="15.45 101.25 33.62 118.58 51.79 135.9 69.95 153.22 88.11 170.54 106.28 187.86 122.63 203.45 140.8 220.77 158.97 238.1 177.14 255.42 195.3 272.74 213.47 290.05 229.82 305.65 247.98 322.96 266.16 340.3 284.32 357.61 302.49 374.93 320.65 392.25 337.01 407.84 355.17 425.16 373.33 442.48 391.51 459.81 409.68 477.13 427.84 494.45" style="fill:none;stroke:#000;stroke-miterlimit:10;stroke-width:2px"/><polyline points="-1.87 119.43 16.29 136.75 34.45 154.07 52.63 171.4 70.8 188.72 88.96 206.03 105.31 221.63 123.48 238.94 141.64 256.26 159.81 273.58 177.98 290.91 196.15 308.23 212.5 323.82 230.66 341.14 248.83 358.46 266.99 375.78 285.17 393.11 303.33 410.43 319.69 426.02 337.85 443.34 356.02 460.66 374.18 477.98 392.34 495.3 410.52 512.63" style="fill:none;stroke:#000;stroke-miterlimit:10;stroke-width:2px"/><polyline points="-19.19 137.59 -1.03 154.91 17.14 172.23 35.31 189.56 53.48 206.88 71.64 224.2 88 239.79 106.16 257.11 124.32 274.43 142.49 291.75 160.66 309.08 178.83 326.39 195.18 341.99 213.35 359.31 231.51 376.62 249.68 393.94 267.85 411.27 286.02 428.59 302.37 444.18 320.53 461.5 338.7 478.82 356.86 496.14 375.03 513.46 393.2 530.79" style="fill:none;stroke:#000;stroke-miterlimit:10;stroke-width:2px"/><polyline points="-36.52 155.76 -18.35 173.09 -0.18 190.41 17.98 207.73 36.15 225.04 54.31 242.36 70.66 257.95 88.83 275.27 107 292.6 125.17 309.92 143.33 327.24 161.5 344.56 177.85 360.15 196.01 377.47 214.19 394.8 232.36 412.12 250.52 429.44 268.69 446.76 285.04 462.35 303.2 479.67 321.37 496.99 339.54 514.32 357.71 531.64 375.87 548.95" style="fill:none;stroke:#000;stroke-miterlimit:10;stroke-width:2px"/></g><polygon points="1346.04 244.75 1472.7 232.96 1461.62 297.21 1590.5 297.21 1582.16 344.7 1323.06 376.18 1346.04 244.75" style="fill:#e6e6e6"/><polygon points="1589.31 298.21 1581.3 343.79 1324.28 375.02 1346.89 245.67 1471.49 234.07 1460.43 298.21 1589.31 298.21" style="fill:#e6e6e6"/><polygon points="970.07 279.74 1095.7 268.05 1095.28 270.48 1096.75 267.89 1097.33 267.89 1218.58 256.61 1184.59 309.73 1200.72 391.05 945.18 422.1 970.07 279.74" style="fill:#e6e6e6"/><polygon points="1183.53 309.53 1199.53 390.18 946.4 420.94 970.92 280.66 1094.49 269.16 1093.31 275.94 1097.33 268.89 1097.34 268.89 1216.63 257.79 1183.53 309.53" style="fill:#e6e6e6"/><polygon points="341.61 338.23 549.67 318.86 554.66 371.91 564.13 317.52 691.45 305.67 665.15 456.12 476.04 479.1 463.82 341.43 439.12 483.59 313.52 498.84 341.61 338.23" style="fill:#e6e6e6"/><polygon points="690.24 306.78 664.29 455.21 476.94 477.98 464.14 333.74 438.26 482.68 314.74 497.68 342.46 339.15 548.77 319.95 554.36 379.44 564.98 318.44 690.24 306.78" style="fill:#e6e6e6"/><path d="M607.86,72.08l-6.54,37.59h0l-2.24,12.87-.07.38-2.88,16.57-6.49,37.25-1.53,8.8-.53,3.07-.25,1.39-6.93,39.83L577.94,244l-.06.34-4,22.72h0l-.42,2.4h0l-8.34,47.95-.18,1,.74-.07,28.69-2.67,37.48-3.49,10.93-1,47.42-4.41.18-1,10.33-59.08,1.82-10.45v-.06l1.59-9.09h0l1.69-9.67h0L708,204.94h0l1.26-7.15h0l1.85-10.59,20.12-115.1Zm23.4,239.19L593,314.83h0l-25.2,2.35c-.68.37-1.36.77-2,1.19l28.69-2.67,37.48-3.49Zm0,0L593,314.83h0l-25.2,2.35c-.68.37-1.36.77-2,1.19l28.69-2.67,37.48-3.49ZM632.79,459h0l-14.26,1.73h0l-93.1,11.32-2.18.27-6.07.73L508,474.21l-.31,0L476.94,478l.09,1,5.94,67,.1,1.07.08,1,2.18,24.5.36,4h0l1.78,20.09h0l1,11.19h0l3.19,35.93v0l.21,2.41h139l.7-4,.13-.78,2.85-16.3.82-4.7,2.47-14.11,26.24-150.06.18-1Zm-.9-146.83-.63-.94L593,314.83h0l-25.2,2.35c-.68.37-1.36.77-2,1.19l28.69-2.67Zm-.63-.94L593,314.83h0l-25.2,2.35c-.68.37-1.36.77-2,1.19l28.69-2.67,37.48-3.49ZM548.68,319l-.1-1h0l-2.78-29.61h0l0-.17-4.37-46.49h0l-3.56-37.87-1.63-17.29h0l-.47-5-.34-3.6-.07-.8h0l-.09-1-1.69-17.94-6.61-70.34-.23-2.42-1-10.62-.25-2.67H389.16l-.59,3.35-4.69,26.87-1.44,8.23-5.43,31h0l-2.48,14.18-1.3,7.41L371.34,174l-.67,3.81-7.61,43.53L351.6,286.86l-2.1,12h0l-3.28,18.77-1.71,9.77h0l-1.87,10.68-.18,1,7.17-.67,24.67-2.29h0l2.91-.27,13.41-1.25h0l7.48-.7,11.31-1.05L533,321.41l12.26-1.14,2.59-.24.89-.08ZM314.74,497.68l-.18,1-3.19,18.24-1.64,9.39-.88,5,0,.27-.94,5.38-12.93,74-6.16,35.23H409.85l12.56-72.26,3-17.53.3-1.72.2-1.14.13-.76,12-69.06.18-1Z" style="fill:#fff"/><path d="M807.82,72.08,805.7,84.21l-.64,3.66-.54,3.06L785.07,202.19l-7.16,41-9.68,55.37-.18,1,83.4-7.76,20.1-1.87h0l21.7-2,.18-1,.28-1.64,8.78-50.4h0l.13-.77h0l.8-4.64,5.84-33.53,15-86,4.11-23.6,2.48-14.24ZM743.19,445.63l-.69.08-.18,1-1.89,10.81v0l-32.52,186-.46,2.61H830.86l37.4-214.74.18-1Z" style="fill:#fff"/><path d="M1209.7,72.08l-29.41,51.51L1131.55,209l-33.61,58.86-.6,1.06,83.53-7.77h0l35.75-3.33.69-1.07L1261,188.39h0l42.51-66.45,17.72-27.68,6-9.42h0l8.15-12.74Zm12,429.81-22-110.72h0l-.19-1-1,.13h0l-155.1,18.84-97,11.79-.18,1L907,646.18h121.46l29.68-170.28,4.4-6.38,29.58-42.83,7.52,50.89,24.9,168.6h125.75ZM1007.39,72.08l-2.31,13.22-2.85,16.28-17.34,99.17-11.54,66-2.25,12.88-.18,1,2.11-.2,121.46-11.3.18-1,13.4-76.87,14.58-83.64,6.2-35.55Z" style="fill:#fff"/><path d="M1377.24,72.08l-15.65,89.52-14.52,83.05-.18,1,23.67-2.2,100.93-9.4.17-1h0l10.24-59.43h143.72l7.81-45.15,5.12-29.56,4.64-26.83Zm43.07,291.27h0l-96,11.67-.18,1-3.16,18.06-21.26,121.65h0l-22.8,130.43h281.58l5-28.72,4.3-24.46,7-39.63,1.67-9.51h-159l1.66-9.52,20.39-116.93,2.94-16.88h128.88l.76-4.33,7-40h0l2-11.39.18-1Z" style="fill:#fff"/><path d="M635.59,134.67c-.25-.16-5.18-3.25-17.08-1.65-15.66,2.11-43.39,12.36-88.35,48.14-3,2.43-6.17,5-9.39,7.65C486.83,217,443.84,259,389.9,321.14l-2.38,2.75-1.9,2.2-3.29,3.84q-3,3.52-6,7c-94,111-141.17,196.75-164.8,254q-3.13,7.53-5.7,14.42-6.54-6.51-12.68-13.39c1.44-3.79,3.2-8.25,5.31-13.34,18.52-44.62,64-137.47,157.89-248.2q3.6-4.26,7.3-8.56l6.46-7.41c1.47-1.67,2.94-3.35,4.43-5A1389.61,1389.61,0,0,1,508,178.36l2-1.75q3.74-3.21,7.5-6.26c27.07-22,54.59-37.49,82.16-47.67q7-2.61,14.07-4.74Q625,125.83,635.59,134.67Z"/><path d="M703.5,545.51q-3.71,6.07-7.69,12a352,352,0,0,0,1.36-50.69c-3-67.52-26.24-155.41-103.6-245.21q-3.17-3.68-6.32-7.24-4.59-5.21-9.16-10.19a621.78,621.78,0,0,0-57.32-55.34q-6.43-5.44-12.78-10.45A434.73,434.73,0,0,0,447.63,138q-5.43-3-10.75-5.67c-57.76-29.27-105-33.59-135.2-31.81-22.38,1.32-35.37,6-36.28,6.33Q275,101,285,95.81q14.49-1.26,29.25-1.28a302.75,302.75,0,0,1,133.32,30.24q5.18,2.51,10.36,5.26a345.08,345.08,0,0,1,59.58,40.32q6.47,5.4,12.64,10.81a651.81,651.81,0,0,1,57,56.07q4.49,5,8.77,10.05C676.53,341.64,699.77,431,704.07,493.16h0A317.6,317.6,0,0,1,703.5,545.51Z"/><path d="M735.17,282.84h0a146.31,146.31,0,0,0-30.58-33.26c-16.6-13.09-39.18-24.12-65.69-19.87a97.89,97.89,0,0,0-51.64,24.63c-19.18,17.5-33.54,43.77-43.39,78.73q-2.55,9-4.69,18.83c-.18.83-.36,1.65-.54,2.49q-2.42,11.46-4.32,24c0,.37-.11.75-.16,1.12l-.06.36c-1.81,12.22-3.23,23-4.39,32.79-.42,3.44-.8,6.75-1.16,9.95-6.17,55.27-5.34,78.52-32,161.9-14.17,44.39-30.91,76.29-45.28,98.18-3.91,6-7.65,11.18-11.12,15.7q-4.53.14-9.1.13c-2.64,0-5.28,0-7.91-.1,3.43-4.09,7.26-9,11.35-14.72,26.73-37.49,64.68-111.24,76.23-237.27q1.54-17,3.47-32.17c.4-3.25.82-6.42,1.25-9.55,1.46-10.68,3.06-20.68,4.76-30.06a.11.11,0,0,0,0-.08q1.66-9.07,3.46-17.37c.23-1.1.48-2.18.71-3.25q1.29-5.75,2.64-11.15c13.71-54.87,32.22-82.51,51.05-98.61a104.66,104.66,0,0,1,9-6.92c13-8.85,25.76-13.41,36.89-18.85,22.55-11,48.79-1.93,74,14.76A264.52,264.52,0,0,1,724,253,316.58,316.58,0,0,1,735.17,282.84Z"/><path d="M476,112.17A148.56,148.56,0,0,1,457.94,130q-4.8,4-10.31,7.94c-26.23,18.74-65.74,36.92-134.88,62.26q-4.49,1.65-9.14,3.33-16.75,6.06-35.76,12.7-7.07,2.46-13.78,5.2h0q-8,3.22-15.59,6.81A286.23,286.23,0,0,0,131.41,315.5h0a284.33,284.33,0,0,0-17,25.33q1-7.9,2.29-15.69a254,254,0,0,1,20.46-31.52h0C164,258.43,200,231.22,245.9,213.43c2.88-1.12,5.61-2.18,8.19-3.16,12.52-4.79,21.47-8.1,28.51-10.63h0l5.91-2.11h0c6.62-2.33,11.52-4,16.9-6h0c14.65-5.35,32.83-12.89,98.34-41.85a245.46,245.46,0,0,0,33.08-17.4c4-2.54,7.52-5.05,10.7-7.53,23.69-18.42,26.59-34.76,23.91-46.14a33.34,33.34,0,0,0-9.68-16.69c5.39.51,10.73,1.17,16,1.94,3.65,3.18,8.35,8.59,9.88,16.15C489.39,88.23,487.3,99,476,112.17Z"/><path d="M622.51,460.85c-14.67.36-36.62-6.59-67.88-23.66q-13.78-7.53-26.09-14.62-7.41-4.26-14.34-8.35c-59.57-35.14-94.74-61.3-137.85-77.28-6.44-2.39-13.07-4.55-20-6.48-17.44-4.87-36.68-8.26-59.49-10.11-32.5-2.64-58.38-8.23-72.67-18.52-11.45-8.22-15.45-19.46-9.47-34.59,3.89-9.82,12.71-24.71,23.73-39a200,200,0,0,1,15.62-18c17.65-17.91,37.36-29.55,51.36-18.72h0a29.36,29.36,0,0,1,7.29,8.68,67.72,67.72,0,0,1,6.79,18.15c8.33,34.72,9.85,40.16,22.59,56.38l.78,1s10.71,16.16,31.65,33.72c4.61,3.88,9.73,7.83,15.34,11.68a179.41,179.41,0,0,0,82.59,31.08,100.44,100.44,0,0,0,27.3-.64A98.53,98.53,0,0,0,527,342.76a149.93,149.93,0,0,0,16.82-9.69c29-19,44.85-38.65,71,7.82C646,396.3,665.42,459.83,622.51,460.85Z"/><path d="M618.36,445.69v4.95a25.07,25.07,0,0,1-1.29,4.42c-4.72-1.47-10.39-3.62-13.58-4.42-5.67-1.41-9.92-3.54-14.17-4.95s-22.65-9.21-26.19-11.33-8.5-6.38-17.71-12-9.91-7.08-17.7-10.62-22-13.46-28.32-17.71-12.75-6.37-22-11.33-19.82-11.33-26.2-14.87-21.95-12-28.32-15.57-12.74-6.38-37.53-20.54-13.45-7.08-24.78-10.62-20.54-4.25-35.41-6.37-27.61-4.25-37.53-5-34-6.37-51-11.33c-4.77-1.39-8-2.95-10.22-4.69-5.58-4.41-4.06-9.93-2.53-16.55,2.13-9.21,8.5-29.74,13.46-35.41s13.45-17,21.24-25.49,17-13.45,24.78-17,11.25-1.85,17.71,0c4.95,1.41.71,5.66,2.83,12.74s1.42,11.33,3.54,14.16c1.64,2.19,2.85,8.14,4.94,14a48.38,48.38,0,0,0,2.14,5.12c3.54,7.08,7.08,13.46,11.33,24.08s7.08,12,8.5,14.16S352.11,302.65,362,309s12,8.5,20.54,14.87,14.16,8.5,19.12,12.75,26.2,10.62,33.28,12.74,22.66,5.67,34,6.38l2.09.11h0c8.71,2.32,17.93,4.14,25.52,4.14,21.25,0,29.74-4.25,42.49-5.67s12.75-1.42,14.87-2.83-2.83-5,5.66-2.13,9.92,5.67,13.46,4.25,6.37-4.25,7.79-5.66a11.4,11.4,0,0,1,11.33-3.54c6.37,1.41,12,4.95,12.74,6.37S607,366.38,607,369.21s-1.42,8.5-1.42,10.62-.71,5.67-.71,7.79v5c0,1.41,2.13,2.12,2.13,3.54s4.25,3.54,4.25,3.54h1.41s2.13,2.83,2.83,8.5,0,15.57,0,17.7-2.12,1.42,0,8.5S618.36,442.85,618.36,445.69Z"/><path d="M630.39,452.77c-2.12,4.25-3.54,2.12-5.66,3.54a2.53,2.53,0,0,1-1.48.21c2.44-16.22,1.77-37.08-7-61.11,0,0-8.49-1.42-9.2-3.54s4.25-12.75,4.25-12.75,0-29.74-8.5-38.23c0,0-4.25-5.67-17.7-3.54s-13.46,10.62-17,9.91c-2.14-.43-4.28-2.68-7.69-4.38,9.12-5.12,21.48-13.84,31.77-16.86,12-3.54,4.25,1.41,6.37.7s12,20.54,15.58,32.58,7.79,21.95,13.45,37.53,2.13,14.16,5,30.45S632.52,448.52,630.39,452.77Z"/><path d="M618.36,445.69v4.95a25.07,25.07,0,0,1-1.29,4.42c-4.72-1.47-10.39-3.62-13.58-4.42-5.67-1.41-9.92-3.54-14.17-4.95s-22.65-9.21-26.19-11.33-8.5-6.38-17.71-12-9.91-7.08-17.7-10.62-22-13.46-28.32-17.71-12.75-6.37-22-11.33-19.82-11.33-26.2-14.87-21.95-12-28.32-15.57-12.74-6.38-37.53-20.54-13.45-7.08-24.78-10.62-20.54-4.25-35.41-6.37-27.61-4.25-37.53-5-34-6.37-51-11.33a37.38,37.38,0,0,1-7.89-3.14,46.28,46.28,0,0,1,2.93-9.61c2.13-4.24,7.79-11.33,8.5-13.45s-3.54-2.12,5.67-8.5,16.28-8.49,17-9.2,1.42-2.83,2.83-4.25,0-5.67,0-8.5-1.41-4.25.71-6.37,7.08-5.67,11.33-9.21,9.91-7.79,9.91-7.79,9.21.71,16.29,19.12,12.75,21.25,14.16,23.37a55.87,55.87,0,0,1,5.67,11.33c.52,1.58,4.29,5.32,9.17,9.57a19,19,0,0,1,1.45,1.76c1.41,2.12,17.7,19.12,27.61,25.49s12,8.5,20.54,14.87,14.16,8.5,19.12,12.75,26.2,10.62,33.28,12.74,22.66,5.67,34,6.38l2.09.11h0c8.71,2.32,17.93,4.14,25.52,4.14,21.25,0,29.74-4.25,42.49-5.67s12.75-1.42,14.87-2.83-2.83-5,5.66-2.13,9.92,5.67,13.46,4.25,6.37-4.25,7.79-5.66a11.4,11.4,0,0,1,11.33-3.54c6.37,1.41,12,4.95,12.74,6.37S607,366.38,607,369.21s-1.42,8.5-1.42,10.62-.71,5.67-.71,7.79v5c0,1.41,2.13,2.12,2.13,3.54s4.25,3.54,4.25,3.54h1.41s2.13,2.83,2.83,8.5,0,15.57,0,17.7-2.12,1.42,0,8.5S618.36,442.85,618.36,445.69Z" style="fill:#eb292c"/><path d="M333,281.77c-4.88-4.25-8.65-8-9.17-9.57a55.87,55.87,0,0,0-5.67-11.33c-1.41-2.12-7.08-5-14.16-23.37s-16.29-19.12-16.29-19.12-5.66,4.25-9.91,7.79-9.21,7.09-11.33,9.21-.71,3.54-.71,6.37,1.42,7.08,0,8.5-2.12,3.54-2.83,4.25-7.79,2.83-17,9.2-5,6.38-5.67,8.5-6.37,9.21-8.5,13.45a46.28,46.28,0,0,0-2.93,9.61,18.47,18.47,0,0,1-2.33-1.55c10.81-34.52,29.82-41.57,32.17-42.75,2.83-1.42-2.12-7.79,0-12.75S286.26,212,286.26,212c4.95-1.41,13.45,9.21,14.87,12a44.43,44.43,0,0,0,11.31,16.12,48.38,48.38,0,0,0,2.14,5.12c3.54,7.08,7.08,13.46,11.33,24.08C329,277.14,331.36,280,333,281.77Z"/><path d="M623.25,456.52a14.57,14.57,0,0,1-1.86-.28l-.46-.1-.08,0-.57-.15a.7.7,0,0,1-.14,0l-1.07-.28-1.08-.32-.79-.24-.13,0a25.07,25.07,0,0,0,1.29-4.42v-4.95c0-2.84-.71-4.25-2.84-11.33s0-6.38,0-8.5.71-12,0-17.7-2.83-8.5-2.83-8.5h-1.41s-4.25-2.13-4.25-3.54-2.13-2.13-2.13-3.54v-5c0-2.12.71-5.66.71-7.79S607,372,607,369.21s-1.42-17-2.13-18.41-6.37-5-12.74-6.37A11.4,11.4,0,0,0,580.83,348c-1.42,1.41-4.25,4.25-7.79,5.66s-5-1.41-13.46-4.25-3.54.71-5.66,2.13-2.12,1.41-14.87,2.83S517.81,360,496.56,360c-7.59,0-16.81-1.82-25.52-4.14l1.88.09h.2l.93,0,1.4,0,.95,0h1.12c6.07.05,10.6-.3,17.63-.3,9.91,0,22-1.42,33.28-2.13s18.41-4.25,27.61-8.49c1.34-.62,2.8-1.39,4.35-2.26,3.41,1.7,5.55,3.95,7.69,4.38,3.54.71,3.54-7.79,17-9.91s17.7,3.54,17.7,3.54c8.5,8.49,8.5,38.23,8.5,38.23s-5,10.63-4.25,12.75,9.2,3.54,9.2,3.54C625,419.44,625.69,440.3,623.25,456.52Z"/><path d="M604.9,387.62s-18.41-.71-28.32-2.83-14.16-.71-16.29-1.42-34-5.66-41.07-9.2c0,0,27.62,9.91,32.58,11.33s5,1.41,11.33,3.54,14.87,5.66,19.11,6.37a72.67,72.67,0,0,0,12,.71,36.34,36.34,0,0,1,9.21,1.41c2.83.71,7.08,2.84,9.2,2.13s1.42-1.42,0-2.13-5.66-2.83-6.37-4.24-.71-4.25-.71-5A.7.7,0,0,0,604.9,387.62Z"/><path d="M265.4,237s2.45,16.11,3.86,18.24.71,1.41,3.54,3.54a35.2,35.2,0,0,1,5,4.25c1.42,1.41,1.42.7,3.54,2.83a53.77,53.77,0,0,0,6.37,4.95s-1.41,0-4.95-2.12-6.38-2.83-9.92-5-4.25-2.83-5.66-3.54-2.13-2.83-5-3.54-7.08.71-7.08.71,2.12-2.83,2.83-3.54,4.25-2.12,4.25-2.83.71.71.71-3.54v-5.67a7.06,7.06,0,0,0-.71-2.12Z"/><ellipse cx="432.91" cy="153.42" rx="80.37" ry="22.31" transform="translate(19 352.48) rotate(-45.2)"/><ellipse cx="577.92" cy="230.94" rx="80.37" ry="22.31" transform="matrix(0.66, -0.75, 0.75, 0.66, 24.08, 514.82)"/><ellipse cx="466.48" cy="142.03" rx="10.59" ry="18.41" transform="translate(37 372.94) rotate(-45.2)" style="fill:#eb292c"/><ellipse cx="615.87" cy="215.9" rx="10.59" ry="18.41" transform="translate(48.44 538.27) rotate(-48.92)" style="fill:#eb292c"/><ellipse cx="500.1" cy="645.02" rx="16.64" ry="8.5" transform="translate(-254.16 956.84) rotate(-74.67)"/><ellipse cx="527.72" cy="620.94" rx="10.29" ry="5.25" transform="translate(-210.63 965.76) rotate(-74.67)"/><ellipse cx="537.63" cy="645.02" rx="4.3" ry="2.2" transform="translate(-226.55 993.03) rotate(-74.67)"/><ellipse cx="713.95" cy="460.91" rx="5.25" ry="10.29" transform="translate(-16.51 26.64) rotate(-2.11)"/><ellipse cx="198.17" cy="544.94" rx="13.74" ry="7.32" transform="translate(-379.69 496.93) rotate(-65.27)"/><path d="M1920,568V719.21H1180.53c-65.29-19.55-122.64-40.58-167.46-63q-9.9-4.95-19-10t-17-10C963,627.3,950.86,618.23,941,609c-36.86-34.67,38.89-158.8,38.89-158.8s21.63,5.53,59.73,14.21q10.64,2.43,22.94,5.16l10.56,2.33q7.77,1.71,16.1,3.5l10.44,2.23c34.79,7.41,76,15.75,122,24.31q5.25,1,10.58,2,27.7,5.1,57.55,10.22l9.85,1.68h0c37.82,6.4,77.85,12.69,119.45,18.59q35.05,5,71.48,9.52c27.61,3.43,55.72,6.63,84.14,9.51l10,1C1695.33,565.28,1810.42,571.37,1920,568Z"/><path d="M929.93,377.51s.65-62.75,74.94-42.53c93.57,25.46,1.69,345.56-109.65,377.26C794,741,836.81,645.42,836.81,645.42" style="fill:#fff"/><path d="M929.93,377.51c-.67-20.4,10.08-40.91,30.25-47.69,14.18-4.94,29.61-3.79,44-.73a53.52,53.52,0,0,1,5.6,1.44,43.59,43.59,0,0,1,15.77,8.76c19.13,16.76,24.13,43.32,26.1,67.34,4.89,83.87-33.35,196-85.84,261.42-15.67,19.22-34.27,37.07-57.48,46.84l-2.68,1-2.67,1c-2.3.79-3.38.93-5.51,1.61a150.6,150.6,0,0,1-24.33,4.25c-40.67,3.49-55.86-19.89-44.34-57.7a116.92,116.92,0,0,1,8-19.64,131.9,131.9,0,0,0-5.06,20.33c-2.06,12.58-2.87,27.9,5.23,38,12.67,14.84,40.63,7,56.76,1.93,24.37-8.5,42.84-28.38,58.15-48.49,42.18-57.87,71-138.4,80.65-209.19,3.53-29.53,6.52-76.76-15.5-99.3l-.78-.81c-.28-.24-.58-.47-.86-.7a35.84,35.84,0,0,0-5.44-3.88l-2-1-1-.52-1.06-.4a88.59,88.59,0,0,0-9.33-2.94c-10.34-2.56-21.42-4.21-31.9-2.19-20.36,3.33-32.26,21.67-34.75,41.24Z"/><path d="M945,409.21s-11,47-11,65-22,119-22,119l-84.15,90c-56-.86-174.89-34.65-210.11-45a321,321,0,0,0,78.07-80.69q4-5.9,7.69-12c1.1-1.79,2.18-3.61,3.24-5.43q6.46-11.07,12-22.7a317.53,317.53,0,0,0,31.27-137.89q0-11.14-.75-22.1a317.09,317.09,0,0,0-51.56-153c-2.52-5.06-4.1-8.18-4.1-8.18l-1.49-.05c-6.45-.24-33.12-1.28-65.87-3.43C588.58,190.24,481,173.21,481,173.21s-34-17-33.55-56c.27-23.16,21.59-40.69,40.29-51.75a218.54,218.54,0,0,1,27.07-13.28c6.8-3,40.19-8,66.19-10.45s48,.45,78,.45,48,13,150.77,50.65S911,316.21,911,316.21c-2,32,29.22,37.94,29.22,37.94Z" style="fill:#fff"/><path d="M902.61,387.7s17,171.61-44.35,208.68" style="fill:#fff"/><path d="M902.61,387.7c10.94,54.76,11.93,161.16-32.59,201a51.69,51.69,0,0,1-11.76,7.66,65.29,65.29,0,0,0,9.78-9.6c34.25-43,32.43-144,34.57-199.08Z"/><path d="M703.56,194S577,191.16,490.88,168.22c0,0-70.47-15.55-37.43-76.76,38-70.33,222-64.79,312.72-24.41,0,0,148.12,31.62,146.64,254.47,0,0-4.13,22.53,28.41,29.63" style="fill:#fff"/><path d="M703.54,195c-64.62,3.33-129.86-.26-193.42-13-3.62-.68-6.61-1.4-10-2.22l-9.94-2.44c-1.55-.38-3.63-.87-5.38-1.44-20.75-6.4-42.2-21-46.4-43.9-2.68-14.32,2-28.79,9-40.84a74.2,74.2,0,0,1,21.67-24c37.28-26.34,93.79-32.38,138.47-34.43,41.1-1.43,82.81,1.67,122.84,12.11a294,294,0,0,1,39.79,13.3l-1.94-.62c13.85,3.21,27,9,39.42,15.81,31.85,17.65,58.09,45,75.82,76.63,21,37.22,31.07,79.48,33.54,121.6a399.21,399.21,0,0,1-.12,50.72c-1.21,6.34,1.4,12.77,5.84,17.45l1.85,1.82,2.1,1.59c.36.27.69.56,1.07.8l1.15.68L931.2,346a67.88,67.88,0,0,0,10.23,4.18l-.43,2-5.69-1c-1.87-.5-3.76-1-5.64-1.63-1.31-.55-3-1.2-4.12-1.7-.78-.39-3.15-1.76-4-2.22-5.2-3.47-9.67-8.51-11.6-14.68a24.52,24.52,0,0,1-1.23-10.1l-.07.72C905,234.2,876.62,138,797.28,91.36c-10.45-6.15-21.47-11.46-33.15-14.75l-1.43-.4-.5-.23a274,274,0,0,0-36.73-13.74,508,508,0,0,0-118-20.08C560.65,40,481.83,47.13,458.28,94c-14.79,31.31-4.52,51.58,27.34,63.29,6.84,2.4,16.33,4.26,23.42,6.18C559.77,175,611.55,181.54,663.25,188l40.34,5-.05,2Z"/><polygon points="767.2 298.62 894.47 286.78 869.3 431.32 741.28 446.87 767.2 298.62" style="fill:#e6e6e6"/><path d="M694,174.21s6.61,102.28,77.35,169.27" style="fill:#fff"/><path d="M694,174.21c10.75,29.91,20.57,58.79,33.18,87.46,12.44,28.83,27.26,54.79,44.17,81.81-2.57-1.38-5.39-3.18-7.89-4.75-38.07-26.46-60.74-70.93-68.57-115.86-2.55-16.05-3.71-32.56-.89-48.66Z"/><path d="M174.66,108.6S243-16,358.14,33.38c99.91,42.85,21.57,118.39-17.37,130-57.44,17.12-92.47-9.34-95.33-40.54-1.66-18.25-9.07-24.41-9.07-24.41" style="fill:#fff"/><path d="M174.66,108.6c20.16-41.8,56.13-79,102-91.37,29.55-8.06,61.51-3.57,89.12,8.93,23.23,10.14,47.59,28,50.72,55.25,3.38,32.81-22.41,61.22-48,77.91-7.85,5-16.3,9.39-25.47,11.88-26,7-56.84,7.37-79.35-9.63-11.66-8.81-19.74-22.48-20.37-37.2-.29-8.93-1.16-18.68-6.91-25.94,6.7,5.76,9.52,14.88,11.14,23.32,2.85,19.09,17.92,33.12,36.05,37.75,15.38,4.18,31.79,2.55,47.06-1.58,26.08-5.83,58.62-34.69,65.14-60.81C404,65,368,46.91,342.83,37.68s-52.91-9.85-78.18-1c-36.75,12.75-67.2,41-90,72Z"/><path d="M93.21,286.37S56.49,39.67,261.32,78.69c134.8,25.68,83.95,130.38,39.08,155.2-66.2,36.62-116.54,13.45-128.48-24.25-7-22-17.78-27.64-17.78-27.64" style="fill:#fff"/><path d="M93.21,286.37c-17.62-92.88,2.12-213.28,116.59-221,33.43-2,75.6,4.86,105.14,21,59.09,32,52.25,97.16,9,139.9-11.66,11.62-26.76,18.86-42.14,24.36-15.13,5.38-31.3,8.41-47.44,7.44-32-2-58.62-20.15-65.73-52.37-2.92-8.76-6.92-17.92-14.45-23.68a29.84,29.84,0,0,1,8.77,7.46c5,5.9,8.56,13.09,11.32,20.29,13.33,32.75,49.75,42,81.73,34.05,14-3.28,27.48-9.2,40.13-16.52a72.49,72.49,0,0,0,16-12.91c28.43-30.21,41.22-78.16,2-105.12C288.73,91.49,247,84,216.29,84.12c-39.21,0-73,16.08-93.87,50-26.6,43.45-31.48,102.1-29.21,152.22Z"/><path d="M64.52,332.27s-43.6-188.18,134.1-183.46c137.17,3.64,110.1,109.19,71.64,143.11-56.75,50-110.9,38.28-130.69,4-11.58-20-23.33-23.16-23.33-23.16" style="fill:#fff"/><path d="M64.52,332.27c-19.7-71-7-158.53,72.08-184.48,17.58-6,36.13-8.32,54.62-8.65,36.9-.15,79.4,5.57,104.46,36.16,28,35.34,14.35,87.92-14.92,118.12-16.22,15.26-35.68,27.49-57.14,33.86-28.66,8.76-63.13,3.18-81.29-22.44-4.19-5.76-6.69-12.46-10.93-18.15-4-5.58-8.83-11-15.16-13.89,10.37,3.13,18.14,11.83,24.2,20.46A57.54,57.54,0,0,0,181,319.38c28.29,4.15,55.63-9.76,76.89-27.56,1-.78,2.9-2.43,3.81-3.28,12.22-10.34,20.69-24.77,25.73-39.89,5.8-17.22,6.61-38-2.32-53.66-17.82-31.06-60.75-36-93.8-36.66-35.83-.55-74.41,8.52-98.12,37-30.46,36.23-33.91,91.55-28.65,136.91Z"/><path d="M47,356.12s-.25-146.53,156.4-124.82c135.93,18.83,97.29,147,53.77,174.08-64.21,40-115.69,19.49-129.57-17.54-8.12-21.66-19.19-26.69-19.19-26.69Z" style="fill:#fff"/><path d="M46,356.12c-5.21-49.88,19.41-104.8,67.57-124.65,26.78-11.37,56.75-9.9,84.57-4.95,23.14,4,46.42,9.91,66.6,22.61,38.27,23.75,49,67.13,36.18,108.82-6.71,21.63-17.94,42.72-37.22,56-2.24,1.48-4.81,2.93-7.08,4.29-28.6,16.42-65,25.26-96.45,11.72-14.86-6.31-27.47-18-34-32.85-.59-1.52-1.54-3.68-2-5.22l-.84-2.61a67,67,0,0,0-8.81-20.06,30.61,30.61,0,0,0-6.52-7.14l.83-1.82a29.45,29.45,0,0,1,9,6c6,5.54,10.32,12.55,13.88,19.81.34.62,1.31,2.54,1.65,3.16a55.73,55.73,0,0,0,30.31,25c29.37,10,60.89-1.63,86.38-17.11,25.13-15.48,39.62-53.07,39.42-82,.19-53-44.14-78.21-92.3-80.46-37.84-1.84-79.81,7.25-107.53,34.06-18.74,18.11-30.16,42.52-37.18,67.61A200.06,200.06,0,0,0,48,356.11Z"/><path d="M57,364.21s-6-78,55-112L95.45,241S31,283.21,37.65,362.79Z"/><path d="M573.73,267.23l-.94.85-.2.19-.73.65-.42.38-.72.64-.72.63q-1.85,1.62-3.66,3.14l-.72.6-.71.58c-1,.81-1.95,1.58-2.91,2.34h0l-2.61,15-2.07,11.9-.6-6.4-1.46-15.48c-1.23.86-2.45,1.68-3.63,2.45l-.17.11-.09.06-.92.58c-.19.13-.39.25-.58.36l-.57.35c-.74.45-1.47.88-2.18,1.29l-.86.49-.34.19-.14.07,0,.17h0L548.58,318h0l.09,1,.1,1,.25,2.67.61,6.56,1.32,14,.12,1.28.26,2.76v.12l.5,5.29,2.52,26.85,5.23-30.06L560.7,343l.06-.37,2-11.3h0l2.17-12.48h0l.07-.42.17-1h0l8.34-47.95h0l.42-2.4Zm-108,84.11-1.56-17.6-2.93,16.87-.74,4.24,1,.13.74-4.2c.82.15,1.65.28,2.49.4l.37,4.24,1,.1ZM333.62,389.69l-1,5.49-.1.6.11-.6,1-5.5Zm-19.06,109-3.19,18.24h0l3.19-18.24.17-1ZM573.73,267.23l-.94.85-.2.19-.73.65-.42.38-.72.64q-.36.33-.72.63-1.85,1.62-3.66,3.14l-.72.6-.71.58c-1,.81-1.95,1.58-2.91,2.34h0l-2.61,15-2.07,11.9-.6-6.4-1.46-15.48c-1.23.86-2.45,1.68-3.63,2.45l-.17.11-.09.06-.92.58c-.19.13-.39.25-.58.36l-.57.35c-.74.45-1.47.88-2.18,1.29l-.86.49-.34.19-.14.07,0,.17h0L548.58,318h0l.09,1,.1,1,.25,2.67.61,6.56,1.32,14,.12,1.28.26,2.76v.12l.5,5.29,2.52,26.85,5.23-30.06L560.7,343l.06-.37,2-11.3h0l2.17-12.48h0l.07-.42.17-1h0l8.34-47.95h0l.42-2.4ZM464.14,333.74l-2.93,16.87-.74,4.24,1,.13.74-4.2c.82.15,1.65.28,2.49.4l.37,4.24,1,.1-.37-4.18ZM332.66,395.18l-.1.6.11-.6,1-5.5h0ZM311.37,516.94h0l3.19-18.24.17-1-.18,1ZM599.45,62.08l-7.31,42-2.21,12.7-1.83,10.49-3,17.3-5.58,32-1.34,7.73-.52,3-2.42,13.88-3.4,19.55-2.45,14.06-3.84,22L562,277.23h0l-2.61,15-2.07,11.9-.6-6.4-1.46-15.48-.91-9.7-4.05-43.09-1.44-15.29-1.66-17.61h0L545.93,183l-.32-3.33-.32-3.45-.58-6.17L543,151.64,537.32,91.4l-.92-9.77-.33-3.46-1.51-16.09H380.75l-.42,2.42-2.2,12.57-4.05,23.15-1.34,7.66-7.51,43-1.9,10.87-1.1,6.26-1,5.8-1.48,8.49-6.12,35L343.3,276.31l-2.49,14.19h0l-4.49,25.69-1.6,9.18-7,40.2h0l-3,17.27-1.52,8.65-.37,2.12-1.14,6.54-1.2,6.88L301.76,513.87l-1.71,9.79-.7,4-.27,1.57-1,5.59-9.58,54.82L278.66,646l-1.78,10.19H418.27L432,577.34l3.45-19.84.15-.9.08-.44.27-1.53,17.87-102.86,1.09-6.29,1.1-6.34,3.43-19.74,1.52-8.74.8,9,2,23,.61,6.9.6,6.74,8.9,100.31,0,.3,0,.27,1.06,12,2.12,23.91.6,6.72,2.52,28.42,2.48,27.94H639.31l2-11.24.14-.85,3.61-20.6,1.54-8.84,3.52-20.13L681.3,416l3.13-17.9,25.22-144.29.43-2.44.68-3.85h0l.81-4.65,2-11.6h0L715.39,221l3-17.22L721,189l21.3-121.86.89-5.09Zm111.7,125.1-1.85,10.59h0L708,204.93h0l-2.18,12.45h0l-1.69,9.67h0l-1.59,9.09v.06l-1.82,10.45-10.33,59.08-.18,1-12.72,72.75-2.91,16.66h0l-10.32,59-.18,1L637.87,606.3l-2.47,14.11-.82,4.7-2.85,16.3-.13.78-.7,4h-139l-.21-2.41v0l-3.19-35.93h0l-1-11.19h0l-1.78-20.09h0l-.36-4L483.16,548h0l-.08-1-.1-1.07L477,479l-.09-1-1.54-17.33-.57-6.46-.59-6.6-2.36-26.67-3.05-34.3-.81-9.2h0l-1.95-21.89-.37-4.18-1.56-17.6-2.93,16.87-.74,4.24-2.88,16.56-1.29,7.45-6.82,39.24-2.91,16.74-1.14,6.57-1.13,6.5-6,34.77-.18,1-12,69.06-.13.76-.2,1.14-.3,1.72-3,17.53-12.56,72.26H288.78L294.94,611l12.93-74,.94-5.38.05-.26h0l.87-5h0l1.64-9.39,3.19-18.24.17-1,16.43-94,1.33-7.59.06-.34.11-.6,1-5.5.53-3,6.52-37.31h0l1.78-10.19.18-1,1.87-10.68h0l1.71-9.77,3.28-18.77h0l2.11-12h0l11.45-65.52,7.61-43.53.67-3.81,1.89-10.84,1.3-7.41L377,141.57h0l5.43-31,1.44-8.23,4.69-26.87.59-3.35h136.3l.25,2.67,1,10.62.23,2.42,6.61,70.34,1.69,17.94.09,1h0l.08.79.34,3.6.47,5h0l1.63,17.29,3.56,37.87h0l4.37,46.49,0,.17h0L548.58,318h0l.09,1,.1,1,.25,2.67.61,6.56,1.32,14,.12,1.28.26,2.76v.12l.5,5.29,2.52,26.85,5.23-30.06L560.7,343l.06-.37,2-11.3h0l2.17-12.48h0l.07-.42.17-1h0l8.34-47.95h0l.42-2.4h0l4-22.72.06-.34,2.46-14.15L587.33,190l.25-1.39.53-3.07,1.53-8.8,6.49-37.25L599,122.93l.07-.38,2.24-12.87h0l6.54-37.59H731.27ZM314.56,498.7l-3.19,18.24h0l3.19-18.24.17-1Zm19.06-109-1,5.49-.1.6.11-.6,1-5.5ZM465.7,351.34l-1.56-17.6-2.93,16.87-.74,4.24,1,.13.74-4.2c.82.15,1.65.28,2.49.4l.37,4.24,1,.1Zm108-84.11-.94.85-.2.19-.73.65-.42.38-.72.64-.72.63q-1.85,1.62-3.66,3.14l-.72.6-.71.58c-1,.81-1.95,1.58-2.91,2.34h0l-2.61,15-2.07,11.9-.6-6.4-1.46-15.48c-1.23.86-2.45,1.68-3.63,2.45l-.17.11-.09.06-.92.58c-.19.13-.39.25-.58.36l-.57.35c-.74.45-1.47.88-2.18,1.29l-.86.49-.34.19-.14.07,0,.17h0L548.58,318h0l.09,1,.1,1,.25,2.67.61,6.56,1.32,14,.12,1.28.26,2.76v.12l.5,5.29,2.52,26.85,5.23-30.06L560.7,343l.06-.37,2-11.3h0l2.17-12.48h0l.07-.42.17-1h0l8.34-47.95h0l.42-2.4Zm-108,84.11-1.56-17.6-2.93,16.87-.74,4.24,1,.13.74-4.2c.82.15,1.65.28,2.49.4l.37,4.24,1,.1Zm108-84.11-.94.85-.2.19-.73.65-.42.38-.72.64-.72.63q-1.85,1.62-3.66,3.14l-.72.6-.71.58c-1,.81-1.95,1.58-2.91,2.34h0l-2.61,15-2.07,11.9-.6-6.4-1.46-15.48c-1.23.86-2.45,1.68-3.63,2.45l-.17.11-.09.06-.92.58c-.19.13-.39.25-.58.36l-.57.35c-.74.45-1.47.88-2.18,1.29l-.86.49-.34.19-.14.07,0,.17h0L548.58,318h0l.09,1,.1,1,.25,2.67.61,6.56,1.32,14,.12,1.28.26,2.76v.12l.5,5.29,2.52,26.85,5.23-30.06L560.7,343l.06-.37,2-11.3h0l2.17-12.48h0l.07-.42.17-1h0l8.34-47.95h0l.42-2.4h0Z"/><path d="M761.17,333.12l-11.8,67.47v.08l0,.51c0,.61-.08,1.22-.13,1.83q-.11,1.53-.24,3.06c0,.09,0,.19,0,.28a.22.22,0,0,1,0,.08c0,.49-.08,1-.13,1.48v0c-.1,1.18-.21,2.36-.32,3.53L762,334.05Zm0,0-11.8,67.47v.08l0,.51c0,.61-.08,1.22-.13,1.83q-.11,1.53-.24,3.06c0,.09,0,.19,0,.28a.22.22,0,0,1,0,.08c0,.49-.07,1-.13,1.48v0c-.1,1.18-.21,2.36-.32,3.53L762,334.05Zm38.25-271-3,16.93-.23,1.34L795,87.4l-19.7,112.68-6.48,37L756.07,310l-2.51,14.34-4.72,27v0L720.43,513.88h0L698.29,640.5l-2.74,15.68H839.27l6.23-35.75v0l51.38-295,.56-3.18,6.5-37.35L907.39,265l1.3-7.45,3.46-19.88,6.69-38.38,15.85-91.05,3.85-22.1,4.2-24.1Zm124.83,47.84-15,86-5.84,33.53-.81,4.64-.13.77h0l-8.78,50.4-.28,1.64h0l-.17,1-4.93,28.28-1.12,6.47L868.44,430.41l-.18,1-37.4,214.74H707.45l.46-2.61,32.52-186v0l1.89-10.81.18-1,6-34.14v-.08L762,334.05l1.39-7.95,4.64-26.56.18-1,9.68-55.37,7.16-41L804.52,90.93l.54-3.06.64-3.66,2.12-12.13h123l-2.48,14.24ZM761.17,333.12l-11.8,67.47v.08l0,.51c0,.61-.08,1.22-.13,1.83q-.11,1.53-.24,3.06c0,.09,0,.19,0,.28a.22.22,0,0,1,0,.08c0,.49-.08,1-.13,1.48v0c-.1,1.18-.21,2.36-.32,3.53L762,334.05Zm0,0-11.8,67.47v.08l0,.51c0,.61-.08,1.22-.13,1.83q-.11,1.53-.24,3.06c0,.09,0,.19,0,.28a.22.22,0,0,1,0,.08c0,.49-.08,1-.13,1.48v0c-.1,1.18-.21,2.36-.32,3.53L762,334.05Z"/><path d="M1203.89,62.08l-33.09,58-47,82.26-10.85,19,4.2-24.1,15.29-87.68,8.27-47.45H999l-.11.61-4,23.08L992,102.19,974.42,202.62l-10,57.16h0l-4.86,27.79-5.71,32.69L950.74,338h0l-8,45.56v0l-38,217.3-9.66,55.25h141.77l30.75-176.4,5.48-7.93,12.84-18.6,3.26,22.1,26.7,180.83h146.57l-30.22-152.33L1211.6,399.66l-5.19-26.18-11.1-56-1.19-6L1206.6,292l59.83-93.51,67.82-106,19.47-30.43ZM1327.3,84.82h0l-6,9.42-17.72,27.68L1261,188.38h0l-43.72,68.33-.69,1.07-16.92,26.45-16.18,25.29.73,3.66,10.85,54.7h0l4.42,22.28.19,1,22,110.73,28.62,144.29H1124.56l-24.9-168.6-7.52-50.89-29.58,42.83-4.4,6.38-29.68,170.28H907L946.22,422l.18-1,15.35-87.81h0L964.39,318l6.21-35.51.32-1.86.18-1,2.25-12.88,11.54-66h0l17.33-99.17,2.85-16.28,2.31-13.22h121.46l-6.2,35.55-14.58,83.64-13.4,76.87-.18,1-1.18,6.78,4-7.05.6-1.06L1131.55,209l48.74-85.38,29.41-51.51h125.75Z"/><path d="M1368.84,62.08l-13.19,75.47L1313.26,380l-23.44,134.09L1265,656.18h301.88l6.48-36.88,4.19-23.89,7.21-41,3.6-20.52h-159l20.55-117.8,1-5.53h128.87l2.84-16.19,7.39-42.06,6.1-34.75,4.81-27.39.34-1.93H1472.3l18-104.59h143.72l9.76-56.38,4.62-26.71,6.65-38.45Zm256.79,111.54H1481.91l-10.25,59.43-.17,1-11.06,64.14h128.88l-3.92,22.3-4.09,23.28-.18,1-2,11.39h0l-7,40-.76,4.33H1442.46l-2.94,16.88-20.39,116.93-1.66,9.52h159l-1.67,9.51-7,39.63-4.3,24.46-5,28.72H1276.87l22.8-130.43,21.27-121.65L1324.1,376l.18-1,22.61-129.35.18-1,14.52-83.05,15.65-89.52h266l-4.64,26.83-5.12,29.56Z"/><polygon points="734.42 -1.06 859.07 -1.06 852 6 786.5 6 734.42 -1.06" style="fill:#f1a168"/></svg>