<svg xmlns="http://www.w3.org/2000/svg" viewBox="0 0 875.47 316.49"><path d="M111.34,17.48S69,98.86,106,150.43,252.59,169,252.59,169L874.78.36l-700,304.16S3.46,356.92.21,231.32C-2,146,111.34,17.48,111.34,17.48Z" transform="translate(0.61 0.26)"/><path d="M111.84,17.92c.69-.91.11-.57-1.92,1.84l-1.2,1.92Z" transform="translate(0.61 0.26)"/><path d="M97.81,33.79c-2.19,3-4.63,6.51-2.9,4.83,2-3.07,2.69-3.69,4.88-7,2-2.47,3.58-4.18,3.33-3.7.63-.92,3.18-3.72,4.11-5.15a125.55,125.55,0,0,0-9.4,11.33C97.05,35,97.69,34,97.81,33.79Z" transform="translate(0.61 0.26)"/><path d="M37.89,302.23l-1.71-1C36.64,301.49,37.23,301.84,37.89,302.23Z" transform="translate(0.61 0.26)"/><path d="M221.86,284.78a15.39,15.39,0,0,0-1.93.91A19.51,19.51,0,0,0,221.86,284.78Z" transform="translate(0.61 0.26)"/><path d="M251.89,272.12l-1.77.75C250.8,272.6,251.49,272.33,251.89,272.12Z" transform="translate(0.61 0.26)"/><path d="M37.89,302.23c1.47.86,3,1.68,4.5,2.46C42.75,304.77,40.06,303.46,37.89,302.23Z" transform="translate(0.61 0.26)"/><path d="M72.73,68.06c.62-.88,1.11-1.61,1.55-2.3l-1.49,2.13A.58.58,0,0,1,72.73,68.06Z" transform="translate(0.61 0.26)"/><path d="M-.52,231.3l0-1.56c0-.46-.07-.89-.11-1.3Z" transform="translate(0.61 0.26)"/><path d="M13.17,168.32a7.42,7.42,0,0,0-.59,2.49,25.28,25.28,0,0,1,1-3S13.43,167.9,13.17,168.32Z" transform="translate(0.61 0.26)"/><path d="M63.48,79.23l1-1.52Z" transform="translate(0.61 0.26)"/><path d="M10.66,276a2.75,2.75,0,0,0,.21.56S10.81,276.37,10.66,276Z" transform="translate(0.61 0.26)"/><path d="M89.86,89s0,0,0,0C89.91,88.64,89.9,88.52,89.86,89Z" transform="translate(0.61 0.26)"/><path d="M111.4,17.51l-.45.94c0,.12,0,.24,0,.27Z" transform="translate(0.61 0.26)"/><path d="M306.73,248.69l-.24.1C305.06,249.44,305.87,249.08,306.73,248.69Z" transform="translate(0.61 0.26)"/><path d="M808.78,30.31c-5.79,2.24,9.13-4.32.45-.86C810.07,29.21,801.62,33.24,808.78,30.31Z" transform="translate(0.61 0.26)"/><path d="M71.73,69.39Q71,70.45,70.2,71.55C70.89,70.56,71.36,69.9,71.73,69.39Z" transform="translate(0.61 0.26)"/><path d="M809.23,29.45h0l-.89.36Z" transform="translate(0.61 0.26)"/><path d="M432.69,193.77c-.28.07-.79.25-1.33.44A7.57,7.57,0,0,0,432.69,193.77Z" transform="translate(0.61 0.26)"/><path d="M338.64,234.2l2.34-1Z" transform="translate(0.61 0.26)"/><path d="M481.28,172.22c1.27-.53,1.72-.68,3.43-1.46l-.54.19C483.56,171.26,482.74,171.64,481.28,172.22Z" transform="translate(0.61 0.26)"/><path d="M532,150.17l-1,.36-1.6.71Z" transform="translate(0.61 0.26)"/><path d="M201.32,179.62c-1.22,0-2,0-2.58,0C199.61,179.71,191.48,180.43,201.32,179.62Z" transform="translate(0.61 0.26)"/><path d="M72.59,68a9.57,9.57,0,0,1-.86,1.4c.36-.52.72-1,1.06-1.5C72.85,67.74,72.84,67.68,72.59,68Z" transform="translate(0.61 0.26)"/><path d="M482.46,169.29l8.08-3.46Z" transform="translate(0.61 0.26)"/><path d="M585.48,79.94l-1.94.56C584.29,80.3,585,80.11,585.48,79.94Z" transform="translate(0.61 0.26)"/><path d="M514.45,155.39c1.47-.53,3-1.14,4.61-1.79.33-.17.7-.35.91-.47Z" transform="translate(0.61 0.26)"/><path d="M198.72,179.58h0Z" transform="translate(0.61 0.26)"/><path d="M140.79,175.67c4.08,1.22,5.09,1.3,5.27,1.24s-.43-.38.46-.26c4.92,1.11,6.08,1.29,6.38,1.49s-.21.22,1.48.6c6.24,1,11.09,1,15.76,1.37.34.08,1.25.16.18.17,3.33.06,8.25.22,13.31.14a136.74,136.74,0,0,0,14.08-.85c.58,0,.87,0,1,0-1.26-.09-1.46-.26-1.22-.41,3.75-.29,6.93-.85,8.36-.76a30.48,30.48,0,0,0-3.54.53l3.91-.51c3.57,0-5.34.7-5.32.91,7.67-.77,16.5-2.31,22.31-3.22.64.06-2.75.67-5.34,1.08s-4.35.68-.43.26c-3,.41-6,.78-9.06,1.09,7-.3-5.52.62.92.43,6-.68,9.29-1.27,12.6-1.85s6.6-1.2,12.48-2.37c2.6-.74-.93-.08,1.67-.83,8.28-2,11.55-2.68,14.3-3.21a92.11,92.11,0,0,0,10.89-2.82A84.91,84.91,0,0,1,274,164l-2.82,1.16c11.19-3,6.23-2.26,18-5.19-2,.71-8.76,2.51-7.05,2.09,7.67-1.76,5.3-1.66,11.14-3.24h1.3l38.12-10.71c-.71.3-2.94,1,.18.28,16.58-4.67,35.52-9.59,51.62-13.74l6.05-1.94c1.42-.39,2.68-.59,1.15-.12,6.28-1.59.27-.27,3.25-1.19,3.55-1,4.74-1.11,2.51-.42,11-3.23,31.29-9,43-11.88l-2.24.7c9.08-2.34,10.05-3.35,18.52-5.36l-1.6.49c19.69-5.2,41.33-11.35,56.44-15,2.74-1.18,19.5-5.09,20.6-6,11.3-2.76,8.12-1.79,24-5.88,4.23-1.12,6.19-2.06,11.39-3.53l.21.26,7-2.23,3.87-.67,4.87-1.4a20.79,20.79,0,0,1-3.91.82c3.8-1.1,8.48-2.31,12.23-3.23,1.87-.46,3.52-.85,4.71-1.12a17.13,17.13,0,0,1,2-.39l18-5.15c-.37.23-3.39,1.09-5.76,1.82,9.57-2.92,1.84-.17,10.61-2.84-1.21.25.59-.35.77-.47,4.46-1,14.5-3.73,21.91-5.82l-1.37.59C656.16,61.13,671,57,686,52.88c-5.43,1.36-4.29.67.12-.56l1.85-.16c2.8-1-4.65,1.13,1.14-.69,5.63-1.49,3.88-.67.68.31l6.81-2c.42,0-1.17.47-1.55.71,2.75-1,11.89-2.89,15.84-4.32h.41l34.1-9.37c.17-.34,5-1.58,8.57-2.79,9-2.35,19.09-4.85,29.94-7.81,7.59-2.21,2.16-.84,5.55-1.93.63.1,11.46-2.86,5.89-1.16,13-3.57,16.62-4.56,33.05-9.23-1.82.39-3.84.89-2.82.52,3-.85,6.83-1.74,6.43-1.5l-.78.24c5-1.48,10.54-3,16.16-4.42l4.24-1.1,2-.51.75-.17c1-.21,1.65-.35,2.11-.43l1.15-.17a7.79,7.79,0,0,0-1.58.73l-.19.18.07-.06c-.36.21-.92.5-1.69.89l-6.58,3c-6.69,2.86,3.93-1.92-1.07.08-15.49,7.19-24.76,10.69-37.54,16.55-10.28,3.65-35.39,15.44-49.05,20.85l.85-.17c-3.41,1.67-4.25,1.73-6.84,2.81.42,0,3.85-1.5,1.72-.47-29.4,13-61,26.21-91.27,39.2-11.08,4.76-5.91,3.57-20,9.24l3.83-2C626.16,107.24,602.68,117,581,126.8a36.27,36.27,0,0,1,3.4-1.67c-2.35.89-6.62,2.74-10.3,4.4-1.84.82-3.53,1.6-4.76,2.19a15.54,15.54,0,0,0-2,1c-3.42,1.46-.86.19-3,1-4.68,1.89-11.49,5.33-14,6.18a22.17,22.17,0,0,1,2.11-1c-3,1.42-14.06,6.08-11.07,5.08-8.25,3.44-15.63,6.93-22.24,9.62-4.14,2.14-14.09,6-15.27,7,.41-.67-14.52,5.91-19.62,8.36,1.68-.88-4.56,1.83-2.61.77-5.91,2.58-11.3,5-10.17,4.78-11.12,4.24-21.74,9.92-28.15,11.95-17.48,7.86-33.68,15.07-49.44,22,.39-.66,17.45-7.63,16.59-7.77-14.93,6.68-23.42,10.8-38.34,17.16-3.87,1.62,2.11-1.13,3.38-1.77-14.91,6.69-29,12.56-42.22,18.57,0,0,.37-.2.89-.46l1.89-.88c-2.62,1.16-6.13,2.59-5.75,2.65l2.53-1.16c4.32-1.55-10.18,5.1-10.59,5.45,4.23-2.47-13.23,5.59-6.44,1.83-1.71.79-3.84,1.82-3.39,1.77-2.58,1.08-3.43,1.36-.89.09-9.37,4.19-5.94,2.94-14.47,6.64,0-.11,1.7-.89,2.54-1.38-4.24,2.05-8.5,4.11-15.74,7.17.41-.24-.46.05,1.69-.89-12.36,5.41-20.89,9.64-34.54,15.37,3.83-2.13-4.67,1.88-5.54,1.85L238.14,276l3-1.11c-6.39,2.78-11.94,5.48-17.48,7.76l4.69-2.21-12,5.28,6.84-2.82c-6.39,3,.88.13-7.67,3.73,1.71-.78-6.4,2.78-9.82,4h0c-3.11,1.48-6.32,3-11.08,5-1.28.42.82-.81,0-.54-3,1.65-14.94,6.59-18.76,8.61,1.28-.64,1.27-.85.82-.7l-1.26.69-.62.34c-.12.06-.2.11-.28.14l-.33.13c-3.11.82-3.59.87-3.12.59-4.69,1.23-3.92,1.12-3.37,1.09s.89,0-4.73,1.24c.87-.23.44-.17,2.26-.64a304.73,304.73,0,0,1-32.37,6.1c-1.58,0,.72-.3,3-.64s4.42-.68,2.62-.56c-15.09,2.37-31.49,3.95-46.3,3.23.92.07,1.84.09,2.76.13a33.14,33.14,0,0,1-7.22-.23c-3.43-.31-7.51-.87-11.23-1.23,1.82.19,2.42,0,1.92,0-5-.67-10.12-1.49-15.79-2.81a99.81,99.81,0,0,1-18.9-6.32l1.78.68a103.71,103.71,0,0,1-9.59-5.1,72.79,72.79,0,0,1-9-6.58c-1.55-1.12-4.2-3.66-2.7-2A77.79,77.79,0,0,1,1.55,241.92c.24,2.09.81,5,.56,3.3A113.2,113.2,0,0,1,.84,230.28c-.28,1.2-.1,2-.14,5.14-.11-.95-.26-2.48-.37-4.25s0-3.76,0-5.63c.07,6.78.32-.06.59-3-.12.49-.1-.51-.2-.27.56-3.9.48-4.23.41-4.93s-.23-1.78.8-7.06l0,.58c.14-1,.28-2,.41-2.94s.26-2,.47-2.91c.38-1.93.78-3.91,1.26-6,.64-1.7-.8,4.21-.64,4.52.66-3,1.1-5.94,1.85-8.78a64.55,64.55,0,0,1,2.35-8.22C6.89,189,6,192.63,5.37,195.14c1-2.86,1.44-4.45,1.86-5.87s.87-2.63,1.56-4.75l-.14.42,1.65-4.88,1.85-4.8-1,2.43c.5-1.85,1.07-3.68,1.71-5.55s1.43-3.73,2.21-5.69c1.54-3.92,3.46-8,5.35-12.82-3.68,9.29-.45,1.61-.48,2.43,1.11-2.37,2.94-5.91,2.53-4.85.94-2.23,1.86-4,2.88-6.07s2.23-4.24,3.63-7.37c.11-.12.71-1.27,1.24-2.26s1-1.79.88-1.25c3-5.57-.86,1.23-.71.71,4.27-8.75,11.41-19.8,18.46-31.88C55.17,92.8,56.13,90.76,62.29,81.4c2.27-3-1.46,2.75-1.46,2.75,1.78-2.48,3.32-4.66,4.8-6.83s3-4.28,4.58-6.67c-.59,1,.15.06,1.26-1.3,2.68-3.75,1.5-2.71,5.21-7.54-.54.9-1.18,2.09-2.4,4,3.11-4.45,6.16-8.87,9.49-13.41,1-1.09-1.84,2.86-2.94,4.51,3.72-5.1,9.79-13.13,10.81-14.81l-2.58,3.14c1.4-1.84.91-.8-.09.58a43.75,43.75,0,0,1-5.09,6.33l2.38-3.23c-3,2.92-9.66,12.89-14.35,19.45l1.64-3C72,67.65,70.49,70,69,72.28c-1.1,1.38-2,2.23.26-1.07-3.5,4.62-2.86,4.26-5.85,8.23-.34.43-.22.22.06-.21L60.38,84c.55-1-.78.62,1.24-2.22-3,4.11-5.14,7.6-6.93,10.37s-3,5-4.21,6.48l.44-.73c-7.4,12-.49,1.31-5.78,10.45L40.84,114l-.45,1.34c-.77,1.24-2.22,3.72-2.06,3.2-2.5,4.8.57-.74-.81,2.09-.93,1.48-2,3.27-3.07,5.14s-2.1,3.87-3.1,5.69c-2,3.62-3.56,6.72-4.15,7.3-.94,2.34,3.22-5.86-.05.85a28.07,28.07,0,0,0-2.84,5.19c-1.12,2.45-2.44,5.39-3.92,8.22.59-1.88,3.36-7.28.36-1.62-1.23,3.68-5.25,11.3-7.14,16.37.12.18-1,2.89-2.35,6.69-.68,1.9-1.53,4-2.26,6.27s-1.44,4.54-2.12,6.7a14.4,14.4,0,0,0-.82,2.42c-.46,1.64-1.13,4-1.87,6.55s-1.29,5.52-1.95,8.28c-.35,1.37-.56,2.74-.77,4S1,211.16.86,212.2l0-.25a16.94,16.94,0,0,1-.17,2.4c-.12,1.14-.18,2.58-.32,4.16s-.3,3.31-.39,5,0,3.46,0,5c-.21-.25-.28-1.39-.33-4.84l-.09,6c0,1.41.24,3.26.46,7.12l-.34-1.48A111.72,111.72,0,0,0,4.3,261.15c.2.23-.22-1.76-.28-2.53,0-.38,0-.45.31.2.14.33.33.84.59,1.59s.57,1.74,1.07,3c0,.42-.1.89-1.07-1.76.27.89,1.23,3.06,1.8,4.83L5,262.5a24.39,24.39,0,0,0,1.24,3.19c.22.44.4.77,1.15,2.47-.21,0,1,2.58.61,2.16-.37-.88-1.27-3-1.83-4.3,1.51,3.91,3.69,8.52,4.48,10-.08-.38.22-.12,1.82,2.5,1.12,1.65,1.75,2.63,2.13,3.22a5.63,5.63,0,0,1,.57.91c.1.26-.06.19,1.32,2.08l2.82,3.19a9.45,9.45,0,0,0,2.15,2l1.63,1.72.86,1a77.81,77.81,0,0,0,8.41,6.47c3.1,2.05,5.46,3.22,3.52,1.94l-.9-.55.58.33,0,0,0,0A108.46,108.46,0,0,0,74.44,314l0,.1a154.64,154.64,0,0,0,23.33,1.52c2.35,0,5.56.19,4.55.31,3-.06,4.73-.18,6.76-.26l8.78-.43c-6.09.58,2.12.05-6.25.52,4-.15,6.37-.29,8.86-.47s5-.47,9.25-1.11c-2.84.61,6-.38,9.66-1.07-1.84.22-3.68.43-5.51.61,4.18-.6,7.83-1.15,11.53-1.77l-1.94.67A186.45,186.45,0,0,0,165.15,308c3.3-.87,6.46-1.76,9.55-2.66l.32-.1.33-.13.55-.24,1.09-.47,2.18-.9c1.44-.59,2.89-1.15,4.33-1.69,3.82-1.91-8.11,3.35-4.71,1.57,6.82-2.91,14.11-5.56,16.24-6.48,9.4-3.89,8.51-4.23,18.32-8.36-1.3.44-2.6.66,4.65-2.61,6.83-2.92,8.57-3.19,4.31-1.23a14.92,14.92,0,0,1-2.38,1c-2.19,1-5.05,2.3-2.31,1.24l.84-.49c3.43-1.36,12.8-5.44,10.68-4.31,5.1-2.34,2.12-1.13-1.72.47,8.81-3.64,13.66-5.93,22.7-9.73-1.46.56-2.83,1-1.41.39,13.26-5.6,5.72-2.73,14.64-6.67,5.16-2-1.64,1.19,7.29-2.86,5.55-2.27,1.29-.22-.85.82,8.11-3.77,15.38-6.52,20.08-8.51l-4.28,2c2.56-1.17,4.67-2.09,6.83-3l-2.56.86c2.55-1.07,4.7-2,4.69-1.89,2.55-1.28-2.16.51,2.94-1.94,3.43-1.36,10.25-4.59,11.54-4.81-10.68,4.52,1.3-.22-7.68,3.74,1.72-.79,3.84-1.71,6.4-2.78.4-.13-.33.22-1,.54,10.29-4.17,4.53-2.36,15.08-6.94-1.27.75,2.58-.75,4.29-1.53-4.26,1.84-2.15.61,1.69-1.21,6.82-2.81,7.31-3.29,10.85-4.81l-4.06,1.7c1.3-.76,4.69-2.21,9.38-4.31.45-.05-4.25,1.95-2.54,1.27,5.11-2.56,11.95-4.84,19.17-8.2,3.42-1.36.46.16,3.46-1,8.08-3.77,8.95-3.63,17.47-7.54-2.57.86-3,1.1,3-1.74l-14.06,6.29,8.93-4.26c-4.27,1.85-8.94,4-11.51,5.12,4.24-2,3.82-1.81,1.7-1.1,6-2.21,11.48-5.22,18.33-7.93l0,.63c10.24-4.16,17.89-8.1,31.12-13.69l-4.27,1.74c1.67-1,8.12-3.56,12.34-5.5-.31.35,2.38-.74,4.25-1.42-.28,0,9.64-4.17,10.68-5.05l6-2.32c10.68-4.52,11.91-5.79,22.16-10.17-3,1.54,1.71-.35-5.08,2.76,3.42-1.48,6.5-2.78,6.5-2.93,2-.75,9.36-4.35,12.57-5.55a56.46,56.46,0,0,1,5.63-2.74c.44-.15,0,.09,0,.09s5.95-2.73,2.51-1.47c10.76-4,29.37-12.81,38.73-16.3l23.13-10.21a4.06,4.06,0,0,1-1.27.64c9.4-3.89,5.51-3,16.2-7.44,5.55-2.06-5.56,2.61-2.14,1.25,1.73,0,12.78-5.64,20.07-8.4l-1.71.79c5.54-2.17,13.22-6,22.16-9.85,0,0-.41.24,0,.11,6-3,17.48-8.07,26-11.88-2.57,1.39-3.84,1.81-2.11,1.34,3.83-1.7-1.29.11,6.36-3.29,2.55-1,8.13-3.25,9-3.32l-7.24,3.16c3.85-1.28,9.37-4.08,13.21-5.69l-.42.36c11.08-4.87,11.07-5.3,23-10.46l-1.28.43c6.37-3.19,5.56-2.17,11.94-5.26l2.13-.5c4.26-2,14.91-6.89,22.6-10.31-4.25,2.16-13.22,6.22-18.74,8.81,4.27-1.85,14.48-6.32,16.62-7.47-1.7.79-3.82,1.81-5.55,2.5q7.66-3.84,20.43-9.38c-1.2,1.36,22.23-9.44,28.63-11.58C767,48.09,781.93,42,799.43,34.39c-6.45,2.15,5.1-2.24,3.78-2.33,4.06-1.81,5.62-2.48,6-2.6l12.51-5c3-1.11-3.82,1.81-3.4,1.78,8.95-3.84,3.85-1.4,9.83-3.81-1.3.32,3-1.64,8.1-3.78L829,21.47c12.35-5.72,11-4.22,23.44-10l-3.9,1.91,7.9-3.5,17.38-7.61a3.84,3.84,0,0,1,1.07-2,5.92,5.92,0,0,0-1.43.06c-.18,0-.28-.09-.16-.17a1.22,1.22,0,0,1,.8-.08,17,17,0,0,0-1.88-.4L852.68,5.13l-11,3.11c-7.14,2-13.82,3.86-19.23,5.19l1.2-.48c-3,.86-5.2,1.7-9,2.58.18-.11,1.19-.47-.22-.1-1.59.48-8,2.43-12,3.43l3.38-1.09c-15.89,4.11-24.19,7-37.45,10.68-.08-.43-12.58,2.81-18.81,4.42l.2-.12c-18.46,5-31.23,8.84-48.26,13.64-10.73,2.41-36,9.53-53.07,13.89,2.63-.63-.33.45-3.35,1.31-4,1-11,3.29-10.44,2.73l1.43-.38c-3.12.44-11.31,2.76-17.73,4.49l-.92.8c-17,3.8-43.89,12.18-53.23,14l-13,3.8.14-.33c-11.24,3-16.85,4.45-30.7,8.27l2.78-1c-7.83,2.11-9.66,3.47-16.87,5.44l-2.29.18c-13.64,3.7-27.56,7.09-40.94,11.11a11.93,11.93,0,0,1,2.78-1c-6.43,1.73-24.93,6.46-22.44,6.38-.13-.16-3.65.79-8.05,2l-13.36,3.9,1.07-.58c-6.12,2-6.3,2.18-15,4.63-2.06.52-1.86.27.89-.4-6.9,1.72-5.27,1.7-13.63,3.81l3.05-1c-7.06,1.89-6.47,1.83-10.3,3.09-4.41,1.31-13.41,3.56-14.52,3.6a81.86,81.86,0,0,1-8.9,2.7c-.59.07.91-.4,1.66-.64-11.85,3-17.46,5.07-25.65,7a4.66,4.66,0,0,0-1.41.21c9.37-2.54,16.93-4.57,16.23-4.36-.07-.24-7.66,1.77-1.73-.21-6,1.84-16.31,5.06-23.72,6.94-.37.07-.72.15-1,.18l.75-.23c-1.71.43-3.23.87-4.65,1.3-2.37.6-3.87,1-6.14,1.58-.93,0-8.71,2.25-12.49,3.26.39.18-4.57,1.48.13.45a28.6,28.6,0,0,1,3.21-.92l1.6-.46-.25.09,9.38-2.56c-2.94.94-6,1.91-10.24,2.89l-5.15,1.86c-5.28,1-15.3,3.52-16.75,3.66-11.49,3.28-27.14,7.46-34.24,9.94a33.24,33.24,0,0,1-5,1.15c1.86-.57,4.11-1.21,5.12-1.54-1.64.46-3.65,1.08-5.79,1.67s-4.41,1.17-6.53,1.7c-4.25,1.06-7.88,1.89-8.64,2.23-8.41,1.51,4.65-1.24-6.86,1.05l1.53-.4c-11.39,1.82-20.65,3.26-30.3,4.24-4.82.47-9.74.83-15.05.9a131.27,131.27,0,0,1-17.37-.88c1.76.19,2.64.28,3,.37A141.24,141.24,0,0,1,146.7,175a84.75,84.75,0,0,1-20.84-7.89,58.38,58.38,0,0,1-17.1-14A71,71,0,0,1,98,134.25c-.68-1.91-1.23-3.39-1.69-4.61s-.7-2.23-1-3.11-.6-1.66-.86-2.53l-.83-3-.1-1.79c-.58-2.77-1.25-5.54-1.61-8.36a76.66,76.66,0,0,1-.64-8.59c0-2.77,0-5.49.24-8.3.36-5.62,1-11.62,2-19.21-.18.64-.33,1.28-.5,1.92.41-2.72,1.16-7,1.91-10.49s1.44-6.15,1.43-5.67a21.63,21.63,0,0,1,.89-3.86l.19-.12q1.62-6.57,3.65-13c1.75-4.95,1.8-4.49,2-4.63s.24-.27.71-1.36,1.22-3,2.65-6.59c1-2.64,2.52-6.4,3.7-9.23s2-4.72,1.51-3.81c-1,2-2.61,5.25-2.82,5.34.69-1.59,1.4-3.18,2.14-4.74,0-.53.36-1.75,0-1.42s-1.65,2.2-4.39,8c-1.1,2.78-2.14,5.58-3.14,8.4l-1.23,2.62q1.31-3.54,2.74-7a65.75,65.75,0,0,0-3.51,9.39,29.16,29.16,0,0,0-1.48,3.47q-1.2,4.23-2.25,8.51c-.48,1,.76-3.89-1,1.75-.94,4,1.48-3.68-.26,2.91-1.28,4.09-1.19,2.83-2.16,7.77-.28.66-.11-.39.3-2.35a138.67,138.67,0,0,0-2.55,14c-.46,2.19-1,5.93-1.33,9.09-.2,1.58-.32,3-.42,4S90,89.13,89.91,89c0,.35,0,1,0,1.89s0,2,0,3.11c0,2.32.07,5,.1,7-.15-1.88-.22-1.86-.24-.79,0,.53,0,1.32,0,2.27s.11,2,.17,3.18c.23,4.56,1,9.78.58,8.83.37,1.37.69,3.31,1.22,5.57s1.11,4.86,2,7.53c.73,2.71,1.86,5.43,2.87,8.11a70.11,70.11,0,0,0,3.64,7.26c-.3-.47-.9-1.39-1.29-2.17l2.88,5.45,2.45,4c.34.2,1.78,2.1,3.71,4.21.94,1.09,2.07,2.17,3.12,3.22s2.15,2,3.09,2.67c1.22,1.21,1.65,1.63,1.58,1.66a5.38,5.38,0,0,1-1.28-.84c-1.33-1-3-2.45-2.35-1.57,0-.23,2.21,1.8,4.45,3.4s4.33,2.93,3.43,2.18l2.42,1.71,1.35.87c.68.45,1.08.75,2.21,1.52,1,0,4.39,2.21,8.56,3.5,3.49,1.46,3.94,1.69,4.47,1.93a33.76,33.76,0,0,0,5.19,1.56c1.9.56,1.05.44-.29.15l-2-.51C141.24,175.8,140.79,175.67,140.79,175.67Zm192-27.65h0l-3.89,1.07Zm15.87-4.31-6.89,1.86c-.58.05,0-.2,1.59-.63C342.46,145.23,346.22,144.28,348.61,143.71Zm-34.1,7.22a28.19,28.19,0,0,1,3.72-.93l-4.38,1.22-.29.12A7.68,7.68,0,0,1,314.51,150.93Z" transform="translate(0.61 0.26)"/><path d="M310.1,152.51l-1,.3,1.52-.34.86-.33Z" transform="translate(0.61 0.26)"/><path d="M35.89,301l.29.18-.61-.4Z" transform="translate(0.61 0.26)"/><polygon points="568.46 85.12 568.41 85.06 567.04 85.5 568.46 85.12"/><path d="M.94,222.58a11.52,11.52,0,0,0,.18-1.17C1.1,221.46,1,222,.94,222.58Z" transform="translate(0.61 0.26)"/><path d="M8.79,184.52c.61-1.73,1.16-3.48,1.83-5.2C9.76,181.55,9.25,183.21,8.79,184.52Z" transform="translate(0.61 0.26)"/><path d="M19.82,156.65a2.59,2.59,0,0,0,.13-.59l0,.06Z" transform="translate(0.61 0.26)"/><path d="M336,233.3l1.06-.47C339.53,231.69,337.84,232.45,336,233.3Z" transform="translate(0.61 0.26)"/><path d="M205.76,290.61l4.14-1.95A23,23,0,0,0,205.76,290.61Z" transform="translate(0.61 0.26)"/><path d="M481.58,169.67h0l.9-.39Z" transform="translate(0.61 0.26)"/><path d="M216,286c-2.34,1-4.28,1.81-6.07,2.63C211.82,287.85,214.07,286.9,216,286Z" transform="translate(0.61 0.26)"/><path d="M88.76,46.6l.89-1.14s0-.07.07-.16Z" transform="translate(0.61 0.26)"/><path d="M89.72,45.3l1-1.29C90.23,44.59,89.84,45.1,89.72,45.3Z" transform="translate(0.61 0.26)"/><path d="M92.71,41.3l-2,2.71C91.41,43.09,92.3,42,92.71,41.3Z" transform="translate(0.61 0.26)"/><path d="M65.16,78.6,65,79C65.11,78.82,65.18,78.67,65.16,78.6Z" transform="translate(0.61 0.26)"/><path d="M58.4,88.62c1.6-2.4,4.21-5.88,6.44-9.23L65,79C64,80.68,59.75,86.22,58.4,88.62Z" transform="translate(0.61 0.26)"/><path d="M31.16,131.11c1.63-3,3.27-5.92,5-8.83-1,1.49-2.26,3.44,0-.58-3.33,5.47-2.91,5-2.55,4.47S34.36,125.28,31.16,131.11Z" transform="translate(0.61 0.26)"/><path d="M17.12,159.28c2.18-5-.17,0-.11-.3C15.69,162.18,15.37,163,17.12,159.28Z" transform="translate(0.61 0.26)"/><path d="M104.57,316l-.54.26C108.24,316.09,104.07,316.14,104.57,316Z" transform="translate(0.61 0.26)"/><path d="M147.58,310.13l-4.05.54-1.87.55C143.63,310.87,145.61,310.51,147.58,310.13Z" transform="translate(0.61 0.26)"/><path d="M173,306.23l-1.77.52,3.39-1,.44-.13a3.56,3.56,0,0,0,.51-.22l.8-.36,1.59-.71-2.36,1.05-.3.14a1.14,1.14,0,0,1-.26.09l-.16.05-.63.19Z" transform="translate(0.61 0.26)"/><path d="M523.1,154.32l-1.29.22C519.23,155.72,518.82,156.28,523.1,154.32Z" transform="translate(0.61 0.26)"/><path d="M674,88.4a87.14,87.14,0,0,0,8.55-3.61C679.16,86.25,675.72,87.61,674,88.4Z" transform="translate(0.61 0.26)"/><polygon points="609.94 71.27 613.11 70.3 607.11 72.02 609.94 71.27"/></svg>